G04 EAGLE Gerber RS-274X export*
G75*
%MOMM*%
%FSLAX34Y34*%
%LPD*%
%INTop Copper*%
%IPPOS*%
%AMOC8*
5,1,8,0,0,1.08239X$1,22.5*%
G01*
%ADD10R,2.600000X2.400000*%
%ADD11P,1.924489X8X112.500000*%
%ADD12C,1.778000*%
%ADD13R,0.800000X1.000000*%
%ADD14R,2.000000X2.400000*%
%ADD15R,1.219200X1.219200*%
%ADD16C,1.219200*%
%ADD17R,1.000000X1.100000*%
%ADD18C,1.676400*%
%ADD19R,0.600000X2.200000*%
%ADD20R,2.200000X0.600000*%
%ADD21C,2.550000*%
%ADD22C,1.422400*%
%ADD23C,1.800000*%
%ADD24C,0.152400*%
%ADD25C,0.756400*%
%ADD26C,0.508000*%
%ADD27C,0.812800*%


D10*
X220950Y21100D03*
X157450Y21100D03*
X230250Y-78900D03*
X166750Y-78900D03*
D11*
X87300Y31700D03*
D12*
X87300Y6300D03*
D13*
X325000Y20000D03*
X325000Y0D03*
D14*
X275700Y-81100D03*
X313700Y-81100D03*
D15*
X375000Y-40000D03*
D16*
X395000Y-40000D03*
X375000Y-20000D03*
X395000Y-20000D03*
X375000Y0D03*
X395000Y0D03*
X375000Y20000D03*
X395000Y20000D03*
X375000Y40000D03*
X395000Y40000D03*
D15*
X35400Y30000D03*
D16*
X35400Y10000D03*
X35400Y-10000D03*
X35400Y-30000D03*
D17*
X564500Y100000D03*
X547500Y100000D03*
X564500Y75000D03*
X547500Y75000D03*
D18*
X240700Y88500D03*
X266100Y88500D03*
X291500Y88500D03*
X316900Y88500D03*
X240700Y-38500D03*
X266100Y-38500D03*
X291500Y-38500D03*
X316900Y-38500D03*
X215300Y88500D03*
X189900Y88500D03*
X164500Y88500D03*
X139100Y88500D03*
X139100Y-38500D03*
X164500Y-38500D03*
X189900Y-38500D03*
X215300Y-38500D03*
D19*
X291350Y56000D03*
X291350Y4000D03*
X304050Y56000D03*
X278650Y56000D03*
X265950Y56000D03*
X304050Y4000D03*
X278650Y4000D03*
X265950Y4000D03*
D20*
X639900Y83650D03*
X587900Y83650D03*
X639900Y70950D03*
X639900Y96350D03*
X639900Y109050D03*
X587900Y70950D03*
X587900Y96350D03*
X587900Y109050D03*
D21*
X660000Y-3000D03*
X660000Y-53000D03*
D18*
X760000Y27000D03*
X760000Y-83000D03*
D22*
X517000Y74000D03*
X467000Y74000D03*
X492000Y106000D03*
X681300Y98800D03*
X681300Y118800D03*
D23*
X705300Y78800D03*
X705300Y138800D03*
D18*
X762000Y-104200D03*
X736600Y-104200D03*
X711200Y-104200D03*
X685800Y-104200D03*
X660400Y-104200D03*
X635000Y-104200D03*
X609600Y-104200D03*
X584200Y-104200D03*
X558800Y-104200D03*
X533400Y-104200D03*
X508000Y-104200D03*
X482600Y-104200D03*
X457200Y-104200D03*
X431800Y-104200D03*
X431800Y48200D03*
X457200Y48200D03*
X482600Y48200D03*
X508000Y48200D03*
X533400Y48200D03*
X558800Y48200D03*
X584200Y48200D03*
X609600Y48200D03*
X635000Y48200D03*
X660400Y48200D03*
X685800Y48200D03*
X711200Y48200D03*
X736600Y48200D03*
X762000Y48200D03*
D24*
X323088Y20320D02*
X315000Y20320D01*
X323088Y20320D02*
X325000Y20000D01*
D25*
X255000Y25000D03*
X255000Y5000D03*
D26*
X255000Y25000D01*
X255000Y5000D02*
X256000Y4000D01*
X265950Y4000D01*
X278650Y4000D01*
X282206Y7556D01*
X282206Y16040D01*
X286486Y20320D01*
X315000Y20320D01*
X315320Y20000D01*
X325000Y20000D01*
D25*
X160000Y50000D03*
X140000Y50000D03*
D26*
X150000Y50000D01*
X160000Y50000D01*
X157450Y42550D02*
X150000Y50000D01*
X157450Y42550D02*
X157450Y21100D01*
D24*
X606570Y83650D02*
X639900Y83650D01*
D25*
X130000Y-95000D03*
X145000Y-100000D03*
D26*
X145650Y-100000D02*
X166750Y-78900D01*
X145650Y-100000D02*
X145000Y-100000D01*
X140650Y-95000D02*
X130000Y-95000D01*
X140650Y-95000D02*
X145650Y-100000D01*
D24*
X600268Y64648D02*
X602202Y66582D01*
X549330Y75000D02*
X547500Y75000D01*
X602202Y79282D02*
X606570Y83650D01*
X602202Y79282D02*
X602202Y66582D01*
X559682Y64648D02*
X549330Y75000D01*
X559682Y64648D02*
X600268Y64648D01*
D25*
X535000Y77000D03*
X535000Y65000D03*
D24*
X537000Y75000D02*
X547500Y75000D01*
X537000Y75000D02*
X535000Y77000D01*
X535000Y65000D01*
D27*
X403831Y-52700D02*
X359739Y-52700D01*
X655000Y500D02*
X660000Y-3000D01*
X655000Y500D02*
X457031Y500D01*
X403831Y-52700D01*
X359739Y-52700D02*
X328604Y-21565D01*
X220950Y20661D02*
X220950Y21100D01*
X176336Y-23514D01*
X143307Y-38500D02*
X139100Y-38500D01*
X158293Y-23514D02*
X176336Y-23514D01*
X158293Y-23514D02*
X143307Y-38500D01*
X139100Y-38500D02*
X139100Y-33500D01*
X99300Y6300D01*
X263175Y-21565D02*
X305000Y-21565D01*
X328604Y-21565D01*
X263175Y-21565D02*
X220950Y20661D01*
X291350Y-7915D02*
X305000Y-21565D01*
X291350Y-7915D02*
X291350Y4000D01*
X99300Y6300D02*
X87300Y6300D01*
D24*
X589280Y97536D02*
X609600Y97536D01*
X627888Y115824D01*
X678688Y115824D01*
X680720Y117856D01*
X589280Y97536D02*
X587900Y96350D01*
X680720Y117856D02*
X681300Y118800D01*
X587900Y96350D02*
X584250Y100000D01*
X564500Y100000D01*
D25*
X661176Y80960D03*
D24*
X587900Y83650D02*
X571020Y83650D01*
X570256Y84414D01*
X477414Y84414D01*
X467000Y74000D01*
X587900Y83650D02*
X600822Y83650D01*
X652268Y89952D02*
X654202Y88018D01*
X654202Y87934D01*
X661176Y80960D01*
X607124Y89952D02*
X600822Y83650D01*
X607124Y89952D02*
X652268Y89952D01*
X656336Y69088D02*
X640080Y69088D01*
X656336Y69088D02*
X672592Y52832D01*
X672592Y44704D01*
X705104Y12192D01*
X717296Y12192D01*
X723392Y6096D01*
X723392Y-34544D01*
X660400Y-97536D01*
X660400Y-104200D01*
X640080Y69088D02*
X639900Y70950D01*
X640080Y107696D02*
X656336Y107696D01*
X703072Y60960D01*
X715264Y60960D01*
X723392Y52832D01*
X723392Y12192D01*
X727456Y8128D01*
X727456Y-40640D01*
X674624Y-93472D01*
X640080Y107696D02*
X639900Y109050D01*
D25*
X674624Y-93472D03*
D24*
X662432Y95504D02*
X640080Y95504D01*
X662432Y95504D02*
X711200Y46736D01*
X640080Y95504D02*
X639900Y96350D01*
X711200Y48200D02*
X711200Y46736D01*
X587900Y70950D02*
X568550Y70950D01*
X564500Y75000D01*
X323088Y0D02*
X306832Y0D01*
X304800Y2032D01*
X304050Y4000D01*
X323088Y0D02*
X333248Y-10160D01*
X325000Y0D02*
X323088Y0D01*
D25*
X331216Y-42512D03*
X333248Y-10160D03*
D26*
X308050Y0D02*
X304050Y4000D01*
X308050Y0D02*
X325000Y0D01*
X325000Y-1912D01*
X333248Y-10160D01*
X282628Y-81100D02*
X275700Y-81100D01*
X330362Y-42512D02*
X331216Y-42512D01*
X330362Y-42512D02*
X330362Y-49076D01*
X322476Y-56962D01*
X306766Y-56962D01*
X282628Y-81100D01*
D24*
X230250Y-78900D02*
X206350Y-55000D01*
X100000Y-55000D01*
X60000Y-15000D01*
X60000Y25000D01*
X100000Y65000D01*
X256950Y65000D02*
X265950Y56000D01*
X256950Y65000D02*
X100000Y65000D01*
X295000Y-100000D02*
X310000Y-85000D01*
X295000Y-100000D02*
X255000Y-100000D01*
X235000Y-80000D01*
X310000Y-85000D02*
X313700Y-81100D01*
X235000Y-80000D02*
X230250Y-78900D01*
X320000Y-80000D02*
X345000Y-55000D01*
X320000Y-80000D02*
X315000Y-80000D01*
X313700Y-81100D01*
X680000Y-35000D02*
X715000Y0D01*
X680000Y-35000D02*
X590000Y-35000D01*
X540000Y-85000D01*
X415000Y-85000D01*
D25*
X345000Y-55000D03*
X715000Y0D03*
X415000Y-85000D03*
D24*
X264160Y89408D02*
X241808Y89408D01*
X240700Y88500D01*
X264160Y89408D02*
X266100Y88500D01*
X449072Y48768D02*
X457200Y48768D01*
X449072Y48768D02*
X436880Y60960D01*
X382016Y60960D01*
X377952Y56896D01*
X329184Y56896D01*
X310896Y75184D01*
X278384Y75184D01*
X266192Y87376D01*
X457200Y48768D02*
X457200Y48200D01*
X266192Y87376D02*
X266100Y88500D01*
X355600Y36576D02*
X363728Y36576D01*
X369824Y30480D01*
X491744Y30480D01*
X508000Y46736D01*
X508000Y48200D01*
D25*
X355600Y36576D03*
D24*
X345440Y36576D02*
X359664Y50800D01*
X412496Y50800D01*
X428752Y34544D01*
X485648Y34544D01*
X495808Y44704D01*
X495808Y52832D01*
X503936Y60960D01*
X520192Y60960D01*
X532384Y48768D01*
X533400Y48200D01*
D25*
X345440Y36576D03*
D24*
X290576Y89408D02*
X282448Y89408D01*
X270256Y101600D01*
X235712Y101600D01*
X227584Y93472D01*
X227584Y83312D01*
X239776Y71120D01*
X308864Y71120D01*
X337312Y42672D01*
X337312Y24384D01*
X371856Y-10160D01*
X416560Y-10160D01*
X291500Y88500D02*
X290576Y89408D01*
D25*
X416560Y-10160D03*
D24*
X461264Y60960D02*
X490000Y60960D01*
X461264Y60960D02*
X410464Y111760D01*
X359664Y111760D01*
X337312Y89408D01*
X316992Y89408D01*
X316900Y88500D01*
D25*
X490000Y60960D03*
X510000Y-15000D03*
D24*
X510000Y-50000D01*
X535000Y-75000D01*
D25*
X535000Y-75000D03*
D24*
X498000Y100000D02*
X492000Y106000D01*
X498000Y100000D02*
X547500Y100000D01*
X415000Y25000D02*
X410000Y20000D01*
X415000Y25000D02*
X565000Y25000D01*
X575000Y35000D01*
X595000Y35000D01*
X605000Y45000D01*
X609600Y48200D01*
D25*
X410000Y20000D03*
D24*
X385000Y10000D02*
X375000Y0D01*
X385000Y10000D02*
X445000Y10000D01*
X455000Y20000D01*
X575000Y20000D01*
D25*
X575000Y20000D03*
D24*
X457200Y12192D02*
X430004Y-15004D01*
X457200Y12192D02*
X625856Y12192D01*
X660400Y46736D01*
X660400Y48200D01*
X385000Y-30000D02*
X375000Y-20000D01*
X385000Y-30000D02*
X415000Y-30000D01*
X430000Y-15000D01*
X430004Y-15004D01*
M02*
