G04 EAGLE Gerber RS-274X export*
G75*
%MOMM*%
%FSLAX34Y34*%
%LPD*%
%INBottom Copper*%
%IPPOS*%
%AMOC8*
5,1,8,0,0,1.08239X$1,22.5*%
G01*
%ADD10P,1.924489X8X112.500000*%
%ADD11C,1.778000*%
%ADD12R,1.219200X1.219200*%
%ADD13C,1.219200*%
%ADD14C,1.676400*%
%ADD15C,2.550000*%
%ADD16C,1.422400*%
%ADD17C,1.800000*%
%ADD18C,0.756400*%
%ADD19C,0.152400*%
%ADD20C,0.508000*%
%ADD21C,0.609600*%

G36*
X770368Y-120021D02*
X770368Y-120021D01*
X770387Y-120023D01*
X770481Y-120003D01*
X770577Y-119989D01*
X770584Y-119986D01*
X770591Y-119985D01*
X770608Y-119975D01*
X770628Y-119971D01*
X770711Y-119922D01*
X770797Y-119878D01*
X770802Y-119873D01*
X770808Y-119870D01*
X770822Y-119855D01*
X770839Y-119845D01*
X770902Y-119772D01*
X770969Y-119703D01*
X770972Y-119696D01*
X770978Y-119691D01*
X770986Y-119673D01*
X770999Y-119658D01*
X771035Y-119568D01*
X771077Y-119482D01*
X771078Y-119475D01*
X771081Y-119468D01*
X771083Y-119448D01*
X771091Y-119430D01*
X771109Y-119263D01*
X771109Y-112376D01*
X771098Y-112305D01*
X771096Y-112233D01*
X771078Y-112184D01*
X771070Y-112133D01*
X771036Y-112070D01*
X771011Y-112002D01*
X770979Y-111962D01*
X770954Y-111915D01*
X770902Y-111866D01*
X770858Y-111810D01*
X770814Y-111782D01*
X770776Y-111746D01*
X770711Y-111716D01*
X770651Y-111677D01*
X770600Y-111664D01*
X770553Y-111642D01*
X770482Y-111635D01*
X770412Y-111617D01*
X770360Y-111621D01*
X770309Y-111615D01*
X770238Y-111631D01*
X770167Y-111636D01*
X770119Y-111657D01*
X770068Y-111668D01*
X770007Y-111704D01*
X769941Y-111733D01*
X769885Y-111777D01*
X769857Y-111794D01*
X769842Y-111812D01*
X769810Y-111837D01*
X769116Y-112531D01*
X767725Y-113542D01*
X766193Y-114322D01*
X764558Y-114854D01*
X763523Y-115018D01*
X763523Y-104962D01*
X763520Y-104942D01*
X763522Y-104923D01*
X763500Y-104821D01*
X763483Y-104719D01*
X763474Y-104702D01*
X763470Y-104682D01*
X763417Y-104593D01*
X763368Y-104502D01*
X763354Y-104488D01*
X763344Y-104471D01*
X763265Y-104404D01*
X763190Y-104333D01*
X763172Y-104324D01*
X763157Y-104311D01*
X763061Y-104273D01*
X762967Y-104229D01*
X762947Y-104227D01*
X762929Y-104219D01*
X762762Y-104201D01*
X761999Y-104201D01*
X761999Y-103438D01*
X761996Y-103418D01*
X761998Y-103399D01*
X761976Y-103297D01*
X761959Y-103195D01*
X761950Y-103178D01*
X761946Y-103158D01*
X761893Y-103069D01*
X761844Y-102978D01*
X761830Y-102964D01*
X761820Y-102947D01*
X761741Y-102880D01*
X761666Y-102809D01*
X761648Y-102800D01*
X761633Y-102787D01*
X761537Y-102748D01*
X761443Y-102705D01*
X761423Y-102703D01*
X761405Y-102695D01*
X761238Y-102677D01*
X751182Y-102677D01*
X751346Y-101642D01*
X751878Y-100007D01*
X752658Y-98475D01*
X753669Y-97084D01*
X754884Y-95869D01*
X756275Y-94858D01*
X756512Y-94737D01*
X756546Y-94712D01*
X756585Y-94695D01*
X756645Y-94640D01*
X756711Y-94592D01*
X756735Y-94557D01*
X756766Y-94529D01*
X756805Y-94457D01*
X756852Y-94390D01*
X756864Y-94350D01*
X756884Y-94313D01*
X756899Y-94233D01*
X756922Y-94155D01*
X756921Y-94113D01*
X756928Y-94071D01*
X756916Y-93991D01*
X756913Y-93909D01*
X756898Y-93870D01*
X756892Y-93828D01*
X756855Y-93755D01*
X756826Y-93679D01*
X756800Y-93646D01*
X756781Y-93609D01*
X756722Y-93552D01*
X756671Y-93488D01*
X756635Y-93466D01*
X756605Y-93436D01*
X756469Y-93362D01*
X756462Y-93357D01*
X756461Y-93357D01*
X756458Y-93356D01*
X753813Y-92260D01*
X750740Y-89187D01*
X749077Y-85173D01*
X749077Y-80827D01*
X750740Y-76813D01*
X753813Y-73740D01*
X757827Y-72077D01*
X762173Y-72077D01*
X766187Y-73740D01*
X769260Y-76813D01*
X769645Y-77742D01*
X769696Y-77825D01*
X769742Y-77911D01*
X769760Y-77929D01*
X769774Y-77951D01*
X769850Y-78013D01*
X769920Y-78080D01*
X769944Y-78091D01*
X769964Y-78108D01*
X770055Y-78143D01*
X770143Y-78184D01*
X770169Y-78187D01*
X770193Y-78196D01*
X770291Y-78200D01*
X770387Y-78211D01*
X770413Y-78205D01*
X770439Y-78206D01*
X770533Y-78179D01*
X770628Y-78159D01*
X770650Y-78145D01*
X770675Y-78138D01*
X770755Y-78082D01*
X770839Y-78032D01*
X770856Y-78013D01*
X770877Y-77998D01*
X770936Y-77919D01*
X770999Y-77846D01*
X771009Y-77821D01*
X771024Y-77800D01*
X771054Y-77708D01*
X771091Y-77617D01*
X771094Y-77585D01*
X771100Y-77566D01*
X771100Y-77533D01*
X771109Y-77451D01*
X771109Y21451D01*
X771094Y21547D01*
X771084Y21644D01*
X771074Y21668D01*
X771070Y21693D01*
X771024Y21779D01*
X770984Y21868D01*
X770967Y21888D01*
X770954Y21911D01*
X770884Y21978D01*
X770818Y22050D01*
X770795Y22062D01*
X770776Y22080D01*
X770688Y22121D01*
X770602Y22168D01*
X770577Y22173D01*
X770553Y22184D01*
X770456Y22194D01*
X770360Y22212D01*
X770334Y22208D01*
X770309Y22211D01*
X770213Y22190D01*
X770117Y22176D01*
X770094Y22164D01*
X770068Y22159D01*
X769985Y22109D01*
X769898Y22065D01*
X769879Y22046D01*
X769857Y22032D01*
X769794Y21959D01*
X769726Y21889D01*
X769710Y21860D01*
X769697Y21846D01*
X769685Y21815D01*
X769645Y21742D01*
X769260Y20813D01*
X766187Y17740D01*
X762173Y16077D01*
X757827Y16077D01*
X753813Y17740D01*
X750740Y20813D01*
X749077Y24827D01*
X749077Y27569D01*
X749066Y27639D01*
X749064Y27711D01*
X749046Y27760D01*
X749038Y27811D01*
X749004Y27875D01*
X748979Y27942D01*
X748947Y27983D01*
X748922Y28029D01*
X748871Y28078D01*
X748826Y28134D01*
X748782Y28162D01*
X748744Y28198D01*
X748679Y28228D01*
X748619Y28267D01*
X748568Y28280D01*
X748521Y28302D01*
X748450Y28310D01*
X748380Y28327D01*
X748328Y28323D01*
X748277Y28329D01*
X748206Y28314D01*
X748135Y28308D01*
X748087Y28288D01*
X748036Y28277D01*
X747975Y28240D01*
X747909Y28212D01*
X747853Y28167D01*
X747825Y28150D01*
X747810Y28133D01*
X747778Y28107D01*
X721546Y1875D01*
X721493Y1801D01*
X721433Y1732D01*
X721421Y1701D01*
X721402Y1675D01*
X721375Y1588D01*
X721341Y1503D01*
X721337Y1462D01*
X721330Y1440D01*
X721331Y1408D01*
X721323Y1337D01*
X721323Y-1258D01*
X720360Y-3582D01*
X718582Y-5360D01*
X716258Y-6323D01*
X713742Y-6323D01*
X711418Y-5360D01*
X709640Y-3582D01*
X708677Y-1258D01*
X708677Y1258D01*
X709640Y3582D01*
X711418Y5360D01*
X713742Y6323D01*
X716337Y6323D01*
X716427Y6337D01*
X716518Y6345D01*
X716547Y6357D01*
X716579Y6362D01*
X716660Y6405D01*
X716744Y6441D01*
X716776Y6467D01*
X716797Y6478D01*
X716815Y6497D01*
X716817Y6498D01*
X716823Y6504D01*
X716875Y6546D01*
X752264Y41935D01*
X752331Y42029D01*
X752402Y42123D01*
X752404Y42129D01*
X752407Y42134D01*
X752441Y42245D01*
X752478Y42357D01*
X752478Y42363D01*
X752480Y42369D01*
X752477Y42486D01*
X752476Y42603D01*
X752474Y42610D01*
X752473Y42615D01*
X752467Y42633D01*
X752429Y42764D01*
X751077Y46027D01*
X751077Y50373D01*
X752740Y54387D01*
X755813Y57460D01*
X759827Y59123D01*
X764173Y59123D01*
X768187Y57460D01*
X769810Y55837D01*
X769868Y55795D01*
X769920Y55746D01*
X769967Y55724D01*
X770009Y55694D01*
X770078Y55673D01*
X770143Y55642D01*
X770195Y55637D01*
X770245Y55621D01*
X770316Y55623D01*
X770387Y55615D01*
X770438Y55626D01*
X770490Y55628D01*
X770558Y55652D01*
X770628Y55668D01*
X770673Y55694D01*
X770721Y55712D01*
X770777Y55757D01*
X770839Y55794D01*
X770873Y55833D01*
X770913Y55866D01*
X770952Y55926D01*
X770999Y55981D01*
X771018Y56029D01*
X771046Y56073D01*
X771064Y56142D01*
X771091Y56209D01*
X771099Y56280D01*
X771107Y56311D01*
X771105Y56335D01*
X771109Y56376D01*
X771109Y150348D01*
X771106Y150368D01*
X771108Y150387D01*
X771086Y150489D01*
X771070Y150591D01*
X771060Y150608D01*
X771056Y150628D01*
X771003Y150717D01*
X770954Y150808D01*
X770940Y150822D01*
X770930Y150839D01*
X770851Y150906D01*
X770776Y150978D01*
X770758Y150986D01*
X770743Y150999D01*
X770647Y151038D01*
X770553Y151081D01*
X770533Y151083D01*
X770515Y151091D01*
X770348Y151109D01*
X709567Y151109D01*
X709471Y151094D01*
X709374Y151084D01*
X709350Y151074D01*
X709324Y151070D01*
X709238Y151024D01*
X709149Y150984D01*
X709130Y150967D01*
X709107Y150954D01*
X709040Y150884D01*
X708968Y150818D01*
X708956Y150795D01*
X708938Y150776D01*
X708897Y150688D01*
X708850Y150602D01*
X708845Y150577D01*
X708834Y150553D01*
X708823Y150456D01*
X708806Y150360D01*
X708810Y150334D01*
X708807Y150309D01*
X708828Y150213D01*
X708842Y150117D01*
X708854Y150094D01*
X708859Y150068D01*
X708909Y149985D01*
X708953Y149898D01*
X708972Y149879D01*
X708985Y149857D01*
X709059Y149794D01*
X709129Y149726D01*
X709158Y149710D01*
X709172Y149697D01*
X709203Y149685D01*
X709276Y149645D01*
X711837Y148584D01*
X715084Y145337D01*
X716841Y141096D01*
X716841Y136504D01*
X715084Y132263D01*
X711837Y129016D01*
X707596Y127259D01*
X703004Y127259D01*
X698763Y129016D01*
X695516Y132263D01*
X693759Y136504D01*
X693759Y141096D01*
X695516Y145337D01*
X698763Y148584D01*
X701324Y149645D01*
X701407Y149696D01*
X701493Y149742D01*
X701511Y149761D01*
X701533Y149774D01*
X701595Y149849D01*
X701662Y149920D01*
X701673Y149944D01*
X701690Y149964D01*
X701725Y150055D01*
X701766Y150143D01*
X701769Y150169D01*
X701778Y150193D01*
X701782Y150291D01*
X701793Y150387D01*
X701787Y150413D01*
X701789Y150439D01*
X701761Y150533D01*
X701741Y150628D01*
X701727Y150650D01*
X701720Y150675D01*
X701665Y150755D01*
X701615Y150839D01*
X701595Y150856D01*
X701580Y150877D01*
X701502Y150936D01*
X701428Y150999D01*
X701403Y151009D01*
X701382Y151024D01*
X701290Y151054D01*
X701200Y151091D01*
X701167Y151094D01*
X701149Y151100D01*
X701116Y151100D01*
X701033Y151109D01*
X659652Y151109D01*
X659632Y151106D01*
X659613Y151108D01*
X659511Y151086D01*
X659409Y151070D01*
X659392Y151060D01*
X659372Y151056D01*
X659283Y151003D01*
X659192Y150954D01*
X659178Y150940D01*
X659161Y150930D01*
X659094Y150851D01*
X659022Y150776D01*
X659014Y150758D01*
X659001Y150743D01*
X658962Y150647D01*
X658919Y150553D01*
X658917Y150533D01*
X658909Y150515D01*
X658891Y150348D01*
X658891Y126686D01*
X658892Y126681D01*
X658891Y126673D01*
X658921Y124966D01*
X658909Y124936D01*
X658900Y124854D01*
X658247Y123278D01*
X658246Y123273D01*
X658242Y123265D01*
X657617Y121676D01*
X657594Y121653D01*
X657554Y121581D01*
X656348Y120375D01*
X656345Y120370D01*
X656339Y120365D01*
X655153Y119136D01*
X655123Y119124D01*
X655059Y119072D01*
X653482Y118419D01*
X653478Y118416D01*
X653470Y118414D01*
X651905Y117733D01*
X651872Y117732D01*
X651793Y117709D01*
X650087Y117709D01*
X650081Y117708D01*
X650073Y117709D01*
X498471Y115004D01*
X498408Y114992D01*
X498343Y114990D01*
X498287Y114970D01*
X498229Y114960D01*
X498173Y114928D01*
X498112Y114906D01*
X498066Y114869D01*
X498014Y114841D01*
X497970Y114793D01*
X497920Y114752D01*
X497888Y114703D01*
X497848Y114659D01*
X497822Y114600D01*
X497787Y114545D01*
X497772Y114488D01*
X497748Y114434D01*
X497742Y114370D01*
X497727Y114307D01*
X497731Y114248D01*
X497726Y114189D01*
X497741Y114126D01*
X497746Y114062D01*
X497769Y114007D01*
X497782Y113950D01*
X497817Y113895D01*
X497842Y113835D01*
X497895Y113769D01*
X497912Y113741D01*
X497927Y113729D01*
X497947Y113704D01*
X500183Y111468D01*
X501653Y107920D01*
X501653Y104080D01*
X500183Y100532D01*
X497468Y97817D01*
X493920Y96347D01*
X490080Y96347D01*
X486532Y97817D01*
X483817Y100532D01*
X482347Y104080D01*
X482347Y107920D01*
X483817Y111468D01*
X485818Y113469D01*
X485863Y113532D01*
X485916Y113590D01*
X485935Y113632D01*
X485961Y113668D01*
X485984Y113743D01*
X486016Y113815D01*
X486020Y113860D01*
X486033Y113903D01*
X486031Y113982D01*
X486039Y114060D01*
X486028Y114104D01*
X486027Y114149D01*
X486000Y114223D01*
X485982Y114299D01*
X485958Y114338D01*
X485943Y114380D01*
X485894Y114442D01*
X485852Y114508D01*
X485817Y114537D01*
X485789Y114572D01*
X485723Y114615D01*
X485662Y114665D01*
X485620Y114681D01*
X485582Y114705D01*
X485506Y114724D01*
X485433Y114752D01*
X485373Y114758D01*
X485343Y114765D01*
X485316Y114763D01*
X485266Y114768D01*
X84439Y107615D01*
X84398Y107607D01*
X84357Y107609D01*
X84278Y107585D01*
X84197Y107571D01*
X84161Y107551D01*
X84121Y107539D01*
X84054Y107492D01*
X83981Y107452D01*
X83954Y107421D01*
X83920Y107398D01*
X83871Y107331D01*
X83815Y107270D01*
X83799Y107233D01*
X83774Y107200D01*
X83749Y107121D01*
X83716Y107046D01*
X83712Y107005D01*
X83699Y106965D01*
X83701Y106883D01*
X83693Y106801D01*
X83702Y106761D01*
X83703Y106719D01*
X83731Y106642D01*
X83749Y106561D01*
X83771Y106526D01*
X83785Y106487D01*
X83836Y106422D01*
X83879Y106352D01*
X83911Y106326D01*
X83937Y106294D01*
X84065Y106200D01*
X84069Y106196D01*
X84070Y106195D01*
X84072Y106194D01*
X85590Y105318D01*
X90318Y100590D01*
X93660Y94801D01*
X95391Y88343D01*
X95391Y81657D01*
X93660Y75199D01*
X90318Y69410D01*
X85590Y64682D01*
X79801Y61340D01*
X73343Y59609D01*
X66657Y59609D01*
X60199Y61340D01*
X54410Y64682D01*
X49682Y69410D01*
X46340Y75199D01*
X44609Y81657D01*
X44609Y88343D01*
X46340Y94801D01*
X49682Y100590D01*
X54410Y105318D01*
X55006Y105662D01*
X55049Y105697D01*
X55097Y105723D01*
X55143Y105774D01*
X55197Y105818D01*
X55226Y105864D01*
X55263Y105905D01*
X55291Y105968D01*
X55327Y106026D01*
X55340Y106080D01*
X55362Y106129D01*
X55369Y106198D01*
X55385Y106265D01*
X55380Y106320D01*
X55385Y106374D01*
X55369Y106442D01*
X55363Y106510D01*
X55341Y106560D01*
X55329Y106614D01*
X55292Y106672D01*
X55264Y106736D01*
X55228Y106776D01*
X55199Y106823D01*
X55145Y106867D01*
X55099Y106918D01*
X55051Y106944D01*
X55009Y106979D01*
X54944Y107004D01*
X54884Y107037D01*
X54830Y107047D01*
X54779Y107067D01*
X54672Y107077D01*
X54642Y107082D01*
X54631Y107081D01*
X54612Y107082D01*
X9638Y106280D01*
X9626Y106278D01*
X9613Y106279D01*
X9505Y106256D01*
X9396Y106236D01*
X9385Y106229D01*
X9372Y106227D01*
X9278Y106170D01*
X9181Y106117D01*
X9172Y106107D01*
X9161Y106101D01*
X9090Y106017D01*
X9015Y105936D01*
X9010Y105924D01*
X9001Y105914D01*
X8960Y105811D01*
X8915Y105711D01*
X8914Y105698D01*
X8909Y105685D01*
X8891Y105519D01*
X8891Y-104829D01*
X8892Y-104837D01*
X8892Y-104839D01*
X8893Y-104843D01*
X8891Y-104854D01*
X8913Y-104963D01*
X8930Y-105072D01*
X8936Y-105083D01*
X8939Y-105096D01*
X8994Y-105192D01*
X9046Y-105290D01*
X9055Y-105298D01*
X9061Y-105309D01*
X9144Y-105383D01*
X9224Y-105459D01*
X9235Y-105464D01*
X9245Y-105473D01*
X9346Y-105516D01*
X9447Y-105563D01*
X9460Y-105564D01*
X9471Y-105569D01*
X9638Y-105591D01*
X53666Y-106426D01*
X53744Y-106415D01*
X53823Y-106413D01*
X53865Y-106397D01*
X53909Y-106391D01*
X53980Y-106355D01*
X54054Y-106328D01*
X54089Y-106300D01*
X54129Y-106280D01*
X54184Y-106224D01*
X54246Y-106174D01*
X54270Y-106137D01*
X54302Y-106105D01*
X54336Y-106034D01*
X54379Y-105968D01*
X54390Y-105924D01*
X54409Y-105884D01*
X54420Y-105806D01*
X54439Y-105729D01*
X54435Y-105684D01*
X54441Y-105640D01*
X54426Y-105562D01*
X54420Y-105484D01*
X54402Y-105443D01*
X54393Y-105398D01*
X54354Y-105330D01*
X54323Y-105258D01*
X54286Y-105211D01*
X54271Y-105185D01*
X54251Y-105167D01*
X54219Y-105127D01*
X49682Y-100590D01*
X46340Y-94801D01*
X44609Y-88343D01*
X44609Y-81657D01*
X46340Y-75199D01*
X49682Y-69410D01*
X54410Y-64682D01*
X60199Y-61340D01*
X66657Y-59609D01*
X73343Y-59609D01*
X79801Y-61340D01*
X85590Y-64682D01*
X90318Y-69410D01*
X93660Y-75199D01*
X95391Y-81657D01*
X95391Y-88343D01*
X93660Y-94801D01*
X90318Y-100590D01*
X85590Y-105318D01*
X85086Y-105609D01*
X85055Y-105635D01*
X85018Y-105653D01*
X84960Y-105712D01*
X84896Y-105764D01*
X84874Y-105799D01*
X84845Y-105828D01*
X84809Y-105903D01*
X84765Y-105973D01*
X84756Y-106012D01*
X84738Y-106049D01*
X84727Y-106131D01*
X84708Y-106212D01*
X84711Y-106253D01*
X84706Y-106293D01*
X84722Y-106374D01*
X84729Y-106457D01*
X84746Y-106494D01*
X84754Y-106534D01*
X84795Y-106606D01*
X84828Y-106682D01*
X84855Y-106712D01*
X84876Y-106748D01*
X84938Y-106803D01*
X84994Y-106864D01*
X85029Y-106884D01*
X85060Y-106911D01*
X85136Y-106944D01*
X85208Y-106984D01*
X85248Y-106991D01*
X85286Y-107007D01*
X85446Y-107028D01*
X85450Y-107029D01*
X85451Y-107029D01*
X85452Y-107029D01*
X423749Y-113448D01*
X423827Y-113437D01*
X423906Y-113435D01*
X423948Y-113419D01*
X423992Y-113413D01*
X424063Y-113377D01*
X424137Y-113350D01*
X424172Y-113322D01*
X424212Y-113302D01*
X424267Y-113246D01*
X424329Y-113197D01*
X424353Y-113159D01*
X424385Y-113127D01*
X424419Y-113056D01*
X424462Y-112990D01*
X424473Y-112946D01*
X424492Y-112906D01*
X424503Y-112828D01*
X424522Y-112751D01*
X424518Y-112706D01*
X424524Y-112662D01*
X424509Y-112584D01*
X424503Y-112506D01*
X424485Y-112465D01*
X424476Y-112421D01*
X424437Y-112352D01*
X424406Y-112280D01*
X424369Y-112233D01*
X424354Y-112207D01*
X424334Y-112189D01*
X424302Y-112149D01*
X422540Y-110387D01*
X420877Y-106373D01*
X420877Y-102027D01*
X422540Y-98013D01*
X425613Y-94940D01*
X429627Y-93277D01*
X433973Y-93277D01*
X437987Y-94940D01*
X441060Y-98013D01*
X442723Y-102027D01*
X442723Y-106373D01*
X441060Y-110387D01*
X438999Y-112448D01*
X438961Y-112500D01*
X438916Y-112546D01*
X438890Y-112600D01*
X438856Y-112648D01*
X438837Y-112709D01*
X438808Y-112767D01*
X438801Y-112826D01*
X438783Y-112883D01*
X438785Y-112947D01*
X438777Y-113011D01*
X438788Y-113069D01*
X438790Y-113129D01*
X438812Y-113189D01*
X438824Y-113253D01*
X438854Y-113304D01*
X438874Y-113360D01*
X438914Y-113410D01*
X438946Y-113466D01*
X438991Y-113505D01*
X439028Y-113552D01*
X439082Y-113587D01*
X439130Y-113629D01*
X439185Y-113653D01*
X439235Y-113685D01*
X439297Y-113700D01*
X439357Y-113726D01*
X439441Y-113737D01*
X439473Y-113745D01*
X439492Y-113743D01*
X439523Y-113747D01*
X449640Y-113939D01*
X449718Y-113928D01*
X449797Y-113926D01*
X449839Y-113911D01*
X449884Y-113904D01*
X449954Y-113869D01*
X450028Y-113842D01*
X450063Y-113814D01*
X450103Y-113793D01*
X450158Y-113737D01*
X450220Y-113688D01*
X450244Y-113650D01*
X450276Y-113618D01*
X450310Y-113547D01*
X450353Y-113481D01*
X450364Y-113437D01*
X450384Y-113397D01*
X450394Y-113319D01*
X450413Y-113242D01*
X450410Y-113198D01*
X450415Y-113153D01*
X450400Y-113076D01*
X450394Y-112997D01*
X450376Y-112956D01*
X450368Y-112912D01*
X450358Y-112894D01*
X450357Y-112893D01*
X450350Y-112880D01*
X450329Y-112843D01*
X450298Y-112771D01*
X450260Y-112724D01*
X450246Y-112698D01*
X450236Y-112690D01*
X450231Y-112682D01*
X450217Y-112670D01*
X450193Y-112640D01*
X447940Y-110387D01*
X446277Y-106373D01*
X446277Y-102027D01*
X447940Y-98013D01*
X451013Y-94940D01*
X455027Y-93277D01*
X459373Y-93277D01*
X463387Y-94940D01*
X466460Y-98013D01*
X468123Y-102027D01*
X468123Y-106373D01*
X466460Y-110387D01*
X463926Y-112921D01*
X463888Y-112973D01*
X463843Y-113019D01*
X463817Y-113073D01*
X463783Y-113121D01*
X463764Y-113182D01*
X463735Y-113240D01*
X463728Y-113299D01*
X463710Y-113356D01*
X463712Y-113420D01*
X463704Y-113484D01*
X463715Y-113542D01*
X463717Y-113602D01*
X463739Y-113662D01*
X463751Y-113726D01*
X463781Y-113777D01*
X463801Y-113833D01*
X463841Y-113883D01*
X463873Y-113939D01*
X463918Y-113978D01*
X463955Y-114025D01*
X464009Y-114060D01*
X464057Y-114102D01*
X464112Y-114126D01*
X464162Y-114158D01*
X464224Y-114173D01*
X464284Y-114199D01*
X464368Y-114210D01*
X464400Y-114218D01*
X464419Y-114216D01*
X464450Y-114220D01*
X475531Y-114431D01*
X475610Y-114419D01*
X475688Y-114417D01*
X475730Y-114402D01*
X475775Y-114395D01*
X475845Y-114360D01*
X475919Y-114333D01*
X475954Y-114305D01*
X475994Y-114285D01*
X476050Y-114228D01*
X476111Y-114179D01*
X476136Y-114141D01*
X476167Y-114109D01*
X476202Y-114039D01*
X476244Y-113972D01*
X476255Y-113929D01*
X476275Y-113888D01*
X476285Y-113810D01*
X476304Y-113734D01*
X476301Y-113689D01*
X476307Y-113644D01*
X476291Y-113567D01*
X476285Y-113488D01*
X476268Y-113447D01*
X476259Y-113403D01*
X476220Y-113335D01*
X476189Y-113262D01*
X476152Y-113216D01*
X476137Y-113190D01*
X476116Y-113171D01*
X476084Y-113131D01*
X473340Y-110387D01*
X471677Y-106373D01*
X471677Y-102027D01*
X473340Y-98013D01*
X476413Y-94940D01*
X480427Y-93277D01*
X484773Y-93277D01*
X488787Y-94940D01*
X491860Y-98013D01*
X493523Y-102027D01*
X493523Y-106373D01*
X491860Y-110387D01*
X488853Y-113394D01*
X488816Y-113446D01*
X488770Y-113492D01*
X488744Y-113545D01*
X488710Y-113594D01*
X488691Y-113655D01*
X488662Y-113713D01*
X488655Y-113772D01*
X488637Y-113829D01*
X488639Y-113893D01*
X488631Y-113957D01*
X488642Y-114015D01*
X488644Y-114075D01*
X488666Y-114135D01*
X488678Y-114199D01*
X488708Y-114250D01*
X488728Y-114306D01*
X488768Y-114356D01*
X488800Y-114412D01*
X488845Y-114451D01*
X488882Y-114498D01*
X488936Y-114533D01*
X488984Y-114575D01*
X489039Y-114599D01*
X489089Y-114631D01*
X489151Y-114646D01*
X489211Y-114672D01*
X489295Y-114683D01*
X489327Y-114691D01*
X489346Y-114689D01*
X489377Y-114693D01*
X501505Y-114923D01*
X501609Y-114908D01*
X501713Y-114899D01*
X501730Y-114891D01*
X501748Y-114888D01*
X501842Y-114841D01*
X501937Y-114799D01*
X501951Y-114786D01*
X501968Y-114777D01*
X502041Y-114703D01*
X502118Y-114632D01*
X502127Y-114616D01*
X502141Y-114602D01*
X502186Y-114509D01*
X502237Y-114417D01*
X502240Y-114398D01*
X502249Y-114381D01*
X502262Y-114278D01*
X502281Y-114175D01*
X502278Y-114156D01*
X502280Y-114137D01*
X502260Y-114035D01*
X502245Y-113931D01*
X502236Y-113914D01*
X502233Y-113896D01*
X502181Y-113805D01*
X502133Y-113712D01*
X502120Y-113699D01*
X502110Y-113682D01*
X502032Y-113613D01*
X501958Y-113540D01*
X501937Y-113529D01*
X501927Y-113519D01*
X501897Y-113507D01*
X501813Y-113460D01*
X498740Y-110387D01*
X497077Y-106373D01*
X497077Y-102027D01*
X498748Y-97993D01*
X498786Y-97934D01*
X498846Y-97850D01*
X498852Y-97831D01*
X498863Y-97815D01*
X498888Y-97714D01*
X498919Y-97615D01*
X498918Y-97595D01*
X498923Y-97576D01*
X498915Y-97473D01*
X498912Y-97369D01*
X498905Y-97351D01*
X498904Y-97331D01*
X498864Y-97236D01*
X498828Y-97138D01*
X498815Y-97123D01*
X498808Y-97105D01*
X498703Y-96974D01*
X418435Y-16706D01*
X418361Y-16653D01*
X418292Y-16593D01*
X418261Y-16581D01*
X418235Y-16562D01*
X418148Y-16535D01*
X418063Y-16501D01*
X418022Y-16497D01*
X418000Y-16490D01*
X417968Y-16491D01*
X417897Y-16483D01*
X415302Y-16483D01*
X412978Y-15520D01*
X411200Y-13742D01*
X410237Y-11418D01*
X410237Y-8902D01*
X411200Y-6578D01*
X412978Y-4800D01*
X415302Y-3837D01*
X417818Y-3837D01*
X420142Y-4800D01*
X421920Y-6578D01*
X422883Y-8902D01*
X422883Y-11497D01*
X422897Y-11587D01*
X422905Y-11678D01*
X422917Y-11707D01*
X422922Y-11739D01*
X422965Y-11820D01*
X423001Y-11904D01*
X423027Y-11936D01*
X423038Y-11957D01*
X423061Y-11979D01*
X423106Y-12035D01*
X504422Y-93351D01*
X504516Y-93419D01*
X504610Y-93489D01*
X504616Y-93491D01*
X504621Y-93494D01*
X504733Y-93529D01*
X504844Y-93565D01*
X504850Y-93565D01*
X504856Y-93567D01*
X504973Y-93564D01*
X505090Y-93563D01*
X505097Y-93561D01*
X505102Y-93560D01*
X505120Y-93554D01*
X505251Y-93516D01*
X505827Y-93277D01*
X510173Y-93277D01*
X514187Y-94940D01*
X517260Y-98013D01*
X518923Y-102027D01*
X518923Y-106373D01*
X517260Y-110387D01*
X514187Y-113460D01*
X513622Y-113694D01*
X513545Y-113742D01*
X513464Y-113782D01*
X513441Y-113806D01*
X513413Y-113824D01*
X513355Y-113893D01*
X513292Y-113958D01*
X513277Y-113987D01*
X513256Y-114013D01*
X513223Y-114098D01*
X513184Y-114179D01*
X513179Y-114212D01*
X513167Y-114243D01*
X513164Y-114333D01*
X513152Y-114422D01*
X513158Y-114455D01*
X513157Y-114489D01*
X513182Y-114575D01*
X513200Y-114664D01*
X513216Y-114693D01*
X513226Y-114725D01*
X513277Y-114799D01*
X513322Y-114877D01*
X513347Y-114899D01*
X513366Y-114927D01*
X513438Y-114981D01*
X513506Y-115041D01*
X513536Y-115054D01*
X513563Y-115074D01*
X513649Y-115102D01*
X513732Y-115137D01*
X513774Y-115142D01*
X513797Y-115150D01*
X513829Y-115150D01*
X513898Y-115159D01*
X528124Y-115429D01*
X528228Y-115414D01*
X528332Y-115404D01*
X528349Y-115396D01*
X528368Y-115393D01*
X528461Y-115346D01*
X528557Y-115304D01*
X528570Y-115291D01*
X528587Y-115282D01*
X528661Y-115208D01*
X528738Y-115137D01*
X528747Y-115121D01*
X528760Y-115107D01*
X528806Y-115014D01*
X528856Y-114922D01*
X528860Y-114903D01*
X528868Y-114886D01*
X528881Y-114783D01*
X528900Y-114680D01*
X528897Y-114661D01*
X528900Y-114642D01*
X528879Y-114540D01*
X528864Y-114436D01*
X528856Y-114420D01*
X528852Y-114401D01*
X528800Y-114310D01*
X528753Y-114217D01*
X528739Y-114204D01*
X528730Y-114188D01*
X528652Y-114118D01*
X528577Y-114045D01*
X528557Y-114034D01*
X528546Y-114024D01*
X528517Y-114012D01*
X528430Y-113964D01*
X527213Y-113460D01*
X524140Y-110387D01*
X522477Y-106373D01*
X522477Y-102027D01*
X524140Y-98013D01*
X527213Y-94940D01*
X531227Y-93277D01*
X531327Y-93216D01*
X531427Y-93156D01*
X531431Y-93151D01*
X531436Y-93148D01*
X531511Y-93058D01*
X531587Y-92969D01*
X531589Y-92963D01*
X531593Y-92958D01*
X531635Y-92850D01*
X531679Y-92741D01*
X531680Y-92733D01*
X531681Y-92729D01*
X531682Y-92710D01*
X531697Y-92574D01*
X531697Y-80954D01*
X531683Y-80864D01*
X531675Y-80773D01*
X531663Y-80744D01*
X531658Y-80712D01*
X531615Y-80631D01*
X531579Y-80547D01*
X531553Y-80515D01*
X531542Y-80494D01*
X531519Y-80472D01*
X531474Y-80416D01*
X529640Y-78582D01*
X528677Y-76258D01*
X528677Y-73742D01*
X529640Y-71418D01*
X531418Y-69640D01*
X533742Y-68677D01*
X536258Y-68677D01*
X538582Y-69640D01*
X540360Y-71418D01*
X541323Y-73742D01*
X541323Y-76258D01*
X540360Y-78582D01*
X538526Y-80416D01*
X538473Y-80490D01*
X538413Y-80559D01*
X538401Y-80590D01*
X538382Y-80616D01*
X538355Y-80703D01*
X538321Y-80788D01*
X538317Y-80829D01*
X538310Y-80851D01*
X538311Y-80883D01*
X538303Y-80954D01*
X538303Y-93899D01*
X538322Y-94014D01*
X538339Y-94130D01*
X538341Y-94136D01*
X538342Y-94142D01*
X538397Y-94245D01*
X538450Y-94350D01*
X538455Y-94354D01*
X538458Y-94360D01*
X538542Y-94439D01*
X538626Y-94522D01*
X538632Y-94526D01*
X538636Y-94529D01*
X538653Y-94537D01*
X538773Y-94603D01*
X539587Y-94940D01*
X542660Y-98013D01*
X544323Y-102027D01*
X544323Y-106373D01*
X542660Y-110387D01*
X539587Y-113460D01*
X537909Y-114155D01*
X537832Y-114203D01*
X537752Y-114243D01*
X537728Y-114267D01*
X537700Y-114285D01*
X537642Y-114354D01*
X537579Y-114418D01*
X537564Y-114448D01*
X537543Y-114474D01*
X537511Y-114558D01*
X537471Y-114639D01*
X537467Y-114673D01*
X537455Y-114704D01*
X537451Y-114794D01*
X537439Y-114883D01*
X537446Y-114916D01*
X537445Y-114949D01*
X537470Y-115036D01*
X537487Y-115125D01*
X537504Y-115154D01*
X537513Y-115186D01*
X537564Y-115260D01*
X537609Y-115338D01*
X537634Y-115360D01*
X537653Y-115388D01*
X537726Y-115442D01*
X537793Y-115502D01*
X537824Y-115515D01*
X537851Y-115535D01*
X537937Y-115563D01*
X538020Y-115598D01*
X538062Y-115603D01*
X538085Y-115611D01*
X538117Y-115610D01*
X538186Y-115619D01*
X554744Y-115934D01*
X554847Y-115919D01*
X554951Y-115909D01*
X554968Y-115901D01*
X554987Y-115898D01*
X555081Y-115851D01*
X555176Y-115809D01*
X555190Y-115796D01*
X555207Y-115788D01*
X555280Y-115713D01*
X555357Y-115642D01*
X555366Y-115626D01*
X555379Y-115612D01*
X555425Y-115519D01*
X555476Y-115427D01*
X555479Y-115408D01*
X555487Y-115391D01*
X555501Y-115288D01*
X555519Y-115185D01*
X555517Y-115166D01*
X555519Y-115147D01*
X555499Y-115045D01*
X555484Y-114942D01*
X555475Y-114925D01*
X555471Y-114906D01*
X555420Y-114816D01*
X555372Y-114722D01*
X555359Y-114709D01*
X555349Y-114693D01*
X555271Y-114623D01*
X555196Y-114550D01*
X555176Y-114539D01*
X555165Y-114529D01*
X555136Y-114517D01*
X555050Y-114469D01*
X552613Y-113460D01*
X549540Y-110387D01*
X547877Y-106373D01*
X547877Y-102027D01*
X549540Y-98013D01*
X552613Y-94940D01*
X556627Y-93277D01*
X560973Y-93277D01*
X564987Y-94940D01*
X568060Y-98013D01*
X569723Y-102027D01*
X569723Y-106373D01*
X568060Y-110387D01*
X564987Y-113460D01*
X562196Y-114616D01*
X562120Y-114663D01*
X562039Y-114704D01*
X562016Y-114728D01*
X561987Y-114745D01*
X561930Y-114815D01*
X561866Y-114879D01*
X561852Y-114909D01*
X561831Y-114935D01*
X561798Y-115019D01*
X561759Y-115100D01*
X561754Y-115133D01*
X561742Y-115165D01*
X561739Y-115255D01*
X561727Y-115344D01*
X561733Y-115377D01*
X561732Y-115410D01*
X561757Y-115497D01*
X561775Y-115585D01*
X561791Y-115614D01*
X561800Y-115647D01*
X561852Y-115721D01*
X561897Y-115799D01*
X561922Y-115821D01*
X561941Y-115849D01*
X562013Y-115903D01*
X562081Y-115962D01*
X562111Y-115975D01*
X562138Y-115995D01*
X562224Y-116023D01*
X562307Y-116059D01*
X562349Y-116064D01*
X562372Y-116072D01*
X562404Y-116071D01*
X562473Y-116080D01*
X581363Y-116439D01*
X581467Y-116424D01*
X581571Y-116414D01*
X581588Y-116406D01*
X581607Y-116404D01*
X581700Y-116356D01*
X581795Y-116314D01*
X581809Y-116301D01*
X581826Y-116293D01*
X581899Y-116218D01*
X581976Y-116147D01*
X581986Y-116131D01*
X581999Y-116117D01*
X582045Y-116024D01*
X582095Y-115932D01*
X582098Y-115913D01*
X582107Y-115896D01*
X582120Y-115793D01*
X582139Y-115690D01*
X582136Y-115671D01*
X582138Y-115653D01*
X582118Y-115550D01*
X582103Y-115447D01*
X582094Y-115430D01*
X582091Y-115411D01*
X582039Y-115321D01*
X581991Y-115227D01*
X581978Y-115214D01*
X581969Y-115198D01*
X581891Y-115129D01*
X581816Y-115055D01*
X581795Y-115044D01*
X581785Y-115034D01*
X581756Y-115022D01*
X581669Y-114974D01*
X578013Y-113460D01*
X574940Y-110387D01*
X573277Y-106373D01*
X573277Y-102027D01*
X574940Y-98013D01*
X578013Y-94940D01*
X582027Y-93277D01*
X586373Y-93277D01*
X590387Y-94940D01*
X593460Y-98013D01*
X595123Y-102027D01*
X595123Y-106373D01*
X593460Y-110387D01*
X590387Y-113460D01*
X586484Y-115077D01*
X586407Y-115124D01*
X586327Y-115165D01*
X586303Y-115189D01*
X586275Y-115206D01*
X586217Y-115276D01*
X586154Y-115340D01*
X586139Y-115370D01*
X586118Y-115396D01*
X586086Y-115480D01*
X586046Y-115561D01*
X586042Y-115594D01*
X586030Y-115625D01*
X586026Y-115715D01*
X586014Y-115805D01*
X586021Y-115838D01*
X586019Y-115871D01*
X586045Y-115958D01*
X586062Y-116046D01*
X586079Y-116075D01*
X586088Y-116107D01*
X586139Y-116181D01*
X586184Y-116260D01*
X586209Y-116282D01*
X586228Y-116309D01*
X586301Y-116363D01*
X586368Y-116423D01*
X586399Y-116436D01*
X586426Y-116456D01*
X586511Y-116484D01*
X586594Y-116519D01*
X586637Y-116525D01*
X586659Y-116532D01*
X586691Y-116532D01*
X586761Y-116541D01*
X770334Y-120024D01*
X770339Y-120024D01*
X770346Y-120024D01*
X770348Y-120024D01*
X770368Y-120021D01*
G37*
%LPC*%
G36*
X113752Y-83967D02*
X113752Y-83967D01*
X111698Y-83116D01*
X110019Y-81437D01*
X110018Y-81437D01*
X72893Y-44312D01*
X72820Y-44259D01*
X72750Y-44199D01*
X72720Y-44187D01*
X72694Y-44168D01*
X72607Y-44141D01*
X72522Y-44107D01*
X72481Y-44103D01*
X72459Y-44096D01*
X72426Y-44097D01*
X72355Y-44089D01*
X42788Y-44089D01*
X40734Y-43238D01*
X39055Y-41559D01*
X36356Y-38860D01*
X36282Y-38807D01*
X36213Y-38747D01*
X36182Y-38735D01*
X36156Y-38716D01*
X36069Y-38689D01*
X35984Y-38655D01*
X35944Y-38651D01*
X35921Y-38644D01*
X35889Y-38645D01*
X35818Y-38637D01*
X33682Y-38637D01*
X30508Y-37322D01*
X28078Y-34892D01*
X26763Y-31718D01*
X26763Y-28282D01*
X28078Y-25108D01*
X30508Y-22678D01*
X33682Y-21363D01*
X37118Y-21363D01*
X40292Y-22678D01*
X42722Y-25108D01*
X44037Y-28282D01*
X44037Y-30418D01*
X44051Y-30508D01*
X44059Y-30599D01*
X44071Y-30629D01*
X44076Y-30661D01*
X44119Y-30741D01*
X44155Y-30825D01*
X44181Y-30857D01*
X44192Y-30878D01*
X44215Y-30900D01*
X44260Y-30956D01*
X45992Y-32688D01*
X46066Y-32741D01*
X46135Y-32801D01*
X46166Y-32813D01*
X46192Y-32832D01*
X46279Y-32859D01*
X46364Y-32893D01*
X46404Y-32897D01*
X46427Y-32904D01*
X46459Y-32903D01*
X46530Y-32911D01*
X71868Y-32911D01*
X71939Y-32900D01*
X72011Y-32898D01*
X72060Y-32880D01*
X72111Y-32872D01*
X72175Y-32838D01*
X72242Y-32813D01*
X72283Y-32781D01*
X72329Y-32756D01*
X72378Y-32704D01*
X72434Y-32660D01*
X72462Y-32616D01*
X72498Y-32578D01*
X72528Y-32513D01*
X72567Y-32453D01*
X72580Y-32402D01*
X72602Y-32355D01*
X72609Y-32284D01*
X72627Y-32214D01*
X72623Y-32162D01*
X72629Y-32111D01*
X72613Y-32040D01*
X72608Y-31969D01*
X72587Y-31921D01*
X72576Y-31870D01*
X72540Y-31809D01*
X72512Y-31743D01*
X72467Y-31687D01*
X72450Y-31659D01*
X72432Y-31644D01*
X72407Y-31612D01*
X56607Y-15812D01*
X56533Y-15759D01*
X56463Y-15699D01*
X56433Y-15687D01*
X56407Y-15668D01*
X56320Y-15641D01*
X56235Y-15607D01*
X56194Y-15603D01*
X56172Y-15596D01*
X56140Y-15597D01*
X56068Y-15589D01*
X42341Y-15589D01*
X42251Y-15603D01*
X42160Y-15611D01*
X42130Y-15623D01*
X42098Y-15628D01*
X42017Y-15671D01*
X41933Y-15707D01*
X41901Y-15733D01*
X41881Y-15744D01*
X41858Y-15767D01*
X41803Y-15812D01*
X40292Y-17322D01*
X37118Y-18637D01*
X33682Y-18637D01*
X30508Y-17322D01*
X28078Y-14892D01*
X26763Y-11718D01*
X26763Y-8282D01*
X28078Y-5108D01*
X30508Y-2678D01*
X33682Y-1363D01*
X37118Y-1363D01*
X40292Y-2678D01*
X41803Y-4188D01*
X41876Y-4241D01*
X41946Y-4301D01*
X41976Y-4313D01*
X42002Y-4332D01*
X42089Y-4359D01*
X42174Y-4393D01*
X42215Y-4397D01*
X42237Y-4404D01*
X42270Y-4403D01*
X42341Y-4411D01*
X57836Y-4411D01*
X57856Y-4408D01*
X57875Y-4410D01*
X57977Y-4388D01*
X58079Y-4372D01*
X58096Y-4362D01*
X58116Y-4358D01*
X58205Y-4305D01*
X58296Y-4256D01*
X58310Y-4242D01*
X58327Y-4232D01*
X58394Y-4153D01*
X58466Y-4078D01*
X58474Y-4060D01*
X58487Y-4045D01*
X58526Y-3949D01*
X58569Y-3855D01*
X58571Y-3835D01*
X58579Y-3817D01*
X58597Y-3650D01*
X58597Y-1816D01*
X58583Y-1726D01*
X58575Y-1635D01*
X58563Y-1605D01*
X58558Y-1574D01*
X58515Y-1493D01*
X58479Y-1409D01*
X58453Y-1377D01*
X58442Y-1356D01*
X58419Y-1334D01*
X58374Y-1278D01*
X52908Y4188D01*
X52834Y4241D01*
X52765Y4301D01*
X52734Y4313D01*
X52708Y4332D01*
X52621Y4359D01*
X52536Y4393D01*
X52496Y4397D01*
X52473Y4404D01*
X52441Y4403D01*
X52370Y4411D01*
X42341Y4411D01*
X42251Y4397D01*
X42160Y4389D01*
X42130Y4377D01*
X42098Y4372D01*
X42017Y4329D01*
X41933Y4293D01*
X41901Y4267D01*
X41881Y4256D01*
X41858Y4233D01*
X41803Y4188D01*
X40292Y2678D01*
X37118Y1363D01*
X33682Y1363D01*
X30508Y2678D01*
X28078Y5108D01*
X26763Y8282D01*
X26763Y11718D01*
X28078Y14892D01*
X30508Y17322D01*
X33682Y18637D01*
X37118Y18637D01*
X40292Y17322D01*
X41803Y15812D01*
X41876Y15759D01*
X41946Y15699D01*
X41976Y15687D01*
X42002Y15668D01*
X42089Y15641D01*
X42174Y15607D01*
X42215Y15603D01*
X42237Y15596D01*
X42270Y15597D01*
X42341Y15589D01*
X56112Y15589D01*
X58166Y14738D01*
X59845Y13059D01*
X65934Y6970D01*
X65992Y6928D01*
X66044Y6879D01*
X66091Y6857D01*
X66133Y6826D01*
X66202Y6805D01*
X66267Y6775D01*
X66319Y6769D01*
X66369Y6754D01*
X66440Y6756D01*
X66511Y6748D01*
X66562Y6759D01*
X66614Y6760D01*
X66682Y6785D01*
X66752Y6800D01*
X66797Y6827D01*
X66845Y6845D01*
X66901Y6890D01*
X66963Y6926D01*
X66997Y6966D01*
X67037Y6999D01*
X67076Y7059D01*
X67123Y7113D01*
X67142Y7162D01*
X67170Y7205D01*
X67188Y7275D01*
X67215Y7341D01*
X67223Y7413D01*
X67231Y7444D01*
X67229Y7467D01*
X67233Y7508D01*
X67233Y14548D01*
X67219Y14638D01*
X67211Y14729D01*
X67199Y14759D01*
X67194Y14790D01*
X67151Y14871D01*
X67115Y14955D01*
X67089Y14987D01*
X67078Y15008D01*
X67055Y15030D01*
X67010Y15086D01*
X57908Y24188D01*
X57834Y24241D01*
X57765Y24301D01*
X57734Y24313D01*
X57708Y24332D01*
X57621Y24359D01*
X57536Y24393D01*
X57496Y24397D01*
X57473Y24404D01*
X57441Y24403D01*
X57370Y24411D01*
X44798Y24411D01*
X44778Y24408D01*
X44759Y24410D01*
X44657Y24388D01*
X44555Y24372D01*
X44538Y24362D01*
X44518Y24358D01*
X44429Y24305D01*
X44338Y24256D01*
X44324Y24242D01*
X44307Y24232D01*
X44240Y24153D01*
X44168Y24078D01*
X44160Y24060D01*
X44147Y24045D01*
X44108Y23949D01*
X44065Y23855D01*
X44063Y23835D01*
X44055Y23817D01*
X44037Y23650D01*
X44037Y22852D01*
X42548Y21363D01*
X28252Y21363D01*
X26763Y22852D01*
X26763Y37148D01*
X28252Y38637D01*
X42548Y38637D01*
X44037Y37148D01*
X44037Y36350D01*
X44040Y36330D01*
X44038Y36311D01*
X44060Y36209D01*
X44076Y36107D01*
X44086Y36090D01*
X44090Y36070D01*
X44143Y35981D01*
X44192Y35890D01*
X44206Y35876D01*
X44216Y35859D01*
X44295Y35792D01*
X44370Y35720D01*
X44388Y35712D01*
X44403Y35699D01*
X44499Y35660D01*
X44593Y35617D01*
X44613Y35615D01*
X44631Y35607D01*
X44798Y35589D01*
X61112Y35589D01*
X63166Y34738D01*
X77560Y20344D01*
X78411Y18290D01*
X78411Y15414D01*
X78422Y15343D01*
X78424Y15272D01*
X78442Y15223D01*
X78450Y15171D01*
X78484Y15108D01*
X78509Y15041D01*
X78541Y15000D01*
X78566Y14954D01*
X78618Y14905D01*
X78662Y14849D01*
X78706Y14820D01*
X78744Y14785D01*
X78809Y14754D01*
X78869Y14716D01*
X78920Y14703D01*
X78967Y14681D01*
X79038Y14673D01*
X79108Y14655D01*
X79160Y14660D01*
X79211Y14654D01*
X79282Y14669D01*
X79353Y14675D01*
X79401Y14695D01*
X79452Y14706D01*
X79513Y14743D01*
X79579Y14771D01*
X79635Y14816D01*
X79663Y14832D01*
X79678Y14850D01*
X79710Y14876D01*
X80825Y15990D01*
X85026Y17731D01*
X89574Y17731D01*
X93775Y15990D01*
X96990Y12775D01*
X98731Y8574D01*
X98731Y4026D01*
X96990Y-175D01*
X93775Y-3390D01*
X89574Y-5131D01*
X87997Y-5131D01*
X87926Y-5142D01*
X87855Y-5144D01*
X87806Y-5162D01*
X87754Y-5170D01*
X87691Y-5204D01*
X87624Y-5229D01*
X87583Y-5261D01*
X87537Y-5286D01*
X87488Y-5338D01*
X87432Y-5382D01*
X87404Y-5426D01*
X87368Y-5464D01*
X87338Y-5529D01*
X87299Y-5589D01*
X87286Y-5640D01*
X87264Y-5687D01*
X87256Y-5758D01*
X87239Y-5828D01*
X87243Y-5880D01*
X87237Y-5931D01*
X87252Y-6002D01*
X87258Y-6073D01*
X87278Y-6121D01*
X87289Y-6172D01*
X87326Y-6233D01*
X87354Y-6299D01*
X87399Y-6355D01*
X87415Y-6383D01*
X87433Y-6398D01*
X87459Y-6430D01*
X127687Y-46658D01*
X127761Y-46711D01*
X127830Y-46771D01*
X127861Y-46783D01*
X127887Y-46802D01*
X127974Y-46829D01*
X128059Y-46863D01*
X128099Y-46867D01*
X128122Y-46874D01*
X128154Y-46873D01*
X128225Y-46881D01*
X130196Y-46881D01*
X130267Y-46870D01*
X130339Y-46868D01*
X130388Y-46850D01*
X130439Y-46842D01*
X130502Y-46808D01*
X130570Y-46783D01*
X130610Y-46751D01*
X130657Y-46726D01*
X130706Y-46674D01*
X130762Y-46630D01*
X130790Y-46586D01*
X130826Y-46548D01*
X130856Y-46483D01*
X130895Y-46423D01*
X130908Y-46372D01*
X130930Y-46325D01*
X130937Y-46254D01*
X130955Y-46184D01*
X130951Y-46132D01*
X130957Y-46081D01*
X130941Y-46010D01*
X130936Y-45939D01*
X130915Y-45891D01*
X130904Y-45840D01*
X130868Y-45779D01*
X130839Y-45713D01*
X130795Y-45657D01*
X130778Y-45629D01*
X130760Y-45614D01*
X130735Y-45582D01*
X129840Y-44687D01*
X128177Y-40673D01*
X128177Y-36327D01*
X129840Y-32313D01*
X132913Y-29240D01*
X136927Y-27577D01*
X141273Y-27577D01*
X145287Y-29240D01*
X148360Y-32313D01*
X150023Y-36327D01*
X150023Y-40673D01*
X148360Y-44687D01*
X147465Y-45582D01*
X147423Y-45640D01*
X147374Y-45692D01*
X147352Y-45739D01*
X147322Y-45781D01*
X147301Y-45850D01*
X147270Y-45915D01*
X147265Y-45967D01*
X147249Y-46017D01*
X147251Y-46088D01*
X147243Y-46159D01*
X147254Y-46210D01*
X147256Y-46262D01*
X147280Y-46330D01*
X147296Y-46400D01*
X147322Y-46445D01*
X147340Y-46493D01*
X147385Y-46549D01*
X147422Y-46611D01*
X147461Y-46645D01*
X147494Y-46685D01*
X147554Y-46724D01*
X147609Y-46771D01*
X147657Y-46790D01*
X147701Y-46818D01*
X147770Y-46836D01*
X147837Y-46863D01*
X147908Y-46871D01*
X147939Y-46879D01*
X147963Y-46877D01*
X148004Y-46881D01*
X155596Y-46881D01*
X155668Y-46870D01*
X155740Y-46868D01*
X155788Y-46850D01*
X155839Y-46842D01*
X155903Y-46808D01*
X155971Y-46783D01*
X156011Y-46750D01*
X156057Y-46726D01*
X156106Y-46674D01*
X156163Y-46629D01*
X156190Y-46585D01*
X156226Y-46548D01*
X156256Y-46482D01*
X156295Y-46421D01*
X156308Y-46372D01*
X156330Y-46325D01*
X156337Y-46253D01*
X156355Y-46183D01*
X156351Y-46132D01*
X156357Y-46081D01*
X156341Y-46010D01*
X156335Y-45938D01*
X156315Y-45890D01*
X156304Y-45840D01*
X156287Y-45812D01*
X156287Y-45810D01*
X156263Y-45767D01*
X156239Y-45711D01*
X156211Y-45677D01*
X156204Y-45664D01*
X155158Y-44225D01*
X154378Y-42693D01*
X153846Y-41058D01*
X153682Y-40023D01*
X163738Y-40023D01*
X163758Y-40020D01*
X163777Y-40022D01*
X163879Y-40000D01*
X163981Y-39983D01*
X163998Y-39974D01*
X164018Y-39970D01*
X164107Y-39917D01*
X164198Y-39868D01*
X164212Y-39854D01*
X164229Y-39844D01*
X164296Y-39765D01*
X164367Y-39690D01*
X164376Y-39672D01*
X164389Y-39657D01*
X164427Y-39561D01*
X164471Y-39467D01*
X164473Y-39447D01*
X164481Y-39429D01*
X164499Y-39262D01*
X164499Y-38499D01*
X165262Y-38499D01*
X165282Y-38496D01*
X165301Y-38498D01*
X165403Y-38476D01*
X165505Y-38459D01*
X165522Y-38450D01*
X165542Y-38446D01*
X165631Y-38393D01*
X165722Y-38344D01*
X165736Y-38330D01*
X165753Y-38320D01*
X165820Y-38241D01*
X165891Y-38166D01*
X165900Y-38148D01*
X165913Y-38133D01*
X165952Y-38037D01*
X165995Y-37943D01*
X165997Y-37923D01*
X166005Y-37905D01*
X166023Y-37738D01*
X166023Y-27682D01*
X167058Y-27846D01*
X168693Y-28378D01*
X170225Y-29158D01*
X171616Y-30169D01*
X172831Y-31384D01*
X173842Y-32775D01*
X174622Y-34307D01*
X175154Y-35942D01*
X175432Y-37700D01*
X175436Y-37710D01*
X175436Y-37735D01*
X175454Y-37784D01*
X175462Y-37835D01*
X175496Y-37899D01*
X175521Y-37966D01*
X175553Y-38007D01*
X175578Y-38053D01*
X175630Y-38102D01*
X175674Y-38158D01*
X175718Y-38186D01*
X175756Y-38222D01*
X175821Y-38252D01*
X175881Y-38291D01*
X175932Y-38304D01*
X175979Y-38326D01*
X176050Y-38333D01*
X176120Y-38351D01*
X176172Y-38347D01*
X176223Y-38353D01*
X176294Y-38337D01*
X176365Y-38332D01*
X176413Y-38311D01*
X176464Y-38300D01*
X176525Y-38264D01*
X176591Y-38236D01*
X176647Y-38191D01*
X176675Y-38174D01*
X176690Y-38156D01*
X176722Y-38131D01*
X179190Y-35663D01*
X179228Y-35610D01*
X179274Y-35563D01*
X179314Y-35490D01*
X179333Y-35464D01*
X179339Y-35445D01*
X179355Y-35416D01*
X180640Y-32313D01*
X183713Y-29240D01*
X187727Y-27577D01*
X192073Y-27577D01*
X196087Y-29240D01*
X199160Y-32313D01*
X200823Y-36327D01*
X200823Y-37592D01*
X200834Y-37663D01*
X200836Y-37735D01*
X200854Y-37784D01*
X200862Y-37835D01*
X200896Y-37899D01*
X200921Y-37966D01*
X200953Y-38007D01*
X200978Y-38053D01*
X201030Y-38102D01*
X201074Y-38158D01*
X201118Y-38186D01*
X201156Y-38222D01*
X201221Y-38252D01*
X201281Y-38291D01*
X201332Y-38304D01*
X201379Y-38326D01*
X201450Y-38333D01*
X201520Y-38351D01*
X201572Y-38347D01*
X201623Y-38353D01*
X201694Y-38337D01*
X201765Y-38332D01*
X201813Y-38311D01*
X201864Y-38300D01*
X201925Y-38264D01*
X201991Y-38236D01*
X202047Y-38191D01*
X202075Y-38174D01*
X202090Y-38156D01*
X202122Y-38131D01*
X204590Y-35663D01*
X204628Y-35610D01*
X204674Y-35563D01*
X204714Y-35490D01*
X204733Y-35464D01*
X204739Y-35445D01*
X204755Y-35416D01*
X206040Y-32313D01*
X209113Y-29240D01*
X213127Y-27577D01*
X217473Y-27577D01*
X221487Y-29240D01*
X224560Y-32313D01*
X226223Y-36327D01*
X226223Y-37592D01*
X226234Y-37663D01*
X226236Y-37735D01*
X226254Y-37784D01*
X226262Y-37835D01*
X226296Y-37898D01*
X226321Y-37966D01*
X226353Y-38007D01*
X226378Y-38053D01*
X226429Y-38102D01*
X226474Y-38158D01*
X226518Y-38186D01*
X226556Y-38222D01*
X226621Y-38252D01*
X226681Y-38291D01*
X226732Y-38304D01*
X226779Y-38326D01*
X226850Y-38333D01*
X226920Y-38351D01*
X226972Y-38347D01*
X227023Y-38353D01*
X227094Y-38337D01*
X227165Y-38332D01*
X227213Y-38311D01*
X227264Y-38300D01*
X227325Y-38264D01*
X227391Y-38236D01*
X227447Y-38191D01*
X227475Y-38174D01*
X227490Y-38156D01*
X227522Y-38131D01*
X229990Y-35663D01*
X230028Y-35610D01*
X230074Y-35563D01*
X230114Y-35490D01*
X230133Y-35464D01*
X230139Y-35445D01*
X230155Y-35416D01*
X231440Y-32313D01*
X234513Y-29240D01*
X238527Y-27577D01*
X242873Y-27577D01*
X246887Y-29240D01*
X249960Y-32313D01*
X251623Y-36327D01*
X251623Y-37592D01*
X251634Y-37663D01*
X251636Y-37735D01*
X251654Y-37784D01*
X251662Y-37835D01*
X251696Y-37899D01*
X251721Y-37966D01*
X251753Y-38007D01*
X251778Y-38053D01*
X251830Y-38102D01*
X251874Y-38158D01*
X251918Y-38186D01*
X251956Y-38222D01*
X252021Y-38252D01*
X252081Y-38291D01*
X252132Y-38304D01*
X252179Y-38326D01*
X252250Y-38333D01*
X252320Y-38351D01*
X252372Y-38347D01*
X252423Y-38353D01*
X252494Y-38337D01*
X252565Y-38332D01*
X252613Y-38311D01*
X252664Y-38300D01*
X252725Y-38264D01*
X252791Y-38236D01*
X252847Y-38191D01*
X252875Y-38174D01*
X252890Y-38156D01*
X252922Y-38131D01*
X255390Y-35663D01*
X255428Y-35610D01*
X255474Y-35563D01*
X255514Y-35490D01*
X255533Y-35464D01*
X255539Y-35445D01*
X255555Y-35416D01*
X256840Y-32313D01*
X259913Y-29240D01*
X263927Y-27577D01*
X268273Y-27577D01*
X272287Y-29240D01*
X275360Y-32313D01*
X277023Y-36327D01*
X277023Y-40673D01*
X275360Y-44687D01*
X272287Y-47760D01*
X268273Y-49423D01*
X263927Y-49423D01*
X259808Y-47717D01*
X259695Y-47690D01*
X259581Y-47661D01*
X259575Y-47662D01*
X259569Y-47660D01*
X259452Y-47671D01*
X259336Y-47680D01*
X259330Y-47683D01*
X259324Y-47683D01*
X259216Y-47731D01*
X259110Y-47777D01*
X259104Y-47781D01*
X259099Y-47783D01*
X259085Y-47796D01*
X258979Y-47882D01*
X225424Y-81437D01*
X223744Y-83116D01*
X221690Y-83967D01*
X113752Y-83967D01*
G37*
%LPD*%
%LPC*%
G36*
X508742Y-21323D02*
X508742Y-21323D01*
X506418Y-20360D01*
X504640Y-18582D01*
X503677Y-16258D01*
X503677Y-13663D01*
X503663Y-13573D01*
X503655Y-13482D01*
X503643Y-13453D01*
X503638Y-13421D01*
X503595Y-13340D01*
X503559Y-13256D01*
X503533Y-13224D01*
X503522Y-13203D01*
X503499Y-13181D01*
X503454Y-13125D01*
X490981Y-652D01*
X490981Y39296D01*
X490970Y39367D01*
X490968Y39439D01*
X490950Y39488D01*
X490942Y39539D01*
X490908Y39602D01*
X490883Y39670D01*
X490851Y39710D01*
X490826Y39757D01*
X490774Y39806D01*
X490730Y39862D01*
X490686Y39890D01*
X490648Y39926D01*
X490583Y39956D01*
X490523Y39995D01*
X490472Y40008D01*
X490425Y40030D01*
X490354Y40037D01*
X490284Y40055D01*
X490232Y40051D01*
X490181Y40057D01*
X490110Y40041D01*
X490039Y40036D01*
X489991Y40015D01*
X489940Y40004D01*
X489879Y39968D01*
X489813Y39939D01*
X489757Y39895D01*
X489729Y39878D01*
X489714Y39860D01*
X489682Y39835D01*
X488787Y38940D01*
X484773Y37277D01*
X481175Y37277D01*
X481085Y37263D01*
X480994Y37255D01*
X480965Y37243D01*
X480933Y37238D01*
X480852Y37195D01*
X480768Y37159D01*
X480736Y37133D01*
X480715Y37122D01*
X480693Y37099D01*
X480637Y37054D01*
X470760Y27177D01*
X423320Y27177D01*
X399159Y51338D01*
X399085Y51391D01*
X399016Y51451D01*
X398985Y51463D01*
X398959Y51482D01*
X398872Y51509D01*
X398787Y51543D01*
X398746Y51547D01*
X398724Y51554D01*
X398692Y51553D01*
X398621Y51561D01*
X373539Y51561D01*
X373449Y51547D01*
X373358Y51539D01*
X373329Y51527D01*
X373297Y51522D01*
X373216Y51479D01*
X373132Y51443D01*
X373100Y51417D01*
X373079Y51406D01*
X373057Y51383D01*
X373001Y51338D01*
X371192Y49529D01*
X246536Y49529D01*
X218550Y77515D01*
X218457Y77582D01*
X218362Y77653D01*
X218356Y77655D01*
X218351Y77659D01*
X218240Y77693D01*
X218128Y77729D01*
X218121Y77729D01*
X218115Y77731D01*
X217999Y77728D01*
X217882Y77727D01*
X217875Y77725D01*
X217870Y77725D01*
X217852Y77718D01*
X217721Y77680D01*
X217473Y77577D01*
X213127Y77577D01*
X209113Y79240D01*
X206040Y82313D01*
X204377Y86327D01*
X204377Y90673D01*
X206040Y94687D01*
X209113Y97760D01*
X213127Y99423D01*
X217473Y99423D01*
X221487Y97760D01*
X224560Y94687D01*
X226223Y90673D01*
X226223Y86327D01*
X224560Y82313D01*
X224365Y82118D01*
X224354Y82102D01*
X224338Y82090D01*
X224282Y82002D01*
X224222Y81918D01*
X224216Y81899D01*
X224205Y81883D01*
X224180Y81782D01*
X224149Y81683D01*
X224150Y81663D01*
X224145Y81644D01*
X224153Y81541D01*
X224156Y81437D01*
X224163Y81419D01*
X224164Y81399D01*
X224205Y81304D01*
X224240Y81206D01*
X224253Y81191D01*
X224260Y81173D01*
X224365Y81042D01*
X249049Y56358D01*
X249123Y56305D01*
X249192Y56245D01*
X249223Y56233D01*
X249249Y56214D01*
X249336Y56187D01*
X249421Y56153D01*
X249462Y56149D01*
X249484Y56142D01*
X249516Y56143D01*
X249587Y56135D01*
X368141Y56135D01*
X368231Y56149D01*
X368322Y56157D01*
X368351Y56169D01*
X368383Y56174D01*
X368464Y56217D01*
X368548Y56253D01*
X368580Y56279D01*
X368601Y56290D01*
X368623Y56313D01*
X368679Y56358D01*
X370631Y58310D01*
X370673Y58368D01*
X370722Y58420D01*
X370744Y58467D01*
X370775Y58509D01*
X370796Y58578D01*
X370826Y58643D01*
X370832Y58695D01*
X370847Y58745D01*
X370845Y58816D01*
X370853Y58887D01*
X370842Y58938D01*
X370841Y58990D01*
X370816Y59058D01*
X370801Y59128D01*
X370774Y59173D01*
X370756Y59221D01*
X370711Y59277D01*
X370674Y59339D01*
X370635Y59373D01*
X370602Y59413D01*
X370542Y59452D01*
X370488Y59499D01*
X370439Y59518D01*
X370395Y59546D01*
X370326Y59564D01*
X370259Y59591D01*
X370188Y59599D01*
X370157Y59607D01*
X370134Y59605D01*
X370093Y59609D01*
X366657Y59609D01*
X360199Y61340D01*
X354410Y64682D01*
X349682Y69410D01*
X346340Y75199D01*
X344609Y81657D01*
X344609Y88343D01*
X346340Y94801D01*
X349682Y100590D01*
X354410Y105318D01*
X360199Y108660D01*
X366657Y110391D01*
X373343Y110391D01*
X379801Y108660D01*
X385590Y105318D01*
X390318Y100590D01*
X393660Y94801D01*
X395391Y88343D01*
X395391Y81657D01*
X393660Y75199D01*
X390318Y69410D01*
X385590Y64682D01*
X379801Y61340D01*
X373544Y59663D01*
X373522Y59653D01*
X373499Y59649D01*
X373411Y59603D01*
X373320Y59562D01*
X373302Y59546D01*
X373281Y59534D01*
X373213Y59462D01*
X373140Y59395D01*
X373128Y59374D01*
X373112Y59356D01*
X373070Y59266D01*
X373022Y59179D01*
X373018Y59155D01*
X373008Y59133D01*
X372997Y59034D01*
X372980Y58936D01*
X372984Y58912D01*
X372981Y58889D01*
X373002Y58791D01*
X373017Y58693D01*
X373028Y58672D01*
X373033Y58648D01*
X373084Y58563D01*
X373130Y58474D01*
X373147Y58458D01*
X373160Y58437D01*
X373235Y58372D01*
X373306Y58303D01*
X373328Y58293D01*
X373346Y58277D01*
X373439Y58240D01*
X373528Y58197D01*
X373552Y58194D01*
X373575Y58185D01*
X373741Y58167D01*
X401672Y58167D01*
X425833Y34006D01*
X425907Y33953D01*
X425976Y33893D01*
X426007Y33881D01*
X426033Y33862D01*
X426120Y33835D01*
X426205Y33801D01*
X426246Y33797D01*
X426268Y33790D01*
X426300Y33791D01*
X426371Y33783D01*
X467709Y33783D01*
X467799Y33797D01*
X467890Y33805D01*
X467919Y33817D01*
X467951Y33822D01*
X468032Y33865D01*
X468116Y33901D01*
X468148Y33927D01*
X468169Y33938D01*
X468191Y33961D01*
X468247Y34006D01*
X474259Y40018D01*
X474270Y40034D01*
X474286Y40046D01*
X474342Y40133D01*
X474402Y40217D01*
X474408Y40236D01*
X474419Y40253D01*
X474444Y40354D01*
X474475Y40452D01*
X474474Y40472D01*
X474479Y40492D01*
X474471Y40595D01*
X474468Y40698D01*
X474461Y40717D01*
X474460Y40737D01*
X474420Y40832D01*
X474384Y40929D01*
X474371Y40945D01*
X474364Y40963D01*
X474259Y41094D01*
X473340Y42013D01*
X471677Y46027D01*
X471677Y50373D01*
X473340Y54387D01*
X476413Y57460D01*
X480427Y59123D01*
X482916Y59123D01*
X482936Y59126D01*
X482955Y59124D01*
X483057Y59146D01*
X483159Y59162D01*
X483176Y59172D01*
X483196Y59176D01*
X483285Y59229D01*
X483376Y59278D01*
X483390Y59292D01*
X483407Y59302D01*
X483474Y59381D01*
X483546Y59456D01*
X483554Y59474D01*
X483567Y59489D01*
X483606Y59585D01*
X483649Y59679D01*
X483651Y59699D01*
X483659Y59717D01*
X483677Y59884D01*
X483677Y62218D01*
X484640Y64542D01*
X486418Y66320D01*
X488742Y67283D01*
X491258Y67283D01*
X493582Y66320D01*
X495360Y64542D01*
X496323Y62218D01*
X496323Y59702D01*
X495337Y57322D01*
X495310Y57209D01*
X495282Y57095D01*
X495282Y57089D01*
X495281Y57083D01*
X495292Y56966D01*
X495301Y56850D01*
X495303Y56844D01*
X495304Y56838D01*
X495352Y56730D01*
X495397Y56624D01*
X495402Y56618D01*
X495404Y56613D01*
X495416Y56599D01*
X495502Y56493D01*
X497635Y54359D01*
X497652Y54347D01*
X497664Y54332D01*
X497751Y54276D01*
X497835Y54216D01*
X497854Y54210D01*
X497871Y54199D01*
X497971Y54174D01*
X498070Y54143D01*
X498090Y54144D01*
X498109Y54139D01*
X498212Y54147D01*
X498316Y54150D01*
X498335Y54156D01*
X498355Y54158D01*
X498449Y54198D01*
X498547Y54234D01*
X498563Y54246D01*
X498581Y54254D01*
X498712Y54359D01*
X501813Y57460D01*
X505827Y59123D01*
X510173Y59123D01*
X514187Y57460D01*
X517260Y54387D01*
X518923Y50373D01*
X518923Y46027D01*
X517260Y42013D01*
X514187Y38940D01*
X510173Y37277D01*
X505827Y37277D01*
X501813Y38940D01*
X498886Y41867D01*
X498828Y41909D01*
X498776Y41958D01*
X498729Y41980D01*
X498687Y42010D01*
X498618Y42031D01*
X498553Y42062D01*
X498501Y42067D01*
X498451Y42083D01*
X498380Y42081D01*
X498309Y42089D01*
X498258Y42078D01*
X498206Y42076D01*
X498138Y42052D01*
X498068Y42036D01*
X498023Y42010D01*
X497975Y41992D01*
X497919Y41947D01*
X497857Y41910D01*
X497823Y41871D01*
X497783Y41838D01*
X497744Y41778D01*
X497697Y41723D01*
X497678Y41675D01*
X497650Y41631D01*
X497632Y41562D01*
X497605Y41495D01*
X497597Y41424D01*
X497589Y41393D01*
X497591Y41369D01*
X497587Y41328D01*
X497587Y2399D01*
X497601Y2309D01*
X497609Y2218D01*
X497621Y2189D01*
X497626Y2157D01*
X497669Y2076D01*
X497705Y1992D01*
X497731Y1960D01*
X497742Y1939D01*
X497765Y1917D01*
X497810Y1861D01*
X508125Y-8454D01*
X508199Y-8507D01*
X508268Y-8567D01*
X508299Y-8579D01*
X508325Y-8598D01*
X508412Y-8625D01*
X508497Y-8659D01*
X508538Y-8663D01*
X508560Y-8670D01*
X508592Y-8669D01*
X508663Y-8677D01*
X511258Y-8677D01*
X513582Y-9640D01*
X515360Y-11418D01*
X516323Y-13742D01*
X516323Y-16258D01*
X515360Y-18582D01*
X513582Y-20360D01*
X511258Y-21323D01*
X508742Y-21323D01*
G37*
%LPD*%
%LPC*%
G36*
X344182Y30253D02*
X344182Y30253D01*
X341858Y31216D01*
X340024Y33050D01*
X339950Y33103D01*
X339881Y33163D01*
X339850Y33175D01*
X339824Y33194D01*
X339737Y33221D01*
X339652Y33255D01*
X339611Y33259D01*
X339589Y33266D01*
X339557Y33265D01*
X339486Y33273D01*
X211992Y33273D01*
X209834Y35431D01*
X167750Y77515D01*
X167657Y77582D01*
X167562Y77653D01*
X167556Y77655D01*
X167551Y77659D01*
X167440Y77693D01*
X167328Y77729D01*
X167321Y77729D01*
X167315Y77731D01*
X167199Y77728D01*
X167082Y77727D01*
X167075Y77725D01*
X167070Y77725D01*
X167052Y77718D01*
X166921Y77680D01*
X166673Y77577D01*
X162327Y77577D01*
X158313Y79240D01*
X155240Y82313D01*
X153577Y86327D01*
X153577Y90673D01*
X155240Y94687D01*
X158313Y97760D01*
X162327Y99423D01*
X166673Y99423D01*
X170687Y97760D01*
X173760Y94687D01*
X175423Y90673D01*
X175423Y86327D01*
X173760Y82313D01*
X173565Y82118D01*
X173554Y82102D01*
X173538Y82089D01*
X173482Y82002D01*
X173422Y81918D01*
X173416Y81899D01*
X173405Y81883D01*
X173380Y81782D01*
X173349Y81683D01*
X173350Y81663D01*
X173345Y81644D01*
X173353Y81541D01*
X173356Y81437D01*
X173363Y81419D01*
X173364Y81399D01*
X173404Y81304D01*
X173440Y81206D01*
X173453Y81191D01*
X173460Y81173D01*
X173565Y81042D01*
X214505Y40102D01*
X214579Y40049D01*
X214648Y39989D01*
X214679Y39977D01*
X214705Y39958D01*
X214792Y39931D01*
X214877Y39897D01*
X214918Y39893D01*
X214940Y39886D01*
X214972Y39887D01*
X215043Y39879D01*
X339486Y39879D01*
X339577Y39894D01*
X339669Y39901D01*
X339706Y39915D01*
X339728Y39918D01*
X339729Y39919D01*
X339757Y39934D01*
X339826Y39959D01*
X339883Y40001D01*
X339946Y40034D01*
X339982Y40072D01*
X340026Y40103D01*
X340067Y40161D01*
X340115Y40212D01*
X340138Y40260D01*
X340169Y40303D01*
X340189Y40371D01*
X340219Y40435D01*
X340225Y40488D01*
X340240Y40539D01*
X340238Y40609D01*
X340246Y40679D01*
X340235Y40731D01*
X340233Y40785D01*
X340209Y40851D01*
X340194Y40920D01*
X340166Y40965D01*
X340148Y41015D01*
X340104Y41070D01*
X340068Y41131D01*
X340027Y41165D01*
X339994Y41207D01*
X339934Y41245D01*
X339881Y41291D01*
X339831Y41311D01*
X339787Y41339D01*
X339718Y41356D01*
X339652Y41383D01*
X339579Y41391D01*
X339548Y41399D01*
X339525Y41397D01*
X339486Y41401D01*
X228248Y41401D01*
X192295Y77354D01*
X192221Y77407D01*
X192152Y77467D01*
X192121Y77479D01*
X192095Y77498D01*
X192008Y77525D01*
X191923Y77559D01*
X191882Y77563D01*
X191860Y77570D01*
X191828Y77569D01*
X191757Y77577D01*
X187727Y77577D01*
X183713Y79240D01*
X180640Y82313D01*
X178977Y86327D01*
X178977Y90673D01*
X180640Y94687D01*
X183713Y97760D01*
X187727Y99423D01*
X192073Y99423D01*
X196087Y97760D01*
X199160Y94687D01*
X200823Y90673D01*
X200823Y86327D01*
X199160Y82313D01*
X198457Y81610D01*
X198446Y81594D01*
X198430Y81582D01*
X198374Y81494D01*
X198314Y81410D01*
X198308Y81391D01*
X198297Y81375D01*
X198272Y81274D01*
X198241Y81175D01*
X198242Y81155D01*
X198237Y81136D01*
X198245Y81033D01*
X198248Y80929D01*
X198255Y80911D01*
X198256Y80891D01*
X198296Y80796D01*
X198332Y80698D01*
X198345Y80683D01*
X198352Y80665D01*
X198457Y80534D01*
X230761Y48230D01*
X230835Y48177D01*
X230904Y48117D01*
X230935Y48105D01*
X230961Y48086D01*
X231048Y48059D01*
X231133Y48025D01*
X231174Y48021D01*
X231196Y48014D01*
X231228Y48015D01*
X231299Y48007D01*
X348840Y48007D01*
X353725Y43122D01*
X353799Y43069D01*
X353868Y43009D01*
X353899Y42997D01*
X353925Y42978D01*
X354012Y42951D01*
X354097Y42917D01*
X354138Y42913D01*
X354160Y42906D01*
X354192Y42907D01*
X354263Y42899D01*
X356858Y42899D01*
X359182Y41936D01*
X360960Y40158D01*
X361923Y37834D01*
X361923Y35318D01*
X360960Y32994D01*
X359182Y31216D01*
X356858Y30253D01*
X354342Y30253D01*
X352018Y31216D01*
X351058Y32176D01*
X351042Y32188D01*
X351030Y32203D01*
X350942Y32259D01*
X350859Y32320D01*
X350840Y32325D01*
X350823Y32336D01*
X350722Y32361D01*
X350623Y32392D01*
X350604Y32391D01*
X350584Y32396D01*
X350481Y32388D01*
X350378Y32386D01*
X350359Y32379D01*
X350339Y32377D01*
X350244Y32337D01*
X350147Y32301D01*
X350131Y32289D01*
X350113Y32281D01*
X349982Y32176D01*
X349022Y31216D01*
X346698Y30253D01*
X344182Y30253D01*
G37*
%LPD*%
%LPC*%
G36*
X366657Y-110391D02*
X366657Y-110391D01*
X360199Y-108660D01*
X354410Y-105318D01*
X349682Y-100590D01*
X346340Y-94801D01*
X344609Y-88343D01*
X344609Y-81657D01*
X346340Y-75199D01*
X349682Y-69410D01*
X354410Y-64682D01*
X360199Y-61340D01*
X366657Y-59609D01*
X373343Y-59609D01*
X379801Y-61340D01*
X385590Y-64682D01*
X390318Y-69410D01*
X393660Y-75199D01*
X395391Y-81657D01*
X395391Y-88343D01*
X393660Y-94801D01*
X390318Y-100590D01*
X385590Y-105318D01*
X379801Y-108660D01*
X373343Y-110391D01*
X366657Y-110391D01*
G37*
%LPD*%
%LPC*%
G36*
X632827Y-115123D02*
X632827Y-115123D01*
X628813Y-113460D01*
X625740Y-110387D01*
X624077Y-106373D01*
X624077Y-102027D01*
X625740Y-98013D01*
X628813Y-94940D01*
X632827Y-93277D01*
X637173Y-93277D01*
X641277Y-94977D01*
X641290Y-94986D01*
X641309Y-94992D01*
X641325Y-95003D01*
X641426Y-95028D01*
X641525Y-95059D01*
X641545Y-95058D01*
X641564Y-95063D01*
X641667Y-95055D01*
X641771Y-95052D01*
X641789Y-95045D01*
X641809Y-95044D01*
X641904Y-95004D01*
X642002Y-94968D01*
X642017Y-94955D01*
X642035Y-94948D01*
X642166Y-94843D01*
X652936Y-84073D01*
X669896Y-84073D01*
X672054Y-86231D01*
X672749Y-86926D01*
X672823Y-86979D01*
X672892Y-87039D01*
X672923Y-87051D01*
X672949Y-87070D01*
X673036Y-87097D01*
X673121Y-87131D01*
X673162Y-87135D01*
X673184Y-87142D01*
X673216Y-87141D01*
X673287Y-87149D01*
X675882Y-87149D01*
X678206Y-88112D01*
X679984Y-89890D01*
X680947Y-92214D01*
X680947Y-93248D01*
X680954Y-93294D01*
X680952Y-93339D01*
X680974Y-93414D01*
X680986Y-93491D01*
X681008Y-93532D01*
X681021Y-93576D01*
X681065Y-93640D01*
X681102Y-93708D01*
X681135Y-93740D01*
X681161Y-93778D01*
X681223Y-93824D01*
X681280Y-93878D01*
X681322Y-93897D01*
X681358Y-93925D01*
X681432Y-93949D01*
X681503Y-93981D01*
X681549Y-93987D01*
X681592Y-94001D01*
X681670Y-94000D01*
X681747Y-94009D01*
X681792Y-93999D01*
X681838Y-93998D01*
X681970Y-93960D01*
X681988Y-93956D01*
X681992Y-93954D01*
X681999Y-93952D01*
X683627Y-93277D01*
X687973Y-93277D01*
X691987Y-94940D01*
X695060Y-98013D01*
X696723Y-102027D01*
X696723Y-106373D01*
X695060Y-110387D01*
X691987Y-113460D01*
X687973Y-115123D01*
X683627Y-115123D01*
X679613Y-113460D01*
X676540Y-110387D01*
X674877Y-106373D01*
X674877Y-102027D01*
X675366Y-100847D01*
X675377Y-100803D01*
X675396Y-100761D01*
X675404Y-100684D01*
X675422Y-100608D01*
X675418Y-100562D01*
X675423Y-100517D01*
X675406Y-100440D01*
X675399Y-100363D01*
X675380Y-100321D01*
X675371Y-100276D01*
X675331Y-100209D01*
X675299Y-100138D01*
X675268Y-100104D01*
X675245Y-100065D01*
X675185Y-100014D01*
X675133Y-99957D01*
X675093Y-99935D01*
X675058Y-99905D01*
X674985Y-99876D01*
X674917Y-99839D01*
X674872Y-99830D01*
X674829Y-99813D01*
X674694Y-99798D01*
X674675Y-99795D01*
X674670Y-99796D01*
X674663Y-99795D01*
X673366Y-99795D01*
X671481Y-99014D01*
X671411Y-98997D01*
X671344Y-98972D01*
X671292Y-98970D01*
X671242Y-98958D01*
X671170Y-98964D01*
X671099Y-98961D01*
X671049Y-98976D01*
X670997Y-98981D01*
X670931Y-99010D01*
X670862Y-99030D01*
X670820Y-99060D01*
X670772Y-99081D01*
X670719Y-99129D01*
X670660Y-99170D01*
X670629Y-99212D01*
X670591Y-99247D01*
X670556Y-99310D01*
X670514Y-99368D01*
X670497Y-99417D01*
X670472Y-99463D01*
X670460Y-99533D01*
X670437Y-99601D01*
X670438Y-99653D01*
X670429Y-99705D01*
X670439Y-99776D01*
X670440Y-99847D01*
X670460Y-99916D01*
X670464Y-99948D01*
X670475Y-99969D01*
X670486Y-100008D01*
X671323Y-102027D01*
X671323Y-106373D01*
X669660Y-110387D01*
X666587Y-113460D01*
X662573Y-115123D01*
X658227Y-115123D01*
X654213Y-113460D01*
X651140Y-110387D01*
X649477Y-106373D01*
X649477Y-102027D01*
X651140Y-98013D01*
X654213Y-94940D01*
X658227Y-93277D01*
X662573Y-93277D01*
X666587Y-94940D01*
X667002Y-95355D01*
X667060Y-95397D01*
X667112Y-95446D01*
X667159Y-95468D01*
X667201Y-95498D01*
X667270Y-95519D01*
X667335Y-95550D01*
X667387Y-95555D01*
X667437Y-95571D01*
X667508Y-95569D01*
X667579Y-95577D01*
X667630Y-95566D01*
X667682Y-95564D01*
X667750Y-95540D01*
X667820Y-95524D01*
X667865Y-95498D01*
X667913Y-95480D01*
X667969Y-95435D01*
X668031Y-95398D01*
X668065Y-95359D01*
X668105Y-95326D01*
X668144Y-95266D01*
X668191Y-95211D01*
X668210Y-95163D01*
X668238Y-95119D01*
X668256Y-95050D01*
X668283Y-94983D01*
X668291Y-94912D01*
X668299Y-94881D01*
X668297Y-94857D01*
X668301Y-94816D01*
X668301Y-92135D01*
X668287Y-92045D01*
X668279Y-91954D01*
X668267Y-91925D01*
X668262Y-91893D01*
X668219Y-91812D01*
X668183Y-91728D01*
X668157Y-91696D01*
X668146Y-91675D01*
X668123Y-91653D01*
X668078Y-91597D01*
X667383Y-90902D01*
X667309Y-90849D01*
X667240Y-90789D01*
X667209Y-90777D01*
X667183Y-90758D01*
X667096Y-90731D01*
X667011Y-90697D01*
X666970Y-90693D01*
X666948Y-90686D01*
X666916Y-90687D01*
X666845Y-90679D01*
X655987Y-90679D01*
X655897Y-90693D01*
X655806Y-90701D01*
X655777Y-90713D01*
X655745Y-90718D01*
X655664Y-90761D01*
X655580Y-90797D01*
X655548Y-90823D01*
X655527Y-90834D01*
X655505Y-90857D01*
X655449Y-90902D01*
X645814Y-100537D01*
X645746Y-100632D01*
X645676Y-100725D01*
X645674Y-100731D01*
X645670Y-100737D01*
X645636Y-100848D01*
X645600Y-100959D01*
X645600Y-100966D01*
X645598Y-100972D01*
X645601Y-101088D01*
X645602Y-101205D01*
X645604Y-101212D01*
X645604Y-101218D01*
X645611Y-101235D01*
X645649Y-101366D01*
X645923Y-102027D01*
X645923Y-106373D01*
X644260Y-110387D01*
X641187Y-113460D01*
X637173Y-115123D01*
X632827Y-115123D01*
G37*
%LPD*%
%LPC*%
G36*
X373282Y11363D02*
X373282Y11363D01*
X370108Y12678D01*
X367678Y15108D01*
X366363Y18282D01*
X366363Y21718D01*
X367678Y24892D01*
X370108Y27322D01*
X373282Y28637D01*
X376718Y28637D01*
X377838Y28173D01*
X377951Y28146D01*
X378065Y28118D01*
X378071Y28118D01*
X378077Y28117D01*
X378194Y28128D01*
X378310Y28137D01*
X378316Y28139D01*
X378322Y28140D01*
X378429Y28188D01*
X378536Y28233D01*
X378542Y28238D01*
X378547Y28240D01*
X378560Y28253D01*
X378667Y28338D01*
X383632Y33303D01*
X387645Y33303D01*
X387716Y33314D01*
X387788Y33316D01*
X387837Y33334D01*
X387888Y33342D01*
X387951Y33376D01*
X388019Y33401D01*
X388059Y33433D01*
X388105Y33458D01*
X388155Y33509D01*
X388211Y33554D01*
X388239Y33598D01*
X388275Y33636D01*
X388305Y33701D01*
X388344Y33761D01*
X388356Y33812D01*
X388378Y33859D01*
X388386Y33930D01*
X388404Y34000D01*
X388400Y34052D01*
X388405Y34103D01*
X388390Y34174D01*
X388385Y34245D01*
X388364Y34293D01*
X388353Y34344D01*
X388316Y34405D01*
X388288Y34471D01*
X388244Y34527D01*
X388227Y34555D01*
X388209Y34570D01*
X388184Y34602D01*
X387678Y35108D01*
X386363Y38282D01*
X386363Y41718D01*
X387678Y44892D01*
X390108Y47322D01*
X393282Y48637D01*
X396718Y48637D01*
X399892Y47322D01*
X402322Y44892D01*
X403637Y41718D01*
X403637Y38282D01*
X402322Y35108D01*
X401816Y34602D01*
X401775Y34544D01*
X401725Y34492D01*
X401703Y34445D01*
X401673Y34403D01*
X401652Y34334D01*
X401622Y34269D01*
X401616Y34217D01*
X401601Y34167D01*
X401602Y34096D01*
X401595Y34025D01*
X401606Y33974D01*
X401607Y33922D01*
X401632Y33854D01*
X401647Y33784D01*
X401673Y33739D01*
X401691Y33691D01*
X401736Y33635D01*
X401773Y33573D01*
X401813Y33539D01*
X401845Y33499D01*
X401905Y33460D01*
X401960Y33413D01*
X402008Y33394D01*
X402052Y33366D01*
X402121Y33348D01*
X402188Y33321D01*
X402259Y33313D01*
X402290Y33305D01*
X402314Y33307D01*
X402355Y33303D01*
X411368Y33303D01*
X413303Y31368D01*
X413303Y25954D01*
X413317Y25864D01*
X413325Y25773D01*
X413337Y25744D01*
X413342Y25712D01*
X413385Y25631D01*
X413421Y25547D01*
X413447Y25515D01*
X413458Y25494D01*
X413481Y25472D01*
X413526Y25416D01*
X415360Y23582D01*
X416323Y21258D01*
X416323Y18742D01*
X415360Y16418D01*
X413582Y14640D01*
X411258Y13677D01*
X408742Y13677D01*
X406418Y14640D01*
X404640Y16418D01*
X404456Y16863D01*
X404418Y16924D01*
X404389Y16990D01*
X404354Y17028D01*
X404326Y17072D01*
X404271Y17118D01*
X404222Y17171D01*
X404177Y17196D01*
X404137Y17229D01*
X404070Y17255D01*
X404007Y17289D01*
X403956Y17299D01*
X403907Y17317D01*
X403835Y17320D01*
X403765Y17333D01*
X403713Y17325D01*
X403661Y17328D01*
X403592Y17308D01*
X403521Y17297D01*
X403475Y17274D01*
X403425Y17259D01*
X403366Y17218D01*
X403302Y17186D01*
X403266Y17149D01*
X403223Y17119D01*
X403180Y17061D01*
X403130Y17010D01*
X403095Y16947D01*
X403076Y16922D01*
X403069Y16899D01*
X403049Y16863D01*
X402322Y15108D01*
X399892Y12678D01*
X396718Y11363D01*
X393282Y11363D01*
X390108Y12678D01*
X387678Y15108D01*
X386363Y18282D01*
X386363Y21718D01*
X387678Y24892D01*
X388184Y25398D01*
X388225Y25456D01*
X388275Y25508D01*
X388297Y25555D01*
X388327Y25597D01*
X388348Y25666D01*
X388378Y25731D01*
X388384Y25783D01*
X388399Y25833D01*
X388398Y25904D01*
X388405Y25975D01*
X388394Y26026D01*
X388393Y26078D01*
X388368Y26146D01*
X388353Y26216D01*
X388327Y26261D01*
X388309Y26309D01*
X388264Y26365D01*
X388227Y26427D01*
X388187Y26461D01*
X388155Y26501D01*
X388095Y26540D01*
X388040Y26587D01*
X387992Y26606D01*
X387948Y26634D01*
X387879Y26652D01*
X387812Y26679D01*
X387741Y26687D01*
X387710Y26695D01*
X387686Y26693D01*
X387645Y26697D01*
X386683Y26697D01*
X386593Y26683D01*
X386502Y26675D01*
X386473Y26663D01*
X386441Y26658D01*
X386360Y26615D01*
X386276Y26579D01*
X386244Y26553D01*
X386223Y26542D01*
X386201Y26519D01*
X386145Y26474D01*
X383338Y23667D01*
X383270Y23572D01*
X383200Y23479D01*
X383198Y23472D01*
X383194Y23467D01*
X383160Y23356D01*
X383124Y23245D01*
X383124Y23238D01*
X383122Y23232D01*
X383125Y23116D01*
X383126Y22999D01*
X383128Y22992D01*
X383128Y22986D01*
X383135Y22969D01*
X383173Y22838D01*
X383637Y21718D01*
X383637Y18282D01*
X382322Y15108D01*
X379892Y12678D01*
X376718Y11363D01*
X373282Y11363D01*
G37*
%LPD*%
%LPC*%
G36*
X413742Y-91323D02*
X413742Y-91323D01*
X411418Y-90360D01*
X409640Y-88582D01*
X408677Y-86258D01*
X408677Y-83663D01*
X408663Y-83573D01*
X408655Y-83482D01*
X408643Y-83453D01*
X408638Y-83421D01*
X408595Y-83340D01*
X408559Y-83256D01*
X408533Y-83224D01*
X408522Y-83203D01*
X408499Y-83181D01*
X408454Y-83125D01*
X374189Y-48860D01*
X374115Y-48807D01*
X374046Y-48747D01*
X374015Y-48735D01*
X373989Y-48716D01*
X373902Y-48689D01*
X373817Y-48655D01*
X373776Y-48651D01*
X373754Y-48644D01*
X373722Y-48645D01*
X373651Y-48637D01*
X367852Y-48637D01*
X366363Y-47148D01*
X366363Y-44064D01*
X366360Y-44044D01*
X366362Y-44025D01*
X366340Y-43923D01*
X366324Y-43821D01*
X366314Y-43804D01*
X366310Y-43784D01*
X366257Y-43695D01*
X366208Y-43604D01*
X366194Y-43590D01*
X366184Y-43573D01*
X366105Y-43506D01*
X366030Y-43434D01*
X366012Y-43426D01*
X365997Y-43413D01*
X365901Y-43374D01*
X365807Y-43331D01*
X365787Y-43329D01*
X365769Y-43321D01*
X365602Y-43303D01*
X349064Y-43303D01*
X349044Y-43306D01*
X349025Y-43304D01*
X348923Y-43326D01*
X348821Y-43342D01*
X348804Y-43352D01*
X348784Y-43356D01*
X348695Y-43409D01*
X348604Y-43458D01*
X348590Y-43472D01*
X348573Y-43482D01*
X348506Y-43561D01*
X348434Y-43636D01*
X348426Y-43654D01*
X348413Y-43669D01*
X348374Y-43765D01*
X348331Y-43859D01*
X348329Y-43879D01*
X348321Y-43897D01*
X348303Y-44064D01*
X348303Y-49046D01*
X348317Y-49136D01*
X348325Y-49227D01*
X348337Y-49256D01*
X348342Y-49288D01*
X348385Y-49369D01*
X348421Y-49453D01*
X348447Y-49485D01*
X348458Y-49506D01*
X348481Y-49528D01*
X348526Y-49584D01*
X350360Y-51418D01*
X351323Y-53742D01*
X351323Y-56258D01*
X350360Y-58582D01*
X348582Y-60360D01*
X346258Y-61323D01*
X343742Y-61323D01*
X341418Y-60360D01*
X339640Y-58582D01*
X338677Y-56258D01*
X338677Y-53742D01*
X339640Y-51418D01*
X341474Y-49584D01*
X341527Y-49510D01*
X341587Y-49441D01*
X341599Y-49410D01*
X341618Y-49384D01*
X341645Y-49297D01*
X341679Y-49212D01*
X341683Y-49171D01*
X341690Y-49149D01*
X341689Y-49117D01*
X341697Y-49046D01*
X341697Y-38632D01*
X343632Y-36697D01*
X365602Y-36697D01*
X365622Y-36694D01*
X365641Y-36696D01*
X365743Y-36674D01*
X365845Y-36658D01*
X365862Y-36648D01*
X365882Y-36644D01*
X365971Y-36591D01*
X366062Y-36542D01*
X366076Y-36528D01*
X366093Y-36518D01*
X366160Y-36439D01*
X366232Y-36364D01*
X366240Y-36346D01*
X366253Y-36331D01*
X366292Y-36235D01*
X366335Y-36141D01*
X366337Y-36121D01*
X366345Y-36103D01*
X366363Y-35936D01*
X366363Y-32852D01*
X367852Y-31363D01*
X382148Y-31363D01*
X383637Y-32852D01*
X383637Y-47148D01*
X383266Y-47519D01*
X383255Y-47535D01*
X383239Y-47548D01*
X383183Y-47635D01*
X383123Y-47719D01*
X383117Y-47738D01*
X383106Y-47754D01*
X383081Y-47855D01*
X383050Y-47954D01*
X383051Y-47974D01*
X383046Y-47993D01*
X383054Y-48096D01*
X383057Y-48200D01*
X383064Y-48218D01*
X383065Y-48238D01*
X383105Y-48333D01*
X383141Y-48431D01*
X383154Y-48446D01*
X383161Y-48465D01*
X383266Y-48595D01*
X413125Y-78454D01*
X413199Y-78507D01*
X413268Y-78567D01*
X413299Y-78579D01*
X413325Y-78598D01*
X413412Y-78625D01*
X413497Y-78659D01*
X413538Y-78663D01*
X413560Y-78670D01*
X413592Y-78669D01*
X413663Y-78677D01*
X416258Y-78677D01*
X418582Y-79640D01*
X420360Y-81418D01*
X421323Y-83742D01*
X421323Y-86258D01*
X420360Y-88582D01*
X418582Y-90360D01*
X416258Y-91323D01*
X413742Y-91323D01*
G37*
%LPD*%
%LPC*%
G36*
X573742Y13677D02*
X573742Y13677D01*
X571418Y14640D01*
X569640Y16418D01*
X568677Y18742D01*
X568677Y21258D01*
X569640Y23582D01*
X571418Y25360D01*
X573742Y26323D01*
X576258Y26323D01*
X578582Y25360D01*
X580416Y23526D01*
X580490Y23473D01*
X580559Y23413D01*
X580590Y23401D01*
X580616Y23382D01*
X580703Y23355D01*
X580788Y23321D01*
X580829Y23317D01*
X580851Y23310D01*
X580883Y23311D01*
X580954Y23303D01*
X620936Y23303D01*
X620956Y23306D01*
X620975Y23304D01*
X621077Y23326D01*
X621179Y23342D01*
X621196Y23352D01*
X621216Y23356D01*
X621305Y23409D01*
X621396Y23458D01*
X621410Y23472D01*
X621427Y23482D01*
X621494Y23561D01*
X621566Y23636D01*
X621574Y23654D01*
X621587Y23669D01*
X621626Y23765D01*
X621669Y23859D01*
X621671Y23879D01*
X621679Y23897D01*
X621697Y24064D01*
X621697Y41368D01*
X624385Y44056D01*
X624453Y44151D01*
X624523Y44245D01*
X624525Y44251D01*
X624529Y44256D01*
X624563Y44367D01*
X624599Y44479D01*
X624599Y44485D01*
X624601Y44491D01*
X624598Y44608D01*
X624597Y44724D01*
X624595Y44732D01*
X624595Y44737D01*
X624588Y44754D01*
X624550Y44886D01*
X624077Y46027D01*
X624077Y50373D01*
X625740Y54387D01*
X628813Y57460D01*
X632827Y59123D01*
X637173Y59123D01*
X641187Y57460D01*
X644260Y54387D01*
X645923Y50373D01*
X645923Y46027D01*
X644260Y42013D01*
X641187Y38940D01*
X637173Y37277D01*
X632827Y37277D01*
X629355Y38715D01*
X629311Y38726D01*
X629269Y38745D01*
X629192Y38754D01*
X629116Y38772D01*
X629070Y38767D01*
X629025Y38772D01*
X628948Y38756D01*
X628871Y38749D01*
X628829Y38730D01*
X628784Y38720D01*
X628717Y38680D01*
X628646Y38649D01*
X628612Y38617D01*
X628573Y38594D01*
X628522Y38535D01*
X628465Y38482D01*
X628443Y38442D01*
X628413Y38407D01*
X628384Y38335D01*
X628347Y38267D01*
X628338Y38221D01*
X628321Y38179D01*
X628306Y38043D01*
X628303Y38025D01*
X628304Y38020D01*
X628303Y38012D01*
X628303Y18632D01*
X626368Y16697D01*
X580954Y16697D01*
X580864Y16683D01*
X580773Y16675D01*
X580744Y16663D01*
X580712Y16658D01*
X580631Y16615D01*
X580547Y16579D01*
X580515Y16553D01*
X580494Y16542D01*
X580472Y16519D01*
X580416Y16474D01*
X578582Y14640D01*
X576258Y13677D01*
X573742Y13677D01*
G37*
%LPD*%
%LPC*%
G36*
X659918Y74637D02*
X659918Y74637D01*
X657594Y75600D01*
X655816Y77378D01*
X654853Y79702D01*
X654853Y82218D01*
X655816Y84542D01*
X657594Y86320D01*
X659918Y87283D01*
X661417Y87283D01*
X661507Y87297D01*
X661598Y87305D01*
X661627Y87317D01*
X661659Y87322D01*
X661740Y87365D01*
X661824Y87401D01*
X661856Y87427D01*
X661877Y87438D01*
X661899Y87461D01*
X661955Y87506D01*
X671424Y96975D01*
X671477Y97049D01*
X671537Y97118D01*
X671549Y97149D01*
X671568Y97175D01*
X671595Y97262D01*
X671629Y97347D01*
X671633Y97388D01*
X671640Y97410D01*
X671639Y97442D01*
X671647Y97513D01*
X671647Y100720D01*
X673117Y104268D01*
X675832Y106983D01*
X678520Y108097D01*
X678581Y108135D01*
X678647Y108164D01*
X678685Y108199D01*
X678729Y108226D01*
X678775Y108282D01*
X678828Y108330D01*
X678853Y108376D01*
X678886Y108416D01*
X678912Y108483D01*
X678947Y108546D01*
X678956Y108597D01*
X678974Y108645D01*
X678978Y108717D01*
X678990Y108788D01*
X678983Y108839D01*
X678985Y108891D01*
X678965Y108960D01*
X678954Y109031D01*
X678931Y109077D01*
X678916Y109127D01*
X678876Y109186D01*
X678843Y109250D01*
X678806Y109287D01*
X678776Y109329D01*
X678719Y109372D01*
X678667Y109422D01*
X678605Y109457D01*
X678579Y109476D01*
X678556Y109483D01*
X678520Y109503D01*
X675832Y110617D01*
X673117Y113332D01*
X671647Y116880D01*
X671647Y120720D01*
X673117Y124268D01*
X675832Y126983D01*
X679380Y128453D01*
X683220Y128453D01*
X686768Y126983D01*
X689483Y124268D01*
X690953Y120720D01*
X690953Y116880D01*
X689483Y113332D01*
X686768Y110617D01*
X684080Y109503D01*
X684019Y109465D01*
X683953Y109436D01*
X683915Y109401D01*
X683871Y109374D01*
X683825Y109318D01*
X683772Y109270D01*
X683747Y109224D01*
X683714Y109184D01*
X683688Y109117D01*
X683653Y109054D01*
X683644Y109003D01*
X683626Y108955D01*
X683622Y108883D01*
X683610Y108812D01*
X683617Y108761D01*
X683615Y108709D01*
X683635Y108640D01*
X683646Y108569D01*
X683669Y108523D01*
X683684Y108473D01*
X683724Y108414D01*
X683757Y108350D01*
X683794Y108313D01*
X683824Y108271D01*
X683881Y108228D01*
X683933Y108178D01*
X683995Y108143D01*
X684021Y108124D01*
X684044Y108117D01*
X684080Y108097D01*
X686768Y106983D01*
X689483Y104268D01*
X690953Y100720D01*
X690953Y96880D01*
X689483Y93332D01*
X686768Y90617D01*
X683220Y89147D01*
X679380Y89147D01*
X675832Y90617D01*
X675658Y90791D01*
X675642Y90802D01*
X675630Y90818D01*
X675542Y90874D01*
X675458Y90934D01*
X675439Y90940D01*
X675423Y90951D01*
X675322Y90976D01*
X675223Y91007D01*
X675203Y91006D01*
X675184Y91011D01*
X675081Y91003D01*
X674977Y91000D01*
X674959Y90993D01*
X674939Y90992D01*
X674844Y90952D01*
X674746Y90916D01*
X674731Y90903D01*
X674713Y90896D01*
X674582Y90791D01*
X667422Y83631D01*
X667354Y83537D01*
X667284Y83442D01*
X667282Y83436D01*
X667278Y83431D01*
X667244Y83320D01*
X667208Y83209D01*
X667208Y83202D01*
X667206Y83196D01*
X667209Y83080D01*
X667210Y82963D01*
X667212Y82955D01*
X667212Y82950D01*
X667219Y82933D01*
X667257Y82802D01*
X667499Y82218D01*
X667499Y79702D01*
X666536Y77378D01*
X664758Y75600D01*
X662434Y74637D01*
X659918Y74637D01*
G37*
%LPD*%
%LPC*%
G36*
X656958Y-18291D02*
X656958Y-18291D01*
X651338Y-15963D01*
X647037Y-11662D01*
X644709Y-6042D01*
X644709Y42D01*
X647037Y5662D01*
X651338Y9963D01*
X656958Y12291D01*
X663042Y12291D01*
X668662Y9963D01*
X672963Y5662D01*
X675291Y42D01*
X675291Y-6042D01*
X672963Y-11662D01*
X668662Y-15963D01*
X663042Y-18291D01*
X656958Y-18291D01*
G37*
%LPD*%
%LPC*%
G36*
X318423Y-39262D02*
X318423Y-39262D01*
X318420Y-39242D01*
X318422Y-39223D01*
X318400Y-39121D01*
X318383Y-39019D01*
X318374Y-39002D01*
X318370Y-38982D01*
X318317Y-38893D01*
X318268Y-38802D01*
X318254Y-38788D01*
X318244Y-38771D01*
X318165Y-38704D01*
X318090Y-38633D01*
X318072Y-38624D01*
X318057Y-38611D01*
X317961Y-38573D01*
X317867Y-38529D01*
X317847Y-38527D01*
X317829Y-38519D01*
X317662Y-38501D01*
X316899Y-38501D01*
X316899Y-38499D01*
X317662Y-38499D01*
X317682Y-38496D01*
X317701Y-38498D01*
X317803Y-38476D01*
X317905Y-38459D01*
X317922Y-38450D01*
X317942Y-38446D01*
X318031Y-38393D01*
X318122Y-38344D01*
X318136Y-38330D01*
X318153Y-38320D01*
X318220Y-38241D01*
X318291Y-38166D01*
X318300Y-38148D01*
X318313Y-38133D01*
X318352Y-38037D01*
X318395Y-37943D01*
X318397Y-37923D01*
X318405Y-37905D01*
X318423Y-37738D01*
X318423Y-27682D01*
X319458Y-27846D01*
X321093Y-28378D01*
X322625Y-29158D01*
X324016Y-30169D01*
X324836Y-30989D01*
X324894Y-31031D01*
X324946Y-31080D01*
X324993Y-31102D01*
X325035Y-31132D01*
X325104Y-31153D01*
X325169Y-31184D01*
X325221Y-31189D01*
X325271Y-31205D01*
X325342Y-31203D01*
X325413Y-31211D01*
X325464Y-31200D01*
X325516Y-31198D01*
X325584Y-31174D01*
X325654Y-31158D01*
X325699Y-31132D01*
X325747Y-31114D01*
X325803Y-31069D01*
X325865Y-31032D01*
X325899Y-30993D01*
X325939Y-30960D01*
X325978Y-30900D01*
X326025Y-30845D01*
X326044Y-30797D01*
X326072Y-30753D01*
X326090Y-30684D01*
X326117Y-30617D01*
X326125Y-30546D01*
X326133Y-30515D01*
X326131Y-30491D01*
X326135Y-30450D01*
X326135Y-10087D01*
X326702Y-9520D01*
X326755Y-9447D01*
X326815Y-9377D01*
X326827Y-9347D01*
X326846Y-9321D01*
X326873Y-9234D01*
X326907Y-9149D01*
X326911Y-9108D01*
X326918Y-9086D01*
X326917Y-9053D01*
X326925Y-8982D01*
X326925Y-8902D01*
X327888Y-6578D01*
X329666Y-4800D01*
X331990Y-3837D01*
X334506Y-3837D01*
X336830Y-4800D01*
X338608Y-6578D01*
X339571Y-8902D01*
X339571Y-11418D01*
X338608Y-13742D01*
X336830Y-15520D01*
X336767Y-15546D01*
X336667Y-15608D01*
X336567Y-15668D01*
X336563Y-15672D01*
X336558Y-15676D01*
X336483Y-15766D01*
X336407Y-15855D01*
X336405Y-15860D01*
X336401Y-15865D01*
X336359Y-15974D01*
X336315Y-16083D01*
X336314Y-16090D01*
X336313Y-16095D01*
X336312Y-16113D01*
X336297Y-16249D01*
X336297Y-38336D01*
X336311Y-38426D01*
X336319Y-38517D01*
X336331Y-38546D01*
X336336Y-38578D01*
X336379Y-38659D01*
X336415Y-38743D01*
X336441Y-38775D01*
X336452Y-38796D01*
X336475Y-38818D01*
X336520Y-38874D01*
X336576Y-38930D01*
X337539Y-41254D01*
X337539Y-43770D01*
X336576Y-46094D01*
X334798Y-47872D01*
X332474Y-48835D01*
X329958Y-48835D01*
X327634Y-47872D01*
X325843Y-46081D01*
X325827Y-46069D01*
X325814Y-46053D01*
X325727Y-45997D01*
X325643Y-45937D01*
X325624Y-45931D01*
X325607Y-45920D01*
X325507Y-45895D01*
X325408Y-45865D01*
X325388Y-45865D01*
X325369Y-45860D01*
X325266Y-45868D01*
X325162Y-45871D01*
X325143Y-45878D01*
X325124Y-45880D01*
X325029Y-45920D01*
X324931Y-45956D01*
X324916Y-45968D01*
X324897Y-45976D01*
X324766Y-46081D01*
X324016Y-46831D01*
X322625Y-47842D01*
X321093Y-48622D01*
X319458Y-49154D01*
X318423Y-49318D01*
X318423Y-39262D01*
G37*
%LPD*%
%LPC*%
G36*
X703004Y67259D02*
X703004Y67259D01*
X698763Y69016D01*
X695516Y72263D01*
X693759Y76504D01*
X693759Y81096D01*
X695516Y85337D01*
X698763Y88584D01*
X703004Y90341D01*
X707596Y90341D01*
X711837Y88584D01*
X715084Y85337D01*
X716841Y81096D01*
X716841Y76504D01*
X715084Y72263D01*
X711837Y69016D01*
X707596Y67259D01*
X703004Y67259D01*
G37*
%LPD*%
%LPC*%
G36*
X136927Y77577D02*
X136927Y77577D01*
X132913Y79240D01*
X129840Y82313D01*
X128177Y86327D01*
X128177Y90673D01*
X129840Y94687D01*
X132913Y97760D01*
X136927Y99423D01*
X141273Y99423D01*
X145287Y97760D01*
X148360Y94687D01*
X150023Y90673D01*
X150023Y86327D01*
X148360Y82313D01*
X145287Y79240D01*
X141273Y77577D01*
X136927Y77577D01*
G37*
%LPD*%
%LPC*%
G36*
X289327Y77577D02*
X289327Y77577D01*
X285313Y79240D01*
X282240Y82313D01*
X280577Y86327D01*
X280577Y90673D01*
X282240Y94687D01*
X285313Y97760D01*
X289327Y99423D01*
X293673Y99423D01*
X297687Y97760D01*
X300760Y94687D01*
X302423Y90673D01*
X302423Y86327D01*
X300760Y82313D01*
X297687Y79240D01*
X293673Y77577D01*
X289327Y77577D01*
G37*
%LPD*%
%LPC*%
G36*
X314727Y77577D02*
X314727Y77577D01*
X310713Y79240D01*
X307640Y82313D01*
X305977Y86327D01*
X305977Y90673D01*
X307640Y94687D01*
X310713Y97760D01*
X314727Y99423D01*
X319073Y99423D01*
X323087Y97760D01*
X326160Y94687D01*
X327823Y90673D01*
X327823Y86327D01*
X326160Y82313D01*
X323087Y79240D01*
X319073Y77577D01*
X314727Y77577D01*
G37*
%LPD*%
%LPC*%
G36*
X263927Y77577D02*
X263927Y77577D01*
X259913Y79240D01*
X256840Y82313D01*
X255177Y86327D01*
X255177Y90673D01*
X256840Y94687D01*
X259913Y97760D01*
X263927Y99423D01*
X268273Y99423D01*
X272287Y97760D01*
X275360Y94687D01*
X277023Y90673D01*
X277023Y86327D01*
X275360Y82313D01*
X272287Y79240D01*
X268273Y77577D01*
X263927Y77577D01*
G37*
%LPD*%
%LPC*%
G36*
X238527Y77577D02*
X238527Y77577D01*
X234513Y79240D01*
X231440Y82313D01*
X229777Y86327D01*
X229777Y90673D01*
X231440Y94687D01*
X234513Y97760D01*
X238527Y99423D01*
X242873Y99423D01*
X246887Y97760D01*
X249960Y94687D01*
X251623Y90673D01*
X251623Y86327D01*
X249960Y82313D01*
X246887Y79240D01*
X242873Y77577D01*
X238527Y77577D01*
G37*
%LPD*%
%LPC*%
G36*
X709027Y-115123D02*
X709027Y-115123D01*
X705013Y-113460D01*
X701940Y-110387D01*
X700277Y-106373D01*
X700277Y-102027D01*
X701940Y-98013D01*
X705013Y-94940D01*
X709027Y-93277D01*
X713373Y-93277D01*
X717387Y-94940D01*
X720460Y-98013D01*
X722123Y-102027D01*
X722123Y-106373D01*
X720460Y-110387D01*
X717387Y-113460D01*
X713373Y-115123D01*
X709027Y-115123D01*
G37*
%LPD*%
%LPC*%
G36*
X607427Y-115123D02*
X607427Y-115123D01*
X603413Y-113460D01*
X600340Y-110387D01*
X598677Y-106373D01*
X598677Y-102027D01*
X600340Y-98013D01*
X603413Y-94940D01*
X607427Y-93277D01*
X611773Y-93277D01*
X615787Y-94940D01*
X618860Y-98013D01*
X620523Y-102027D01*
X620523Y-106373D01*
X618860Y-110387D01*
X615787Y-113460D01*
X611773Y-115123D01*
X607427Y-115123D01*
G37*
%LPD*%
%LPC*%
G36*
X709027Y37277D02*
X709027Y37277D01*
X705013Y38940D01*
X701940Y42013D01*
X700277Y46027D01*
X700277Y50373D01*
X701940Y54387D01*
X705013Y57460D01*
X709027Y59123D01*
X713373Y59123D01*
X717387Y57460D01*
X720460Y54387D01*
X722123Y50373D01*
X722123Y46027D01*
X720460Y42013D01*
X717387Y38940D01*
X713373Y37277D01*
X709027Y37277D01*
G37*
%LPD*%
%LPC*%
G36*
X734427Y37277D02*
X734427Y37277D01*
X730413Y38940D01*
X727340Y42013D01*
X725677Y46027D01*
X725677Y50373D01*
X727340Y54387D01*
X730413Y57460D01*
X734427Y59123D01*
X738773Y59123D01*
X742787Y57460D01*
X745860Y54387D01*
X747523Y50373D01*
X747523Y46027D01*
X745860Y42013D01*
X742787Y38940D01*
X738773Y37277D01*
X734427Y37277D01*
G37*
%LPD*%
%LPC*%
G36*
X658227Y37277D02*
X658227Y37277D01*
X654213Y38940D01*
X651140Y42013D01*
X649477Y46027D01*
X649477Y50373D01*
X651140Y54387D01*
X654213Y57460D01*
X658227Y59123D01*
X662573Y59123D01*
X666587Y57460D01*
X669660Y54387D01*
X671323Y50373D01*
X671323Y46027D01*
X669660Y42013D01*
X666587Y38940D01*
X662573Y37277D01*
X658227Y37277D01*
G37*
%LPD*%
%LPC*%
G36*
X607427Y37277D02*
X607427Y37277D01*
X603413Y38940D01*
X600340Y42013D01*
X598677Y46027D01*
X598677Y50373D01*
X600340Y54387D01*
X603413Y57460D01*
X607427Y59123D01*
X611773Y59123D01*
X615787Y57460D01*
X618860Y54387D01*
X620523Y50373D01*
X620523Y46027D01*
X618860Y42013D01*
X615787Y38940D01*
X611773Y37277D01*
X607427Y37277D01*
G37*
%LPD*%
%LPC*%
G36*
X582027Y37277D02*
X582027Y37277D01*
X578013Y38940D01*
X574940Y42013D01*
X573277Y46027D01*
X573277Y50373D01*
X574940Y54387D01*
X578013Y57460D01*
X582027Y59123D01*
X586373Y59123D01*
X590387Y57460D01*
X593460Y54387D01*
X595123Y50373D01*
X595123Y46027D01*
X593460Y42013D01*
X590387Y38940D01*
X586373Y37277D01*
X582027Y37277D01*
G37*
%LPD*%
%LPC*%
G36*
X556627Y37277D02*
X556627Y37277D01*
X552613Y38940D01*
X549540Y42013D01*
X547877Y46027D01*
X547877Y50373D01*
X549540Y54387D01*
X552613Y57460D01*
X556627Y59123D01*
X560973Y59123D01*
X564987Y57460D01*
X568060Y54387D01*
X569723Y50373D01*
X569723Y46027D01*
X568060Y42013D01*
X564987Y38940D01*
X560973Y37277D01*
X556627Y37277D01*
G37*
%LPD*%
%LPC*%
G36*
X531227Y37277D02*
X531227Y37277D01*
X527213Y38940D01*
X524140Y42013D01*
X522477Y46027D01*
X522477Y50373D01*
X524140Y54387D01*
X527213Y57460D01*
X531227Y59123D01*
X535573Y59123D01*
X539587Y57460D01*
X542660Y54387D01*
X544323Y50373D01*
X544323Y46027D01*
X542660Y42013D01*
X539587Y38940D01*
X535573Y37277D01*
X531227Y37277D01*
G37*
%LPD*%
%LPC*%
G36*
X455027Y37277D02*
X455027Y37277D01*
X451013Y38940D01*
X447940Y42013D01*
X446277Y46027D01*
X446277Y50373D01*
X447940Y54387D01*
X451013Y57460D01*
X455027Y59123D01*
X459373Y59123D01*
X463387Y57460D01*
X466460Y54387D01*
X468123Y50373D01*
X468123Y46027D01*
X466460Y42013D01*
X463387Y38940D01*
X459373Y37277D01*
X455027Y37277D01*
G37*
%LPD*%
%LPC*%
G36*
X429627Y37277D02*
X429627Y37277D01*
X425613Y38940D01*
X422540Y42013D01*
X420877Y46027D01*
X420877Y50373D01*
X422540Y54387D01*
X425613Y57460D01*
X429627Y59123D01*
X433973Y59123D01*
X437987Y57460D01*
X441060Y54387D01*
X442723Y50373D01*
X442723Y46027D01*
X441060Y42013D01*
X437987Y38940D01*
X433973Y37277D01*
X429627Y37277D01*
G37*
%LPD*%
%LPC*%
G36*
X683627Y37277D02*
X683627Y37277D01*
X679613Y38940D01*
X676540Y42013D01*
X674877Y46027D01*
X674877Y50373D01*
X676540Y54387D01*
X679613Y57460D01*
X683627Y59123D01*
X687973Y59123D01*
X691987Y57460D01*
X695060Y54387D01*
X696723Y50373D01*
X696723Y46027D01*
X695060Y42013D01*
X691987Y38940D01*
X687973Y37277D01*
X683627Y37277D01*
G37*
%LPD*%
%LPC*%
G36*
X289327Y-49423D02*
X289327Y-49423D01*
X285313Y-47760D01*
X282240Y-44687D01*
X280577Y-40673D01*
X280577Y-36327D01*
X282240Y-32313D01*
X285313Y-29240D01*
X289327Y-27577D01*
X293673Y-27577D01*
X297687Y-29240D01*
X300760Y-32313D01*
X302423Y-36327D01*
X302423Y-40673D01*
X300760Y-44687D01*
X297687Y-47760D01*
X293673Y-49423D01*
X289327Y-49423D01*
G37*
%LPD*%
%LPC*%
G36*
X734427Y-115123D02*
X734427Y-115123D01*
X730413Y-113460D01*
X727340Y-110387D01*
X725677Y-106373D01*
X725677Y-102027D01*
X727340Y-98013D01*
X730413Y-94940D01*
X734427Y-93277D01*
X738773Y-93277D01*
X742787Y-94940D01*
X745860Y-98013D01*
X747523Y-102027D01*
X747523Y-106373D01*
X745860Y-110387D01*
X742787Y-113460D01*
X738773Y-115123D01*
X734427Y-115123D01*
G37*
%LPD*%
%LPC*%
G36*
X465080Y64347D02*
X465080Y64347D01*
X461532Y65817D01*
X458817Y68532D01*
X457347Y72080D01*
X457347Y75920D01*
X458817Y79468D01*
X461532Y82183D01*
X465080Y83653D01*
X468920Y83653D01*
X472468Y82183D01*
X475183Y79468D01*
X476653Y75920D01*
X476653Y72080D01*
X475183Y68532D01*
X472468Y65817D01*
X468920Y64347D01*
X465080Y64347D01*
G37*
%LPD*%
%LPC*%
G36*
X515080Y64347D02*
X515080Y64347D01*
X511532Y65817D01*
X508817Y68532D01*
X507347Y72080D01*
X507347Y75920D01*
X508817Y79468D01*
X511532Y82183D01*
X515080Y83653D01*
X518920Y83653D01*
X522468Y82183D01*
X525183Y79468D01*
X526653Y75920D01*
X526653Y72080D01*
X525183Y68532D01*
X522468Y65817D01*
X518920Y64347D01*
X515080Y64347D01*
G37*
%LPD*%
%LPC*%
G36*
X393282Y-28637D02*
X393282Y-28637D01*
X390108Y-27322D01*
X387678Y-24892D01*
X386363Y-21718D01*
X386363Y-18282D01*
X387678Y-15108D01*
X390108Y-12678D01*
X393282Y-11363D01*
X396718Y-11363D01*
X399892Y-12678D01*
X402322Y-15108D01*
X403637Y-18282D01*
X403637Y-21718D01*
X402322Y-24892D01*
X399892Y-27322D01*
X396718Y-28637D01*
X393282Y-28637D01*
G37*
%LPD*%
%LPC*%
G36*
X373282Y-28637D02*
X373282Y-28637D01*
X370108Y-27322D01*
X367678Y-24892D01*
X366363Y-21718D01*
X366363Y-18282D01*
X367678Y-15108D01*
X370108Y-12678D01*
X373282Y-11363D01*
X376718Y-11363D01*
X379892Y-12678D01*
X382322Y-15108D01*
X383637Y-18282D01*
X383637Y-21718D01*
X382322Y-24892D01*
X379892Y-27322D01*
X376718Y-28637D01*
X373282Y-28637D01*
G37*
%LPD*%
%LPC*%
G36*
X393282Y-48637D02*
X393282Y-48637D01*
X390108Y-47322D01*
X387678Y-44892D01*
X386363Y-41718D01*
X386363Y-38282D01*
X387678Y-35108D01*
X390108Y-32678D01*
X393282Y-31363D01*
X396718Y-31363D01*
X399892Y-32678D01*
X402322Y-35108D01*
X403637Y-38282D01*
X403637Y-41718D01*
X402322Y-44892D01*
X399892Y-47322D01*
X396718Y-48637D01*
X393282Y-48637D01*
G37*
%LPD*%
%LPC*%
G36*
X393282Y-8637D02*
X393282Y-8637D01*
X390108Y-7322D01*
X387678Y-4892D01*
X386363Y-1718D01*
X386363Y1718D01*
X387678Y4892D01*
X390108Y7322D01*
X393282Y8637D01*
X396718Y8637D01*
X399892Y7322D01*
X402322Y4892D01*
X403637Y1718D01*
X403637Y-1718D01*
X402322Y-4892D01*
X399892Y-7322D01*
X396718Y-8637D01*
X393282Y-8637D01*
G37*
%LPD*%
%LPC*%
G36*
X373282Y-8637D02*
X373282Y-8637D01*
X370108Y-7322D01*
X367678Y-4892D01*
X366363Y-1718D01*
X366363Y1718D01*
X367678Y4892D01*
X370108Y7322D01*
X373282Y8637D01*
X376718Y8637D01*
X379892Y7322D01*
X382322Y4892D01*
X383637Y1718D01*
X383637Y-1718D01*
X382322Y-4892D01*
X379892Y-7322D01*
X376718Y-8637D01*
X373282Y-8637D01*
G37*
%LPD*%
%LPC*%
G36*
X661523Y-54523D02*
X661523Y-54523D01*
X675240Y-54523D01*
X674914Y-56581D01*
X674170Y-58870D01*
X673078Y-61014D01*
X671663Y-62961D01*
X669961Y-64663D01*
X668014Y-66078D01*
X665870Y-67170D01*
X663581Y-67914D01*
X661523Y-68240D01*
X661523Y-54523D01*
G37*
%LPD*%
%LPC*%
G36*
X661523Y-51477D02*
X661523Y-51477D01*
X661523Y-37760D01*
X663581Y-38086D01*
X665870Y-38830D01*
X668014Y-39922D01*
X669961Y-41337D01*
X671663Y-43039D01*
X673078Y-44986D01*
X674170Y-47130D01*
X674914Y-49419D01*
X675240Y-51477D01*
X661523Y-51477D01*
G37*
%LPD*%
%LPC*%
G36*
X656419Y-67914D02*
X656419Y-67914D01*
X654130Y-67170D01*
X651986Y-66078D01*
X650039Y-64663D01*
X648337Y-62961D01*
X646922Y-61014D01*
X645830Y-58870D01*
X645086Y-56581D01*
X644760Y-54523D01*
X658477Y-54523D01*
X658477Y-68240D01*
X656419Y-67914D01*
G37*
%LPD*%
%LPC*%
G36*
X644760Y-51477D02*
X644760Y-51477D01*
X645086Y-49419D01*
X645830Y-47130D01*
X646922Y-44986D01*
X648337Y-43039D01*
X650039Y-41337D01*
X651986Y-39922D01*
X654130Y-38830D01*
X656419Y-38086D01*
X658477Y-37760D01*
X658477Y-51477D01*
X644760Y-51477D01*
G37*
%LPD*%
%LPC*%
G36*
X88823Y33223D02*
X88823Y33223D01*
X88823Y43131D01*
X92035Y43131D01*
X98731Y36435D01*
X98731Y33223D01*
X88823Y33223D01*
G37*
%LPD*%
%LPC*%
G36*
X75869Y33223D02*
X75869Y33223D01*
X75869Y36435D01*
X82565Y43131D01*
X85777Y43131D01*
X85777Y33223D01*
X75869Y33223D01*
G37*
%LPD*%
%LPC*%
G36*
X88823Y20269D02*
X88823Y20269D01*
X88823Y30177D01*
X98731Y30177D01*
X98731Y26965D01*
X92035Y20269D01*
X88823Y20269D01*
G37*
%LPD*%
%LPC*%
G36*
X82565Y20269D02*
X82565Y20269D01*
X75869Y26965D01*
X75869Y30177D01*
X85777Y30177D01*
X85777Y20269D01*
X82565Y20269D01*
G37*
%LPD*%
%LPC*%
G36*
X314342Y-49154D02*
X314342Y-49154D01*
X312707Y-48622D01*
X311175Y-47842D01*
X309784Y-46831D01*
X308569Y-45616D01*
X307558Y-44225D01*
X306778Y-42693D01*
X306246Y-41058D01*
X306082Y-40023D01*
X315377Y-40023D01*
X315377Y-49318D01*
X314342Y-49154D01*
G37*
%LPD*%
%LPC*%
G36*
X759442Y-114854D02*
X759442Y-114854D01*
X757807Y-114322D01*
X756275Y-113542D01*
X754884Y-112531D01*
X753669Y-111316D01*
X752658Y-109925D01*
X751878Y-108393D01*
X751346Y-106758D01*
X751182Y-105723D01*
X760477Y-105723D01*
X760477Y-115018D01*
X759442Y-114854D01*
G37*
%LPD*%
%LPC*%
G36*
X153682Y-36977D02*
X153682Y-36977D01*
X153846Y-35942D01*
X154378Y-34307D01*
X155158Y-32775D01*
X156169Y-31384D01*
X157384Y-30169D01*
X158775Y-29158D01*
X160307Y-28378D01*
X161942Y-27846D01*
X162977Y-27682D01*
X162977Y-36977D01*
X153682Y-36977D01*
G37*
%LPD*%
%LPC*%
G36*
X306082Y-36977D02*
X306082Y-36977D01*
X306246Y-35942D01*
X306778Y-34307D01*
X307558Y-32775D01*
X308569Y-31384D01*
X309784Y-30169D01*
X311175Y-29158D01*
X312707Y-28378D01*
X314342Y-27846D01*
X315377Y-27682D01*
X315377Y-36977D01*
X306082Y-36977D01*
G37*
%LPD*%
%LPC*%
G36*
X376523Y41523D02*
X376523Y41523D01*
X376523Y48503D01*
X377519Y48305D01*
X379091Y47654D01*
X380506Y46709D01*
X381709Y45506D01*
X382654Y44091D01*
X383305Y42519D01*
X383503Y41523D01*
X376523Y41523D01*
G37*
%LPD*%
%LPC*%
G36*
X376523Y38477D02*
X376523Y38477D01*
X383503Y38477D01*
X383305Y37481D01*
X382654Y35909D01*
X381709Y34494D01*
X380506Y33291D01*
X379091Y32346D01*
X377519Y31695D01*
X376523Y31497D01*
X376523Y38477D01*
G37*
%LPD*%
%LPC*%
G36*
X366497Y41523D02*
X366497Y41523D01*
X366695Y42519D01*
X367346Y44091D01*
X368291Y45506D01*
X369494Y46709D01*
X370909Y47654D01*
X372481Y48305D01*
X373477Y48503D01*
X373477Y41523D01*
X366497Y41523D01*
G37*
%LPD*%
%LPC*%
G36*
X372481Y31695D02*
X372481Y31695D01*
X370909Y32346D01*
X369494Y33291D01*
X368291Y34494D01*
X367346Y35909D01*
X366695Y37481D01*
X366497Y38477D01*
X373477Y38477D01*
X373477Y31497D01*
X372481Y31695D01*
G37*
%LPD*%
%LPC*%
G36*
X374999Y39999D02*
X374999Y39999D01*
X374999Y40001D01*
X375001Y40001D01*
X375001Y39999D01*
X374999Y39999D01*
G37*
%LPD*%
%LPC*%
G36*
X659999Y-53001D02*
X659999Y-53001D01*
X659999Y-52999D01*
X660001Y-52999D01*
X660001Y-53001D01*
X659999Y-53001D01*
G37*
%LPD*%
%LPC*%
G36*
X87299Y31699D02*
X87299Y31699D01*
X87299Y31701D01*
X87301Y31701D01*
X87301Y31699D01*
X87299Y31699D01*
G37*
%LPD*%
D10*
X87300Y31700D03*
D11*
X87300Y6300D03*
D12*
X375000Y-40000D03*
D13*
X395000Y-40000D03*
X375000Y-20000D03*
X395000Y-20000D03*
X375000Y0D03*
X395000Y0D03*
X375000Y20000D03*
X395000Y20000D03*
X375000Y40000D03*
X395000Y40000D03*
D12*
X35400Y30000D03*
D13*
X35400Y10000D03*
X35400Y-10000D03*
X35400Y-30000D03*
D14*
X240700Y88500D03*
X266100Y88500D03*
X291500Y88500D03*
X316900Y88500D03*
X240700Y-38500D03*
X266100Y-38500D03*
X291500Y-38500D03*
X316900Y-38500D03*
X215300Y88500D03*
X189900Y88500D03*
X164500Y88500D03*
X139100Y88500D03*
X139100Y-38500D03*
X164500Y-38500D03*
X189900Y-38500D03*
X215300Y-38500D03*
D15*
X660000Y-3000D03*
X660000Y-53000D03*
D14*
X760000Y27000D03*
X760000Y-83000D03*
D16*
X517000Y74000D03*
X467000Y74000D03*
X492000Y106000D03*
X681300Y98800D03*
X681300Y118800D03*
D17*
X705300Y78800D03*
X705300Y138800D03*
D14*
X762000Y-104200D03*
X736600Y-104200D03*
X711200Y-104200D03*
X685800Y-104200D03*
X660400Y-104200D03*
X635000Y-104200D03*
X609600Y-104200D03*
X584200Y-104200D03*
X558800Y-104200D03*
X533400Y-104200D03*
X508000Y-104200D03*
X482600Y-104200D03*
X457200Y-104200D03*
X431800Y-104200D03*
X431800Y48200D03*
X457200Y48200D03*
X482600Y48200D03*
X508000Y48200D03*
X533400Y48200D03*
X558800Y48200D03*
X584200Y48200D03*
X609600Y48200D03*
X635000Y48200D03*
X660400Y48200D03*
X685800Y48200D03*
X711200Y48200D03*
X736600Y48200D03*
X762000Y48200D03*
D18*
X255000Y25000D03*
X255000Y5000D03*
X160000Y50000D03*
X140000Y50000D03*
X130000Y-95000D03*
X145000Y-100000D03*
X535000Y77000D03*
X535000Y65000D03*
D19*
X676656Y97536D02*
X680720Y97536D01*
X676656Y97536D02*
X661176Y82056D01*
X661176Y80960D01*
X680720Y97536D02*
X681300Y98800D01*
D18*
X661176Y80960D03*
D19*
X668528Y-87376D02*
X674624Y-93472D01*
X668528Y-87376D02*
X654304Y-87376D01*
X636016Y-105664D01*
X635000Y-104200D01*
D18*
X674624Y-93472D03*
D20*
X331216Y-42512D02*
X331216Y-12192D01*
X333248Y-10160D01*
D18*
X331216Y-42512D03*
X333248Y-10160D03*
D19*
X345000Y-40000D02*
X375000Y-40000D01*
X345000Y-40000D02*
X345000Y-55000D01*
X715000Y0D02*
X760000Y45000D01*
X415000Y-85000D02*
X375000Y-45000D01*
X375000Y-40000D01*
X760000Y45000D02*
X762000Y48200D01*
D18*
X345000Y-55000D03*
X715000Y0D03*
X415000Y-85000D03*
D19*
X481584Y42672D02*
X481584Y46736D01*
X481584Y42672D02*
X469392Y30480D01*
X424688Y30480D01*
X400304Y54864D01*
X371856Y54864D01*
X369824Y52832D01*
X247904Y52832D01*
X213360Y87376D01*
X481584Y46736D02*
X482600Y48200D01*
X215300Y88500D02*
X213360Y87376D01*
X191008Y87376D02*
X191008Y83312D01*
X229616Y44704D01*
X347472Y44704D01*
X355600Y36576D01*
X191008Y87376D02*
X189900Y88500D01*
D18*
X355600Y36576D03*
D19*
X168656Y83312D02*
X164592Y87376D01*
X168656Y83312D02*
X168656Y81280D01*
X213360Y36576D01*
X345440Y36576D01*
X164592Y87376D02*
X164500Y88500D01*
D18*
X345440Y36576D03*
D19*
X416560Y-10160D02*
X508000Y-101600D01*
X508000Y-104200D01*
D18*
X416560Y-10160D03*
X490000Y60960D03*
X510000Y-15000D03*
X535000Y-75000D03*
D19*
X535000Y-102600D01*
X533400Y-104200D01*
X494284Y53040D02*
X490000Y57324D01*
X490000Y60960D01*
X494284Y716D02*
X510000Y-15000D01*
X494284Y716D02*
X494284Y53040D01*
D21*
X189900Y-38500D02*
X184257Y-38500D01*
X170287Y-52470D01*
X72822Y303D02*
X72822Y17178D01*
X125595Y-52470D02*
X170287Y-52470D01*
X125595Y-52470D02*
X72822Y303D01*
X60000Y30000D02*
X35400Y30000D01*
X60000Y30000D02*
X72822Y17178D01*
X64186Y814D02*
X64186Y-3274D01*
X64186Y814D02*
X55000Y10000D01*
X64186Y-3274D02*
X122018Y-61106D01*
X209657Y-38500D02*
X215300Y-38500D01*
X209657Y-38500D02*
X187051Y-61106D01*
X122018Y-61106D01*
X55000Y10000D02*
X35400Y10000D01*
X235057Y-38500D02*
X240700Y-38500D01*
X235057Y-38500D02*
X203815Y-69742D01*
X118441Y-69742D01*
X58699Y-10000D02*
X35400Y-10000D01*
X58699Y-10000D02*
X118441Y-69742D01*
X43900Y-38500D02*
X35400Y-30000D01*
X43900Y-38500D02*
X74985Y-38500D01*
X114863Y-78378D01*
X260457Y-38500D02*
X266100Y-38500D01*
X260457Y-38500D02*
X220579Y-78378D01*
X114863Y-78378D01*
D19*
X375000Y20000D02*
X385000Y30000D01*
X410000Y30000D01*
X410000Y20000D01*
D18*
X410000Y20000D03*
D19*
X575000Y20000D02*
X625000Y20000D01*
X625000Y40000D01*
X635000Y50000D01*
X635000Y48200D01*
D18*
X575000Y20000D03*
M02*
