M48
;GenerationSoftware,Autodesk,EAGLE,9.5.2*%
;CreationDate,2020-08-24T22:20:38Z*%
FMAT,2
ICI,OFF
METRIC,TZ,000.000
T8C0.350
T7C0.711
T6C0.800
T5C0.813
T4C1.000
T3C1.200
T2C1.700
T1C3.300
%
G90
M71
T1
X7000Y-8500
X7000Y8500
X37000Y8500
X37000Y-8500
T2
X66000Y-5300
X66000Y-300
T3
X70530Y13880
X70530Y7880
T4
X13910Y8850
X13910Y-3850
X16450Y-3850
X18990Y-3850
X21530Y-3850
X76000Y-8300
X76200Y-10420
X73660Y-10420
X71120Y-10420
X68580Y-10420
X66040Y-10420
X76000Y2700
X63500Y-10420
X60960Y-10420
X58420Y-10420
X55880Y-10420
X53340Y-10420
X50800Y-10420
X48260Y-10420
X45720Y-10420
X43180Y-10420
X43180Y4820
X48260Y4820
X50800Y4820
X53340Y4820
X55880Y4820
X58420Y4820
X60960Y4820
X63500Y4820
X66040Y4820
X68580Y4820
X71120Y4820
X73660Y4820
X29150Y-3850
X76200Y4820
X24070Y8850
X26610Y8850
X29150Y8850
X31690Y8850
X24070Y-3850
X26610Y-3850
X45720Y4820
X31690Y-3850
X21530Y8850
X18990Y8850
X16450Y8850
T5
X8730Y630
X8730Y3170
T6
X68130Y11880
X68130Y9880
X46700Y7400
X49200Y10600
X51700Y7400
T7
X37500Y4000
X39500Y-2000
X37500Y-4000
X39500Y-4000
X37500Y-2000
X37500Y0
X39500Y0
X37500Y2000
X39500Y2000
X39500Y4000
X3540Y1000
X3540Y3000
X3540Y-1000
X3540Y-3000
T8
X25500Y500
X16000Y5000
X14000Y5000
X13000Y-9500
X14500Y-10000
X53500Y6500
X66118Y8096
X67462Y-9347
X33122Y-4251
X33325Y-1016
X71500Y0
X41500Y-8500
X35560Y3658
X34544Y3658
X41656Y-1016
X34500Y-5500
X57500Y2000
X53500Y7700
X41000Y2000
X53500Y-7500
X49000Y6096
X25500Y2500
X51000Y-1500
M30