G04 EAGLE Gerber RS-274X export*
G75*
%MOMM*%
%FSLAX34Y34*%
%LPD*%
%INSilkscreen Bottom*%
%IPPOS*%
%AMOC8*
5,1,8,0,0,1.08239X$1,22.5*%
G01*
%ADD10C,0.076200*%
%ADD11C,0.152400*%
%ADD12C,0.203200*%
%ADD13C,0.127000*%


D10*
X69619Y30602D02*
X67008Y30602D01*
X67008Y30603D02*
X66907Y30601D01*
X66806Y30595D01*
X66705Y30585D01*
X66605Y30572D01*
X66505Y30554D01*
X66406Y30533D01*
X66308Y30507D01*
X66211Y30478D01*
X66115Y30446D01*
X66021Y30409D01*
X65928Y30369D01*
X65836Y30325D01*
X65747Y30278D01*
X65659Y30227D01*
X65573Y30173D01*
X65490Y30116D01*
X65408Y30056D01*
X65330Y29992D01*
X65253Y29926D01*
X65180Y29856D01*
X65109Y29784D01*
X65041Y29709D01*
X64976Y29631D01*
X64914Y29551D01*
X64855Y29469D01*
X64799Y29384D01*
X64747Y29298D01*
X64698Y29209D01*
X64652Y29118D01*
X64611Y29026D01*
X64572Y28932D01*
X64538Y28837D01*
X64507Y28741D01*
X64480Y28643D01*
X64456Y28545D01*
X64437Y28445D01*
X64421Y28345D01*
X64409Y28245D01*
X64401Y28144D01*
X64397Y28043D01*
X64397Y27941D01*
X64401Y27840D01*
X64409Y27739D01*
X64421Y27639D01*
X64437Y27539D01*
X64456Y27439D01*
X64480Y27341D01*
X64507Y27243D01*
X64538Y27147D01*
X64572Y27052D01*
X64611Y26958D01*
X64652Y26866D01*
X64698Y26775D01*
X64747Y26687D01*
X64799Y26600D01*
X64855Y26515D01*
X64914Y26433D01*
X64976Y26353D01*
X65041Y26275D01*
X65109Y26200D01*
X65180Y26128D01*
X65253Y26058D01*
X65330Y25992D01*
X65408Y25928D01*
X65490Y25868D01*
X65573Y25811D01*
X65659Y25757D01*
X65747Y25706D01*
X65836Y25659D01*
X65928Y25615D01*
X66021Y25575D01*
X66115Y25538D01*
X66211Y25506D01*
X66308Y25477D01*
X66406Y25451D01*
X66505Y25430D01*
X66605Y25412D01*
X66705Y25399D01*
X66806Y25389D01*
X66907Y25383D01*
X67008Y25381D01*
X69619Y25381D01*
X69619Y34779D01*
X67008Y34779D01*
X66918Y34777D01*
X66829Y34771D01*
X66739Y34762D01*
X66650Y34748D01*
X66562Y34731D01*
X66475Y34710D01*
X66388Y34685D01*
X66303Y34656D01*
X66219Y34624D01*
X66137Y34589D01*
X66056Y34549D01*
X65977Y34507D01*
X65900Y34461D01*
X65825Y34411D01*
X65752Y34359D01*
X65681Y34303D01*
X65613Y34245D01*
X65548Y34183D01*
X65485Y34119D01*
X65425Y34052D01*
X65368Y33983D01*
X65314Y33911D01*
X65263Y33837D01*
X65215Y33761D01*
X65171Y33683D01*
X65130Y33603D01*
X65092Y33521D01*
X65058Y33438D01*
X65028Y33353D01*
X65001Y33267D01*
X64978Y33181D01*
X64959Y33093D01*
X64944Y33004D01*
X64932Y32915D01*
X64924Y32826D01*
X64920Y32736D01*
X64920Y32646D01*
X64924Y32556D01*
X64932Y32467D01*
X64944Y32378D01*
X64959Y32289D01*
X64978Y32201D01*
X65001Y32115D01*
X65028Y32029D01*
X65058Y31944D01*
X65092Y31861D01*
X65130Y31779D01*
X65171Y31699D01*
X65215Y31621D01*
X65263Y31545D01*
X65314Y31471D01*
X65368Y31399D01*
X65425Y31330D01*
X65485Y31263D01*
X65548Y31199D01*
X65613Y31137D01*
X65681Y31079D01*
X65752Y31023D01*
X65825Y30971D01*
X65900Y30921D01*
X65977Y30875D01*
X66056Y30833D01*
X66137Y30793D01*
X66219Y30758D01*
X66303Y30726D01*
X66388Y30697D01*
X66475Y30672D01*
X66562Y30651D01*
X66650Y30634D01*
X66739Y30620D01*
X66829Y30611D01*
X66918Y30605D01*
X67008Y30603D01*
X58039Y34780D02*
X57944Y34778D01*
X57850Y34772D01*
X57756Y34763D01*
X57662Y34750D01*
X57569Y34733D01*
X57477Y34712D01*
X57385Y34687D01*
X57295Y34659D01*
X57206Y34627D01*
X57118Y34592D01*
X57032Y34553D01*
X56947Y34511D01*
X56864Y34465D01*
X56783Y34416D01*
X56704Y34364D01*
X56627Y34309D01*
X56553Y34250D01*
X56481Y34189D01*
X56411Y34125D01*
X56344Y34058D01*
X56280Y33988D01*
X56219Y33916D01*
X56160Y33842D01*
X56105Y33765D01*
X56053Y33686D01*
X56004Y33605D01*
X55958Y33522D01*
X55916Y33437D01*
X55877Y33351D01*
X55842Y33263D01*
X55810Y33174D01*
X55782Y33084D01*
X55757Y32992D01*
X55736Y32900D01*
X55719Y32807D01*
X55706Y32713D01*
X55697Y32619D01*
X55691Y32525D01*
X55689Y32430D01*
X58039Y34779D02*
X58147Y34777D01*
X58256Y34771D01*
X58364Y34761D01*
X58471Y34748D01*
X58578Y34730D01*
X58685Y34709D01*
X58790Y34684D01*
X58895Y34655D01*
X58998Y34623D01*
X59100Y34586D01*
X59201Y34546D01*
X59300Y34503D01*
X59398Y34456D01*
X59494Y34405D01*
X59588Y34351D01*
X59680Y34294D01*
X59770Y34233D01*
X59858Y34169D01*
X59943Y34103D01*
X60026Y34033D01*
X60106Y33960D01*
X60184Y33884D01*
X60259Y33806D01*
X60331Y33725D01*
X60400Y33641D01*
X60466Y33555D01*
X60529Y33467D01*
X60588Y33376D01*
X60645Y33284D01*
X60698Y33189D01*
X60747Y33092D01*
X60793Y32994D01*
X60836Y32895D01*
X60875Y32793D01*
X60910Y32691D01*
X56473Y30602D02*
X56404Y30671D01*
X56338Y30742D01*
X56274Y30815D01*
X56213Y30891D01*
X56155Y30970D01*
X56101Y31050D01*
X56049Y31133D01*
X56001Y31217D01*
X55955Y31303D01*
X55914Y31391D01*
X55875Y31481D01*
X55840Y31572D01*
X55809Y31664D01*
X55781Y31757D01*
X55757Y31851D01*
X55737Y31946D01*
X55720Y32042D01*
X55707Y32139D01*
X55698Y32236D01*
X55692Y32333D01*
X55690Y32430D01*
X56473Y30602D02*
X60911Y25381D01*
X55690Y25381D01*
X67008Y10602D02*
X69619Y10602D01*
X67008Y10603D02*
X66907Y10601D01*
X66806Y10595D01*
X66705Y10585D01*
X66605Y10572D01*
X66505Y10554D01*
X66406Y10533D01*
X66308Y10507D01*
X66211Y10478D01*
X66115Y10446D01*
X66021Y10409D01*
X65928Y10369D01*
X65836Y10325D01*
X65747Y10278D01*
X65659Y10227D01*
X65573Y10173D01*
X65490Y10116D01*
X65408Y10056D01*
X65330Y9992D01*
X65253Y9926D01*
X65180Y9856D01*
X65109Y9784D01*
X65041Y9709D01*
X64976Y9631D01*
X64914Y9551D01*
X64855Y9469D01*
X64799Y9384D01*
X64747Y9298D01*
X64698Y9209D01*
X64652Y9118D01*
X64611Y9026D01*
X64572Y8932D01*
X64538Y8837D01*
X64507Y8741D01*
X64480Y8643D01*
X64456Y8545D01*
X64437Y8445D01*
X64421Y8345D01*
X64409Y8245D01*
X64401Y8144D01*
X64397Y8043D01*
X64397Y7941D01*
X64401Y7840D01*
X64409Y7739D01*
X64421Y7639D01*
X64437Y7539D01*
X64456Y7439D01*
X64480Y7341D01*
X64507Y7243D01*
X64538Y7147D01*
X64572Y7052D01*
X64611Y6958D01*
X64652Y6866D01*
X64698Y6775D01*
X64747Y6687D01*
X64799Y6600D01*
X64855Y6515D01*
X64914Y6433D01*
X64976Y6353D01*
X65041Y6275D01*
X65109Y6200D01*
X65180Y6128D01*
X65253Y6058D01*
X65330Y5992D01*
X65408Y5928D01*
X65490Y5868D01*
X65573Y5811D01*
X65659Y5757D01*
X65747Y5706D01*
X65836Y5659D01*
X65928Y5615D01*
X66021Y5575D01*
X66115Y5538D01*
X66211Y5506D01*
X66308Y5477D01*
X66406Y5451D01*
X66505Y5430D01*
X66605Y5412D01*
X66705Y5399D01*
X66806Y5389D01*
X66907Y5383D01*
X67008Y5381D01*
X69619Y5381D01*
X69619Y14779D01*
X67008Y14779D01*
X66918Y14777D01*
X66829Y14771D01*
X66739Y14762D01*
X66650Y14748D01*
X66562Y14731D01*
X66475Y14710D01*
X66388Y14685D01*
X66303Y14656D01*
X66219Y14624D01*
X66137Y14589D01*
X66056Y14549D01*
X65977Y14507D01*
X65900Y14461D01*
X65825Y14411D01*
X65752Y14359D01*
X65681Y14303D01*
X65613Y14245D01*
X65548Y14183D01*
X65485Y14119D01*
X65425Y14052D01*
X65368Y13983D01*
X65314Y13911D01*
X65263Y13837D01*
X65215Y13761D01*
X65171Y13683D01*
X65130Y13603D01*
X65092Y13521D01*
X65058Y13438D01*
X65028Y13353D01*
X65001Y13267D01*
X64978Y13181D01*
X64959Y13093D01*
X64944Y13004D01*
X64932Y12915D01*
X64924Y12826D01*
X64920Y12736D01*
X64920Y12646D01*
X64924Y12556D01*
X64932Y12467D01*
X64944Y12378D01*
X64959Y12289D01*
X64978Y12201D01*
X65001Y12115D01*
X65028Y12029D01*
X65058Y11944D01*
X65092Y11861D01*
X65130Y11779D01*
X65171Y11699D01*
X65215Y11621D01*
X65263Y11545D01*
X65314Y11471D01*
X65368Y11399D01*
X65425Y11330D01*
X65485Y11263D01*
X65548Y11199D01*
X65613Y11137D01*
X65681Y11079D01*
X65752Y11023D01*
X65825Y10971D01*
X65900Y10921D01*
X65977Y10875D01*
X66056Y10833D01*
X66137Y10793D01*
X66219Y10758D01*
X66303Y10726D01*
X66388Y10697D01*
X66475Y10672D01*
X66562Y10651D01*
X66650Y10634D01*
X66739Y10620D01*
X66829Y10611D01*
X66918Y10605D01*
X67008Y10603D01*
X60911Y12691D02*
X58301Y14779D01*
X58301Y5381D01*
X60911Y5381D02*
X55690Y5381D01*
X66486Y-5221D02*
X69619Y-14619D01*
X63354Y-14619D02*
X66486Y-5221D01*
X64137Y-12270D02*
X68836Y-12270D01*
X59953Y-7309D02*
X57342Y-5221D01*
X57342Y-14619D01*
X54732Y-14619D02*
X59953Y-14619D01*
X66486Y-25221D02*
X69619Y-34619D01*
X63354Y-34619D02*
X66486Y-25221D01*
X64137Y-32270D02*
X68836Y-32270D01*
X57081Y-25221D02*
X56986Y-25223D01*
X56892Y-25229D01*
X56798Y-25238D01*
X56704Y-25251D01*
X56611Y-25268D01*
X56519Y-25289D01*
X56427Y-25314D01*
X56337Y-25342D01*
X56248Y-25374D01*
X56160Y-25409D01*
X56074Y-25448D01*
X55989Y-25490D01*
X55906Y-25536D01*
X55825Y-25585D01*
X55746Y-25637D01*
X55669Y-25692D01*
X55595Y-25751D01*
X55523Y-25812D01*
X55453Y-25876D01*
X55386Y-25943D01*
X55322Y-26013D01*
X55261Y-26085D01*
X55202Y-26159D01*
X55147Y-26236D01*
X55095Y-26315D01*
X55046Y-26396D01*
X55000Y-26479D01*
X54958Y-26564D01*
X54919Y-26650D01*
X54884Y-26738D01*
X54852Y-26827D01*
X54824Y-26917D01*
X54799Y-27009D01*
X54778Y-27101D01*
X54761Y-27194D01*
X54748Y-27288D01*
X54739Y-27382D01*
X54733Y-27476D01*
X54731Y-27571D01*
X57081Y-25221D02*
X57189Y-25223D01*
X57298Y-25229D01*
X57406Y-25239D01*
X57513Y-25252D01*
X57620Y-25270D01*
X57727Y-25291D01*
X57832Y-25316D01*
X57937Y-25345D01*
X58040Y-25377D01*
X58142Y-25414D01*
X58243Y-25454D01*
X58342Y-25497D01*
X58440Y-25544D01*
X58536Y-25595D01*
X58630Y-25649D01*
X58722Y-25706D01*
X58812Y-25767D01*
X58900Y-25831D01*
X58985Y-25897D01*
X59068Y-25967D01*
X59148Y-26040D01*
X59226Y-26116D01*
X59301Y-26194D01*
X59373Y-26275D01*
X59442Y-26359D01*
X59508Y-26445D01*
X59571Y-26533D01*
X59630Y-26624D01*
X59687Y-26717D01*
X59740Y-26811D01*
X59789Y-26908D01*
X59836Y-27006D01*
X59878Y-27105D01*
X59917Y-27207D01*
X59952Y-27309D01*
X55514Y-29399D02*
X55445Y-29330D01*
X55379Y-29259D01*
X55315Y-29186D01*
X55254Y-29110D01*
X55196Y-29031D01*
X55142Y-28951D01*
X55090Y-28868D01*
X55042Y-28784D01*
X54996Y-28698D01*
X54955Y-28610D01*
X54916Y-28520D01*
X54881Y-28429D01*
X54850Y-28337D01*
X54822Y-28244D01*
X54798Y-28150D01*
X54778Y-28055D01*
X54761Y-27959D01*
X54748Y-27862D01*
X54739Y-27765D01*
X54733Y-27668D01*
X54731Y-27571D01*
X55515Y-29398D02*
X59953Y-34619D01*
X54732Y-34619D01*
X356486Y24779D02*
X359619Y15381D01*
X353354Y15381D02*
X356486Y24779D01*
X354137Y17731D02*
X358836Y17731D01*
X359619Y602D02*
X357008Y602D01*
X357008Y603D02*
X356907Y601D01*
X356806Y595D01*
X356705Y585D01*
X356605Y572D01*
X356505Y554D01*
X356406Y533D01*
X356308Y507D01*
X356211Y478D01*
X356115Y446D01*
X356021Y409D01*
X355928Y369D01*
X355836Y325D01*
X355747Y278D01*
X355659Y227D01*
X355573Y173D01*
X355490Y116D01*
X355408Y56D01*
X355330Y-8D01*
X355253Y-74D01*
X355180Y-144D01*
X355109Y-216D01*
X355041Y-291D01*
X354976Y-369D01*
X354914Y-449D01*
X354855Y-531D01*
X354799Y-616D01*
X354747Y-703D01*
X354698Y-791D01*
X354652Y-882D01*
X354611Y-974D01*
X354572Y-1068D01*
X354538Y-1163D01*
X354507Y-1259D01*
X354480Y-1357D01*
X354456Y-1455D01*
X354437Y-1555D01*
X354421Y-1655D01*
X354409Y-1755D01*
X354401Y-1856D01*
X354397Y-1957D01*
X354397Y-2059D01*
X354401Y-2160D01*
X354409Y-2261D01*
X354421Y-2361D01*
X354437Y-2461D01*
X354456Y-2561D01*
X354480Y-2659D01*
X354507Y-2757D01*
X354538Y-2853D01*
X354572Y-2948D01*
X354611Y-3042D01*
X354652Y-3134D01*
X354698Y-3225D01*
X354747Y-3314D01*
X354799Y-3400D01*
X354855Y-3485D01*
X354914Y-3567D01*
X354976Y-3647D01*
X355041Y-3725D01*
X355109Y-3800D01*
X355180Y-3872D01*
X355253Y-3942D01*
X355330Y-4008D01*
X355408Y-4072D01*
X355490Y-4132D01*
X355573Y-4189D01*
X355659Y-4243D01*
X355747Y-4294D01*
X355836Y-4341D01*
X355928Y-4385D01*
X356021Y-4425D01*
X356115Y-4462D01*
X356211Y-4494D01*
X356308Y-4523D01*
X356406Y-4549D01*
X356505Y-4570D01*
X356605Y-4588D01*
X356705Y-4601D01*
X356806Y-4611D01*
X356907Y-4617D01*
X357008Y-4619D01*
X359619Y-4619D01*
X359619Y4779D01*
X357008Y4779D01*
X356918Y4777D01*
X356829Y4771D01*
X356739Y4762D01*
X356650Y4748D01*
X356562Y4731D01*
X356475Y4710D01*
X356388Y4685D01*
X356303Y4656D01*
X356219Y4624D01*
X356137Y4589D01*
X356056Y4549D01*
X355977Y4507D01*
X355900Y4461D01*
X355825Y4411D01*
X355752Y4359D01*
X355681Y4303D01*
X355613Y4245D01*
X355548Y4183D01*
X355485Y4119D01*
X355425Y4052D01*
X355368Y3983D01*
X355314Y3911D01*
X355263Y3837D01*
X355215Y3761D01*
X355171Y3683D01*
X355130Y3603D01*
X355092Y3521D01*
X355058Y3438D01*
X355028Y3353D01*
X355001Y3267D01*
X354978Y3181D01*
X354959Y3093D01*
X354944Y3004D01*
X354932Y2915D01*
X354924Y2826D01*
X354920Y2736D01*
X354920Y2646D01*
X354924Y2556D01*
X354932Y2467D01*
X354944Y2378D01*
X354959Y2289D01*
X354978Y2201D01*
X355001Y2115D01*
X355028Y2029D01*
X355058Y1944D01*
X355092Y1861D01*
X355130Y1779D01*
X355171Y1699D01*
X355215Y1621D01*
X355263Y1545D01*
X355314Y1471D01*
X355368Y1399D01*
X355425Y1330D01*
X355485Y1263D01*
X355548Y1199D01*
X355613Y1137D01*
X355681Y1079D01*
X355752Y1023D01*
X355825Y971D01*
X355900Y921D01*
X355977Y875D01*
X356056Y833D01*
X356137Y793D01*
X356219Y758D01*
X356303Y726D01*
X356388Y697D01*
X356475Y672D01*
X356562Y651D01*
X356650Y634D01*
X356739Y620D01*
X356829Y611D01*
X356918Y605D01*
X357008Y603D01*
X358575Y-15221D02*
X358575Y-24619D01*
X359619Y-24619D02*
X357531Y-24619D01*
X357531Y-15221D02*
X359619Y-15221D01*
X359619Y-44619D02*
X356486Y-44619D01*
X356397Y-44617D01*
X356309Y-44611D01*
X356221Y-44602D01*
X356133Y-44589D01*
X356046Y-44572D01*
X355960Y-44552D01*
X355875Y-44527D01*
X355790Y-44500D01*
X355707Y-44468D01*
X355626Y-44434D01*
X355546Y-44395D01*
X355468Y-44354D01*
X355391Y-44309D01*
X355317Y-44261D01*
X355244Y-44210D01*
X355174Y-44156D01*
X355107Y-44098D01*
X355041Y-44038D01*
X354979Y-43976D01*
X354919Y-43910D01*
X354861Y-43843D01*
X354807Y-43773D01*
X354756Y-43700D01*
X354708Y-43626D01*
X354663Y-43549D01*
X354622Y-43471D01*
X354583Y-43391D01*
X354549Y-43310D01*
X354517Y-43227D01*
X354490Y-43142D01*
X354465Y-43057D01*
X354445Y-42971D01*
X354428Y-42884D01*
X354415Y-42796D01*
X354406Y-42708D01*
X354400Y-42620D01*
X354398Y-42531D01*
X354398Y-41486D01*
X354400Y-41397D01*
X354406Y-41309D01*
X354415Y-41221D01*
X354428Y-41133D01*
X354445Y-41046D01*
X354465Y-40960D01*
X354490Y-40875D01*
X354517Y-40790D01*
X354549Y-40707D01*
X354583Y-40626D01*
X354622Y-40546D01*
X354663Y-40468D01*
X354708Y-40391D01*
X354756Y-40317D01*
X354807Y-40244D01*
X354861Y-40174D01*
X354919Y-40107D01*
X354979Y-40041D01*
X355041Y-39979D01*
X355107Y-39919D01*
X355174Y-39861D01*
X355244Y-39807D01*
X355317Y-39756D01*
X355391Y-39708D01*
X355468Y-39663D01*
X355546Y-39622D01*
X355626Y-39583D01*
X355707Y-39549D01*
X355790Y-39517D01*
X355875Y-39490D01*
X355960Y-39465D01*
X356046Y-39445D01*
X356133Y-39428D01*
X356221Y-39415D01*
X356309Y-39406D01*
X356397Y-39400D01*
X356486Y-39398D01*
X359619Y-39398D01*
X359619Y-35221D01*
X354398Y-35221D01*
X350997Y-35221D02*
X347865Y-44619D01*
X344732Y-35221D01*
X354398Y40602D02*
X355964Y40602D01*
X354398Y40602D02*
X354398Y35381D01*
X357531Y35381D01*
X357620Y35383D01*
X357708Y35389D01*
X357796Y35398D01*
X357884Y35411D01*
X357971Y35428D01*
X358057Y35448D01*
X358142Y35473D01*
X358227Y35500D01*
X358310Y35532D01*
X358391Y35566D01*
X358471Y35605D01*
X358549Y35646D01*
X358626Y35691D01*
X358700Y35739D01*
X358773Y35790D01*
X358843Y35844D01*
X358910Y35902D01*
X358976Y35962D01*
X359038Y36024D01*
X359098Y36090D01*
X359156Y36157D01*
X359210Y36227D01*
X359261Y36300D01*
X359309Y36374D01*
X359354Y36451D01*
X359395Y36529D01*
X359434Y36609D01*
X359468Y36690D01*
X359500Y36773D01*
X359527Y36858D01*
X359552Y36943D01*
X359572Y37029D01*
X359589Y37116D01*
X359602Y37204D01*
X359611Y37292D01*
X359617Y37380D01*
X359619Y37469D01*
X359619Y42691D01*
X359617Y42780D01*
X359611Y42868D01*
X359602Y42956D01*
X359589Y43044D01*
X359572Y43131D01*
X359552Y43217D01*
X359527Y43302D01*
X359500Y43387D01*
X359468Y43470D01*
X359434Y43551D01*
X359395Y43631D01*
X359354Y43709D01*
X359309Y43786D01*
X359261Y43860D01*
X359210Y43933D01*
X359156Y44003D01*
X359098Y44070D01*
X359038Y44136D01*
X358976Y44198D01*
X358910Y44258D01*
X358843Y44316D01*
X358773Y44370D01*
X358700Y44421D01*
X358626Y44469D01*
X358549Y44514D01*
X358471Y44555D01*
X358391Y44594D01*
X358310Y44628D01*
X358227Y44660D01*
X358142Y44687D01*
X358057Y44712D01*
X357971Y44732D01*
X357884Y44749D01*
X357796Y44762D01*
X357708Y44771D01*
X357620Y44777D01*
X357531Y44779D01*
X354398Y44779D01*
X349865Y44779D02*
X349865Y35381D01*
X344644Y35381D02*
X349865Y44779D01*
X344644Y44779D02*
X344644Y35381D01*
X340112Y35381D02*
X340112Y44779D01*
X337501Y44779D01*
X337401Y44777D01*
X337301Y44771D01*
X337202Y44762D01*
X337102Y44748D01*
X337004Y44731D01*
X336906Y44710D01*
X336809Y44686D01*
X336713Y44657D01*
X336618Y44625D01*
X336525Y44590D01*
X336433Y44551D01*
X336342Y44508D01*
X336254Y44462D01*
X336167Y44412D01*
X336082Y44360D01*
X335999Y44304D01*
X335918Y44245D01*
X335840Y44182D01*
X335764Y44117D01*
X335690Y44049D01*
X335620Y43979D01*
X335552Y43905D01*
X335487Y43829D01*
X335424Y43751D01*
X335365Y43670D01*
X335309Y43587D01*
X335257Y43502D01*
X335207Y43415D01*
X335161Y43327D01*
X335118Y43236D01*
X335079Y43144D01*
X335044Y43051D01*
X335012Y42956D01*
X334983Y42860D01*
X334959Y42763D01*
X334938Y42665D01*
X334921Y42567D01*
X334907Y42467D01*
X334898Y42368D01*
X334892Y42268D01*
X334890Y42168D01*
X334891Y42168D02*
X334891Y37992D01*
X334890Y37992D02*
X334892Y37892D01*
X334898Y37792D01*
X334907Y37693D01*
X334921Y37593D01*
X334938Y37495D01*
X334959Y37397D01*
X334983Y37300D01*
X335012Y37204D01*
X335044Y37109D01*
X335079Y37016D01*
X335118Y36924D01*
X335161Y36833D01*
X335207Y36745D01*
X335257Y36658D01*
X335309Y36573D01*
X335365Y36490D01*
X335424Y36409D01*
X335487Y36331D01*
X335552Y36255D01*
X335620Y36181D01*
X335690Y36111D01*
X335764Y36043D01*
X335840Y35978D01*
X335918Y35915D01*
X335999Y35856D01*
X336082Y35800D01*
X336167Y35748D01*
X336254Y35698D01*
X336342Y35652D01*
X336433Y35609D01*
X336525Y35570D01*
X336618Y35535D01*
X336713Y35503D01*
X336809Y35474D01*
X336906Y35450D01*
X337004Y35429D01*
X337102Y35412D01*
X337202Y35398D01*
X337301Y35389D01*
X337401Y35383D01*
X337501Y35381D01*
X340112Y35381D01*
X442008Y85381D02*
X442008Y94779D01*
X439398Y94779D02*
X444619Y94779D01*
X435762Y85381D02*
X431585Y85381D01*
X435762Y85381D02*
X435762Y94779D01*
X431585Y94779D01*
X432630Y90602D02*
X435762Y90602D01*
X427798Y94779D02*
X427798Y85381D01*
X427798Y94779D02*
X425188Y94779D01*
X425087Y94777D01*
X424986Y94771D01*
X424885Y94761D01*
X424785Y94748D01*
X424685Y94730D01*
X424586Y94709D01*
X424488Y94683D01*
X424391Y94654D01*
X424295Y94622D01*
X424201Y94585D01*
X424108Y94545D01*
X424016Y94501D01*
X423927Y94454D01*
X423839Y94403D01*
X423753Y94349D01*
X423670Y94292D01*
X423588Y94232D01*
X423510Y94168D01*
X423433Y94102D01*
X423360Y94032D01*
X423289Y93960D01*
X423221Y93885D01*
X423156Y93807D01*
X423094Y93727D01*
X423035Y93645D01*
X422979Y93560D01*
X422927Y93474D01*
X422878Y93385D01*
X422832Y93294D01*
X422791Y93202D01*
X422752Y93108D01*
X422718Y93013D01*
X422687Y92917D01*
X422660Y92819D01*
X422636Y92721D01*
X422617Y92621D01*
X422601Y92521D01*
X422589Y92421D01*
X422581Y92320D01*
X422577Y92219D01*
X422577Y92117D01*
X422581Y92016D01*
X422589Y91915D01*
X422601Y91815D01*
X422617Y91715D01*
X422636Y91615D01*
X422660Y91517D01*
X422687Y91419D01*
X422718Y91323D01*
X422752Y91228D01*
X422791Y91134D01*
X422832Y91042D01*
X422878Y90951D01*
X422927Y90863D01*
X422979Y90776D01*
X423035Y90691D01*
X423094Y90609D01*
X423156Y90529D01*
X423221Y90451D01*
X423289Y90376D01*
X423360Y90304D01*
X423433Y90234D01*
X423510Y90168D01*
X423588Y90104D01*
X423670Y90044D01*
X423753Y89987D01*
X423839Y89933D01*
X423927Y89882D01*
X424016Y89835D01*
X424108Y89791D01*
X424201Y89751D01*
X424295Y89714D01*
X424391Y89682D01*
X424488Y89653D01*
X424586Y89627D01*
X424685Y89606D01*
X424785Y89588D01*
X424885Y89575D01*
X424986Y89565D01*
X425087Y89559D01*
X425188Y89557D01*
X425188Y89558D02*
X427798Y89558D01*
X424665Y89558D02*
X422577Y85381D01*
X418319Y85381D02*
X418319Y94779D01*
X415186Y89558D01*
X412054Y94779D01*
X412054Y85381D01*
D11*
X87300Y-3860D02*
X87300Y-11480D01*
X83490Y-7670D02*
X91110Y-7670D01*
X53010Y19000D02*
X53020Y19842D01*
X53051Y20683D01*
X53103Y21523D01*
X53175Y22361D01*
X53268Y23197D01*
X53381Y24031D01*
X53515Y24862D01*
X53669Y25690D01*
X53843Y26513D01*
X54038Y27332D01*
X54252Y28146D01*
X54487Y28954D01*
X54741Y29756D01*
X55014Y30552D01*
X55308Y31341D01*
X55620Y32122D01*
X55952Y32896D01*
X56302Y33661D01*
X56671Y34417D01*
X57059Y35164D01*
X57465Y35901D01*
X57888Y36629D01*
X58330Y37345D01*
X58789Y38051D01*
X59265Y38744D01*
X59758Y39427D01*
X60268Y40096D01*
X60793Y40753D01*
X61335Y41397D01*
X61893Y42028D01*
X62466Y42644D01*
X63053Y43247D01*
X63656Y43834D01*
X64272Y44407D01*
X64903Y44965D01*
X65547Y45507D01*
X66204Y46032D01*
X66873Y46542D01*
X67556Y47035D01*
X68249Y47511D01*
X68955Y47970D01*
X69671Y48412D01*
X70399Y48835D01*
X71136Y49241D01*
X71883Y49629D01*
X72639Y49998D01*
X73404Y50348D01*
X74178Y50680D01*
X74959Y50992D01*
X75748Y51286D01*
X76544Y51559D01*
X77346Y51813D01*
X78154Y52048D01*
X78968Y52262D01*
X79787Y52457D01*
X80610Y52631D01*
X81438Y52785D01*
X82269Y52919D01*
X83103Y53032D01*
X83939Y53125D01*
X84777Y53197D01*
X85617Y53249D01*
X86458Y53280D01*
X87300Y53290D01*
X88142Y53280D01*
X88983Y53249D01*
X89823Y53197D01*
X90661Y53125D01*
X91497Y53032D01*
X92331Y52919D01*
X93162Y52785D01*
X93990Y52631D01*
X94813Y52457D01*
X95632Y52262D01*
X96446Y52048D01*
X97254Y51813D01*
X98056Y51559D01*
X98852Y51286D01*
X99641Y50992D01*
X100422Y50680D01*
X101196Y50348D01*
X101961Y49998D01*
X102717Y49629D01*
X103464Y49241D01*
X104201Y48835D01*
X104929Y48412D01*
X105645Y47970D01*
X106351Y47511D01*
X107044Y47035D01*
X107727Y46542D01*
X108396Y46032D01*
X109053Y45507D01*
X109697Y44965D01*
X110328Y44407D01*
X110944Y43834D01*
X111547Y43247D01*
X112134Y42644D01*
X112707Y42028D01*
X113265Y41397D01*
X113807Y40753D01*
X114332Y40096D01*
X114842Y39427D01*
X115335Y38744D01*
X115811Y38051D01*
X116270Y37345D01*
X116712Y36629D01*
X117135Y35901D01*
X117541Y35164D01*
X117929Y34417D01*
X118298Y33661D01*
X118648Y32896D01*
X118980Y32122D01*
X119292Y31341D01*
X119586Y30552D01*
X119859Y29756D01*
X120113Y28954D01*
X120348Y28146D01*
X120562Y27332D01*
X120757Y26513D01*
X120931Y25690D01*
X121085Y24862D01*
X121219Y24031D01*
X121332Y23197D01*
X121425Y22361D01*
X121497Y21523D01*
X121549Y20683D01*
X121580Y19842D01*
X121590Y19000D01*
X121580Y18158D01*
X121549Y17317D01*
X121497Y16477D01*
X121425Y15639D01*
X121332Y14803D01*
X121219Y13969D01*
X121085Y13138D01*
X120931Y12310D01*
X120757Y11487D01*
X120562Y10668D01*
X120348Y9854D01*
X120113Y9046D01*
X119859Y8244D01*
X119586Y7448D01*
X119292Y6659D01*
X118980Y5878D01*
X118648Y5104D01*
X118298Y4339D01*
X117929Y3583D01*
X117541Y2836D01*
X117135Y2099D01*
X116712Y1371D01*
X116270Y655D01*
X115811Y-51D01*
X115335Y-744D01*
X114842Y-1427D01*
X114332Y-2096D01*
X113807Y-2753D01*
X113265Y-3397D01*
X112707Y-4028D01*
X112134Y-4644D01*
X111547Y-5247D01*
X110944Y-5834D01*
X110328Y-6407D01*
X109697Y-6965D01*
X109053Y-7507D01*
X108396Y-8032D01*
X107727Y-8542D01*
X107044Y-9035D01*
X106351Y-9511D01*
X105645Y-9970D01*
X104929Y-10412D01*
X104201Y-10835D01*
X103464Y-11241D01*
X102717Y-11629D01*
X101961Y-11998D01*
X101196Y-12348D01*
X100422Y-12680D01*
X99641Y-12992D01*
X98852Y-13286D01*
X98056Y-13559D01*
X97254Y-13813D01*
X96446Y-14048D01*
X95632Y-14262D01*
X94813Y-14457D01*
X93990Y-14631D01*
X93162Y-14785D01*
X92331Y-14919D01*
X91497Y-15032D01*
X90661Y-15125D01*
X89823Y-15197D01*
X88983Y-15249D01*
X88142Y-15280D01*
X87300Y-15290D01*
X86458Y-15280D01*
X85617Y-15249D01*
X84777Y-15197D01*
X83939Y-15125D01*
X83103Y-15032D01*
X82269Y-14919D01*
X81438Y-14785D01*
X80610Y-14631D01*
X79787Y-14457D01*
X78968Y-14262D01*
X78154Y-14048D01*
X77346Y-13813D01*
X76544Y-13559D01*
X75748Y-13286D01*
X74959Y-12992D01*
X74178Y-12680D01*
X73404Y-12348D01*
X72639Y-11998D01*
X71883Y-11629D01*
X71136Y-11241D01*
X70399Y-10835D01*
X69671Y-10412D01*
X68955Y-9970D01*
X68249Y-9511D01*
X67556Y-9035D01*
X66873Y-8542D01*
X66204Y-8032D01*
X65547Y-7507D01*
X64903Y-6965D01*
X64272Y-6407D01*
X63656Y-5834D01*
X63053Y-5247D01*
X62466Y-4644D01*
X61893Y-4028D01*
X61335Y-3397D01*
X60793Y-2753D01*
X60268Y-2096D01*
X59758Y-1427D01*
X59265Y-744D01*
X58789Y-51D01*
X58330Y655D01*
X57888Y1371D01*
X57465Y2099D01*
X57059Y2836D01*
X56671Y3583D01*
X56302Y4339D01*
X55952Y5104D01*
X55620Y5878D01*
X55308Y6659D01*
X55014Y7448D01*
X54741Y8244D01*
X54487Y9046D01*
X54252Y9854D01*
X54038Y10668D01*
X53843Y11487D01*
X53669Y12310D01*
X53515Y13138D01*
X53381Y13969D01*
X53268Y14803D01*
X53175Y15639D01*
X53103Y16477D01*
X53051Y17317D01*
X53020Y18158D01*
X53010Y19000D01*
D12*
X362500Y52500D02*
X407500Y52500D01*
X362500Y52500D02*
X362500Y-30000D01*
X362500Y-52500D01*
X385000Y-52500D01*
X407500Y-52500D01*
X407500Y52500D01*
X385000Y-30000D02*
X385000Y-52500D01*
X385000Y-30000D02*
X362500Y-30000D01*
X47900Y-42500D02*
X22900Y-42500D01*
X47900Y-42500D02*
X47900Y20000D01*
X47900Y42500D01*
X22900Y42500D01*
X22900Y20000D01*
X22900Y-42500D01*
X22900Y20000D02*
X47900Y20000D01*
D13*
X126400Y101200D02*
X329600Y101200D01*
X329600Y-51200D01*
X126400Y-51200D01*
X126400Y101200D01*
X134100Y63100D02*
X134102Y63241D01*
X134108Y63382D01*
X134118Y63522D01*
X134132Y63662D01*
X134150Y63802D01*
X134171Y63941D01*
X134197Y64080D01*
X134226Y64218D01*
X134260Y64354D01*
X134297Y64490D01*
X134338Y64625D01*
X134383Y64759D01*
X134432Y64891D01*
X134484Y65022D01*
X134540Y65151D01*
X134600Y65278D01*
X134663Y65404D01*
X134729Y65528D01*
X134800Y65651D01*
X134873Y65771D01*
X134950Y65889D01*
X135030Y66005D01*
X135114Y66118D01*
X135200Y66229D01*
X135290Y66338D01*
X135383Y66444D01*
X135478Y66547D01*
X135577Y66648D01*
X135678Y66746D01*
X135782Y66841D01*
X135889Y66933D01*
X135998Y67022D01*
X136110Y67107D01*
X136224Y67190D01*
X136340Y67270D01*
X136459Y67346D01*
X136580Y67418D01*
X136702Y67488D01*
X136827Y67553D01*
X136953Y67616D01*
X137081Y67674D01*
X137211Y67729D01*
X137342Y67781D01*
X137475Y67828D01*
X137609Y67872D01*
X137744Y67913D01*
X137880Y67949D01*
X138017Y67981D01*
X138155Y68010D01*
X138293Y68035D01*
X138433Y68055D01*
X138573Y68072D01*
X138713Y68085D01*
X138854Y68094D01*
X138994Y68099D01*
X139135Y68100D01*
X139276Y68097D01*
X139417Y68090D01*
X139557Y68079D01*
X139697Y68064D01*
X139837Y68045D01*
X139976Y68023D01*
X140114Y67996D01*
X140252Y67966D01*
X140388Y67931D01*
X140524Y67893D01*
X140658Y67851D01*
X140792Y67805D01*
X140924Y67756D01*
X141054Y67702D01*
X141183Y67645D01*
X141310Y67585D01*
X141436Y67521D01*
X141559Y67453D01*
X141681Y67382D01*
X141801Y67308D01*
X141918Y67230D01*
X142033Y67149D01*
X142146Y67065D01*
X142257Y66978D01*
X142365Y66887D01*
X142470Y66794D01*
X142573Y66697D01*
X142673Y66598D01*
X142770Y66496D01*
X142864Y66391D01*
X142955Y66284D01*
X143043Y66174D01*
X143128Y66062D01*
X143210Y65947D01*
X143289Y65830D01*
X143364Y65711D01*
X143436Y65590D01*
X143504Y65467D01*
X143569Y65342D01*
X143631Y65215D01*
X143688Y65086D01*
X143743Y64956D01*
X143793Y64825D01*
X143840Y64692D01*
X143883Y64558D01*
X143922Y64422D01*
X143957Y64286D01*
X143989Y64149D01*
X144016Y64011D01*
X144040Y63872D01*
X144060Y63732D01*
X144076Y63592D01*
X144088Y63452D01*
X144096Y63311D01*
X144100Y63170D01*
X144100Y63030D01*
X144096Y62889D01*
X144088Y62748D01*
X144076Y62608D01*
X144060Y62468D01*
X144040Y62328D01*
X144016Y62189D01*
X143989Y62051D01*
X143957Y61914D01*
X143922Y61778D01*
X143883Y61642D01*
X143840Y61508D01*
X143793Y61375D01*
X143743Y61244D01*
X143688Y61114D01*
X143631Y60985D01*
X143569Y60858D01*
X143504Y60733D01*
X143436Y60610D01*
X143364Y60489D01*
X143289Y60370D01*
X143210Y60253D01*
X143128Y60138D01*
X143043Y60026D01*
X142955Y59916D01*
X142864Y59809D01*
X142770Y59704D01*
X142673Y59602D01*
X142573Y59503D01*
X142470Y59406D01*
X142365Y59313D01*
X142257Y59222D01*
X142146Y59135D01*
X142033Y59051D01*
X141918Y58970D01*
X141801Y58892D01*
X141681Y58818D01*
X141559Y58747D01*
X141436Y58679D01*
X141310Y58615D01*
X141183Y58555D01*
X141054Y58498D01*
X140924Y58444D01*
X140792Y58395D01*
X140658Y58349D01*
X140524Y58307D01*
X140388Y58269D01*
X140252Y58234D01*
X140114Y58204D01*
X139976Y58177D01*
X139837Y58155D01*
X139697Y58136D01*
X139557Y58121D01*
X139417Y58110D01*
X139276Y58103D01*
X139135Y58100D01*
X138994Y58101D01*
X138854Y58106D01*
X138713Y58115D01*
X138573Y58128D01*
X138433Y58145D01*
X138293Y58165D01*
X138155Y58190D01*
X138017Y58219D01*
X137880Y58251D01*
X137744Y58287D01*
X137609Y58328D01*
X137475Y58372D01*
X137342Y58419D01*
X137211Y58471D01*
X137081Y58526D01*
X136953Y58584D01*
X136827Y58647D01*
X136702Y58712D01*
X136580Y58782D01*
X136459Y58854D01*
X136340Y58930D01*
X136224Y59010D01*
X136110Y59093D01*
X135998Y59178D01*
X135889Y59267D01*
X135782Y59359D01*
X135678Y59454D01*
X135577Y59552D01*
X135478Y59653D01*
X135383Y59756D01*
X135290Y59862D01*
X135200Y59971D01*
X135114Y60082D01*
X135030Y60195D01*
X134950Y60311D01*
X134873Y60429D01*
X134800Y60549D01*
X134729Y60672D01*
X134663Y60796D01*
X134600Y60922D01*
X134540Y61049D01*
X134484Y61178D01*
X134432Y61309D01*
X134383Y61441D01*
X134338Y61575D01*
X134297Y61710D01*
X134260Y61846D01*
X134226Y61982D01*
X134197Y62120D01*
X134171Y62259D01*
X134150Y62398D01*
X134132Y62538D01*
X134118Y62678D01*
X134108Y62818D01*
X134102Y62959D01*
X134100Y63100D01*
X449000Y72500D02*
X449000Y107500D01*
X535000Y107500D01*
X535000Y72500D01*
X449000Y72500D01*
X660800Y68800D02*
X773300Y68800D01*
X660800Y68800D02*
X660800Y148800D01*
X773300Y148800D01*
X773300Y68800D01*
X774700Y60900D02*
X419100Y60900D01*
X419100Y-116900D01*
X774700Y-116900D01*
X774700Y-68300D01*
X781200Y-68300D01*
X781200Y12300D01*
X774700Y12300D01*
X774700Y60900D01*
M02*
