G04 EAGLE Gerber RS-274X export*
G75*
%MOMM*%
%FSLAX34Y34*%
%LPD*%
%INSoldermask Top*%
%IPPOS*%
%AMOC8*
5,1,8,0,0,1.08239X$1,22.5*%
G01*
%ADD10C,3.503200*%
%ADD11R,2.803200X2.603200*%
%ADD12P,2.144431X8X112.500000*%
%ADD13C,1.981200*%
%ADD14R,1.003200X1.203200*%
%ADD15R,2.203200X2.603200*%
%ADD16R,1.422400X1.422400*%
%ADD17C,1.422400*%
%ADD18R,1.203200X1.303200*%
%ADD19C,1.879600*%
%ADD20R,0.803200X2.403200*%
%ADD21R,2.403200X0.803200*%
%ADD22C,2.753200*%
%ADD23C,1.625600*%
%ADD24C,2.003200*%
%ADD25C,0.959600*%


D10*
X70000Y85000D03*
X70000Y-85000D03*
X370000Y85000D03*
X370000Y-85000D03*
D11*
X220950Y21100D03*
X157450Y21100D03*
X230250Y-78900D03*
X166750Y-78900D03*
D12*
X87300Y31700D03*
D13*
X87300Y6300D03*
D14*
X325000Y20000D03*
X325000Y0D03*
D15*
X275700Y-81100D03*
X313700Y-81100D03*
D16*
X375000Y-40000D03*
D17*
X395000Y-40000D03*
X375000Y-20000D03*
X395000Y-20000D03*
X375000Y0D03*
X395000Y0D03*
X375000Y20000D03*
X395000Y20000D03*
X375000Y40000D03*
X395000Y40000D03*
D16*
X35400Y30000D03*
D17*
X35400Y10000D03*
X35400Y-10000D03*
X35400Y-30000D03*
D18*
X564500Y100000D03*
X547500Y100000D03*
X564500Y75000D03*
X547500Y75000D03*
D19*
X240700Y88500D03*
X266100Y88500D03*
X291500Y88500D03*
X316900Y88500D03*
X240700Y-38500D03*
X266100Y-38500D03*
X291500Y-38500D03*
X316900Y-38500D03*
X215300Y88500D03*
X189900Y88500D03*
X164500Y88500D03*
X139100Y88500D03*
X139100Y-38500D03*
X164500Y-38500D03*
X189900Y-38500D03*
X215300Y-38500D03*
D20*
X291350Y56000D03*
X291350Y4000D03*
X304050Y56000D03*
X278650Y56000D03*
X265950Y56000D03*
X304050Y4000D03*
X278650Y4000D03*
X265950Y4000D03*
D21*
X639900Y83650D03*
X587900Y83650D03*
X639900Y70950D03*
X639900Y96350D03*
X639900Y109050D03*
X587900Y70950D03*
X587900Y96350D03*
X587900Y109050D03*
D22*
X660000Y-3000D03*
X660000Y-53000D03*
D19*
X760000Y27000D03*
X760000Y-83000D03*
D23*
X517000Y74000D03*
X467000Y74000D03*
X492000Y106000D03*
X681300Y98800D03*
X681300Y118800D03*
D24*
X705300Y78800D03*
X705300Y138800D03*
D19*
X762000Y-104200D03*
X736600Y-104200D03*
X711200Y-104200D03*
X685800Y-104200D03*
X660400Y-104200D03*
X635000Y-104200D03*
X609600Y-104200D03*
X584200Y-104200D03*
X558800Y-104200D03*
X533400Y-104200D03*
X508000Y-104200D03*
X482600Y-104200D03*
X457200Y-104200D03*
X431800Y-104200D03*
X431800Y48200D03*
X457200Y48200D03*
X482600Y48200D03*
X508000Y48200D03*
X533400Y48200D03*
X558800Y48200D03*
X584200Y48200D03*
X609600Y48200D03*
X635000Y48200D03*
X660400Y48200D03*
X685800Y48200D03*
X711200Y48200D03*
X736600Y48200D03*
X762000Y48200D03*
D25*
X255000Y25000D03*
X255000Y5000D03*
X160000Y50000D03*
X140000Y50000D03*
X130000Y-95000D03*
X145000Y-100000D03*
X535000Y77000D03*
X535000Y65000D03*
X661176Y80960D03*
X674624Y-93472D03*
X331216Y-42512D03*
X333248Y-10160D03*
X345000Y-55000D03*
X715000Y0D03*
X415000Y-85000D03*
X355600Y36576D03*
X345440Y36576D03*
X416560Y-10160D03*
X490000Y60960D03*
X510000Y-15000D03*
X535000Y-75000D03*
X410000Y20000D03*
X575000Y20000D03*
M02*
